<mxfile host="Electron" modified="2024-05-11T04:32:41.413Z" agent="Mozilla/5.0 (Macintosh; Intel Mac OS X 10_15_7) AppleWebKit/537.36 (KHTML, like Gecko) draw.io/22.0.3 Chrome/114.0.5735.289 Electron/25.8.4 Safari/537.36" etag="IfB0MiHUauD6lWrBhCyQ" version="22.0.3" type="device" pages="2">
  <diagram name="System overview" id="gZy7iPuuOFLqjKeA5FSJ">
    <mxGraphModel dx="2284" dy="849" grid="1" gridSize="10" guides="1" tooltips="1" connect="1" arrows="1" fold="1" page="1" pageScale="1" pageWidth="850" pageHeight="1100" math="0" shadow="0">
      <root>
        <mxCell id="0" />
        <mxCell id="1" parent="0" />
        <mxCell id="QEaJxpqpwJVfrGncPEcR-37" style="edgeStyle=orthogonalEdgeStyle;rounded=0;orthogonalLoop=1;jettySize=auto;html=1;" parent="1" source="QEaJxpqpwJVfrGncPEcR-1" target="QEaJxpqpwJVfrGncPEcR-36" edge="1">
          <mxGeometry relative="1" as="geometry" />
        </mxCell>
        <mxCell id="QEaJxpqpwJVfrGncPEcR-1" value="events" style="rounded=0;whiteSpace=wrap;html=1;fillColor=#d5e8d4;strokeColor=#82b366;" parent="1" vertex="1">
          <mxGeometry x="670" y="481.16999999999996" width="120" height="60" as="geometry" />
        </mxCell>
        <mxCell id="QEaJxpqpwJVfrGncPEcR-2" value="project" style="rounded=0;whiteSpace=wrap;html=1;fillColor=#f8cecc;strokeColor=#b85450;" parent="1" vertex="1">
          <mxGeometry x="140" y="481.16999999999996" width="120" height="60" as="geometry" />
        </mxCell>
        <mxCell id="QEaJxpqpwJVfrGncPEcR-11" style="edgeStyle=orthogonalEdgeStyle;rounded=0;orthogonalLoop=1;jettySize=auto;html=1;" parent="1" source="QEaJxpqpwJVfrGncPEcR-3" target="QEaJxpqpwJVfrGncPEcR-9" edge="1">
          <mxGeometry relative="1" as="geometry">
            <Array as="points">
              <mxPoint x="430" y="631.17" />
            </Array>
          </mxGeometry>
        </mxCell>
        <mxCell id="QEaJxpqpwJVfrGncPEcR-14" style="edgeStyle=orthogonalEdgeStyle;rounded=0;orthogonalLoop=1;jettySize=auto;html=1;" parent="1" source="QEaJxpqpwJVfrGncPEcR-3" target="QEaJxpqpwJVfrGncPEcR-13" edge="1">
          <mxGeometry relative="1" as="geometry">
            <Array as="points">
              <mxPoint x="430" y="401.16999999999996" />
            </Array>
          </mxGeometry>
        </mxCell>
        <mxCell id="QEaJxpqpwJVfrGncPEcR-3" value="urls&lt;br&gt;(forwarder)" style="rounded=0;whiteSpace=wrap;html=1;" parent="1" vertex="1">
          <mxGeometry x="370" y="481.16999999999996" width="120" height="60" as="geometry" />
        </mxCell>
        <mxCell id="QEaJxpqpwJVfrGncPEcR-4" value="" style="endArrow=classic;html=1;rounded=0;" parent="1" source="QEaJxpqpwJVfrGncPEcR-2" target="QEaJxpqpwJVfrGncPEcR-3" edge="1">
          <mxGeometry width="50" height="50" relative="1" as="geometry">
            <mxPoint x="270" y="721.17" as="sourcePoint" />
            <mxPoint x="320" y="671.17" as="targetPoint" />
          </mxGeometry>
        </mxCell>
        <mxCell id="QEaJxpqpwJVfrGncPEcR-7" value="" style="endArrow=classic;html=1;rounded=0;" parent="1" source="QEaJxpqpwJVfrGncPEcR-3" target="QEaJxpqpwJVfrGncPEcR-1" edge="1">
          <mxGeometry width="50" height="50" relative="1" as="geometry">
            <mxPoint x="310" y="721.17" as="sourcePoint" />
            <mxPoint x="600" y="502.87731707317073" as="targetPoint" />
          </mxGeometry>
        </mxCell>
        <mxCell id="QEaJxpqpwJVfrGncPEcR-8" value="events" style="rounded=0;whiteSpace=wrap;html=1;fillColor=#d5e8d4;strokeColor=#82b366;" parent="1" vertex="1">
          <mxGeometry x="490" y="471.16999999999996" width="70" height="40" as="geometry" />
        </mxCell>
        <mxCell id="QEaJxpqpwJVfrGncPEcR-9" value="home" style="rounded=0;whiteSpace=wrap;html=1;fillColor=#d5e8d4;strokeColor=#82b366;" parent="1" vertex="1">
          <mxGeometry x="670" y="601.17" width="120" height="60" as="geometry" />
        </mxCell>
        <mxCell id="QEaJxpqpwJVfrGncPEcR-12" value="&amp;lt;&amp;lt;empty&amp;gt;&amp;gt;" style="rounded=0;whiteSpace=wrap;html=1;fillColor=#d5e8d4;strokeColor=#82b366;" parent="1" vertex="1">
          <mxGeometry x="430" y="541.17" width="70" height="40" as="geometry" />
        </mxCell>
        <mxCell id="QEaJxpqpwJVfrGncPEcR-13" value="log" style="rounded=0;whiteSpace=wrap;html=1;fillColor=#dae8fc;strokeColor=#6c8ebf;" parent="1" vertex="1">
          <mxGeometry x="670" y="371.16999999999996" width="120" height="60" as="geometry" />
        </mxCell>
        <mxCell id="QEaJxpqpwJVfrGncPEcR-15" value="log" style="rounded=0;whiteSpace=wrap;html=1;fillColor=#d5e8d4;strokeColor=#82b366;" parent="1" vertex="1">
          <mxGeometry x="430" y="401.16999999999996" width="70" height="40" as="geometry" />
        </mxCell>
        <mxCell id="QEaJxpqpwJVfrGncPEcR-16" value="/home/tsrqcmjv/py/slack/project" style="rounded=0;whiteSpace=wrap;html=1;" parent="1" vertex="1">
          <mxGeometry x="100" y="331.16999999999996" width="200" height="60" as="geometry" />
        </mxCell>
        <mxCell id="QEaJxpqpwJVfrGncPEcR-17" value="" style="endArrow=classic;html=1;rounded=0;" parent="1" source="QEaJxpqpwJVfrGncPEcR-16" target="QEaJxpqpwJVfrGncPEcR-2" edge="1">
          <mxGeometry width="50" height="50" relative="1" as="geometry">
            <mxPoint x="270" y="521.17" as="sourcePoint" />
            <mxPoint x="380" y="521.17" as="targetPoint" />
          </mxGeometry>
        </mxCell>
        <mxCell id="QEaJxpqpwJVfrGncPEcR-18" value="" style="shape=image;verticalLabelPosition=bottom;labelBackgroundColor=default;verticalAlign=top;aspect=fixed;imageAspect=0;image=data:image/png,iVBORw0KGgoAAAANSUhEUgAABLAAAALaCAYAAAAhnqrJAAAAAXNSR0IArs4c6QAAIABJREFUeF7snQWYVkUbhl+kG0GkVLq7ESlBOpVGFOzujt/u7lYQJaQF6RRQOgRRQCklpLvD/7pnneV8H5uwC8vuM9f1X7/sd86cmXvmzJl55n3fSVW4ZJl/TUkEREAEREAEREAEREAEREAEREAEREAEREAEkiiBVBKwkmjLqFgiIAIiIAIiIAIiIAIiIAIiIAIiIAIiIAKOgAQsdQQREAEREAEREAEREAEREAEREAEREAEREIEkTUACVpJuHhVOBERABERABERABERABERABERABERABERAApb6gAiIgAiIQIwEjh8/bseOHrWDBw7akSNH7Pix42b/Knyiuo0IiIAIiIAIiIAIiIAIiMCZIyAB68yx1pNEQARE4JwjcGD/ATu4/4ATsJREQAREQAREQAREQAREQARE4GwRkIB1tsjruSIgAiKQhAlgdbV39147fPBgEi6liiYCIiACIiACIiACIiACIpBSCEjASiktrXqKgAiIQBwJHD/+r+3eucuOHj4cxzt0mQiIgAiIgAiIgAiIgAiIgAgkLgEJWInLV7mLgAiIwDlHYM/uPXZo/4FzrtwqsAiIgAiIgAiIgAiIgAiIQPIlIAEr+bataiYCIiAC8SZw+PAR27Njp/2rIO3xZqcbREAEREAEREAEREAEREAEEo+ABKzEY6ucRUAEROCcI7Br+047ItfBc67dVGAREAEREAEREAEREAERSO4EJGAl9xZW/URABEQgjgQ4aXDH1u1xvFqXiYAIiIAIiIAIiIAIiIAIiMCZIyAB68yx1pNEQAREIEkT2L9vv+3fszdJl1GFEwEREAEREAEREAEREAERSJkEJGClzHZXrUVABETgJAJ7du22QwcOiowIiIAIiIAIiIAIiIAIiIAIJDkCErCSXJOoQCIgAiJwdgjs3rHTDh86fHYerqeKgAiIgAiIgAiIgAiIgAiIQAwEJGCdw90jQ8aMljFzZiteorTlyJnTDh8+bPv37rXt27ba2lV/2pEjR87h2qnoIpC8CeTJl98KFythOc7PEWtFt23daiuXL3PvdmImCViJSVd5i4AIiIAIiIAIiIAIiIAInA6BMyZgpTrvPKtUrYblzHmBTRr7w+mUOcHvzZ7jfLNUqWz3zh3nxNHx5513nhUqXtxaX9XZzs+Z05XZHXnP/1KlMn4nDen3rf2+ZJEdPXo0wZkpQxEQgVMnkPOC3HbDHfdYxkyZ4jTmpEqVyvbs2mXvvfaiEWg9sZIErMQiq3xFQAREQAREQAREQAREQAROl8AZEbDSZ8xgzVpfaZWr17S1q1Zar4/fP91yJ+j9ZStWtgwZMtqO7dvsr9Urk7Tgg6XV5Y2bW4Wq1ezQoUP225JFtnHdOju4/4AdOLDfMmbMZBcVLGhVal5qadOmtY3r19nw7/rZpo0bEpSZMhMBETh1Al173mTn58ppP04YZ3t27441I977Fu3a2/LfltqwAd/Gev2pXpCQAlauXLnswIEDtn///lMtju4TgbNCIFUqswIFCti6detP+fl58lxomzZtPuX7daMIiIAIpDQCbMAfP348pVX7tOvLeu/YsWNnhB1txDfy2DG102k33ClmwKZ2unRp7VAKDvmR6AIWkFte1dGq1aptu3bssI/fes0OHjxwik2WeLeVq1jZ0v8nYq3+c0WcrCISrzRR55wjVy67++EnDKZrVq60EYP7245t26ItRsfuPa1sxUq2ZdMm6/PZR7Zn964zXWQ9TwREIAoCz7z+jv22ZLEN7PNVnPjwzve49U4rVKSoPfPQvXG651QuSggBK3Xq1HbrHXdakaJFXRFWrVplA/v1tS1btpxKkRLknlV/LrOsWbNY7jwXnXZ+tMUFF+SyNGnSuO/EP/9sOilPrsmQIYM1aXyFtW/fzsaNm2CDhwxzbt7OWvYUEhPUUqVK2p133Grr12+09z/4yHbv3u0mrcGUOXNmy5Yta5RPYGGwbdv2kzZpKG+2bNksU6aMtmPHTjt4MOZA/oiTTJ7+PX7cNm/ZGuukOWfOnJY+fTpXps2bt5xU5lPAkWC30F+3bFpn//zzj5UpV9nle+89d9lzzz7lGD/x5NPxflaTJlfYwAF9bcqUH+2qDp1dm3/5+Sd25ZVtrVv3HjZ27Ph456kb4kaAxVXWrFmtWLGi7v3466+/7fDhQ85APTylMrMsWbNa4cKFLEP69LZh40Zbv35DtO8o7wn9JfcFF1jmLJlt/fr1bgER3YKb69OkSW158uR1/R9BlNAO0V3PtTffdKPri0OHfR+3Cifjq1xbZslixYoXs3379tnq1WuiHUNZUKdKdZ6df/75lvP8823jP/+4zZOYxBDyz5Ejh12QK5dt/Gej7dsX/fVcmylTJitatIgdO3rMVq5caQcP0a+iHs/99QUK5Ldt27a5cZWyxGX8T58hvdE3yZqN6qgS4+8ll1xijMW7du601WvX2qGDUV/L/ZSHb0O+vHlt69attnPXrhjZpE+f3goVKmi5cua0fzZtsjVr1sbYz/ne8c7R51euXOXYR1fXqlUqW82aNWzixEm24o8/3T3VqlaxihUrWMaMGW32nLk2Z87cZNyz41a12pfWsgoVytvESZPtzz9XhtzEeHLD9dfZsmXL7delS61D+6ts3bp1Nmr02ET9vmbLmtWuueZq27iRMWp43CqSgFcVKVzImjVraj/PnGW//rrUbr7pBlu3foONGDEyAZ+S9LNq0KC+lS9X1kaNHmOrVq0+IwUuVbKENWx4uU2fMcOWLFl6Rp4ZfEj37t0sXdq09lWvr92fE1XAwvKqaat2VqVGLSdeDfymt63/e+0Zr3RcHogrT5HiJZ0lFnFm/l6zKslZYrXr3M25Yf44cbxNHT8m1g9h2nTprGqNS61uo8a2a+cO6/vlp7Zv79644NA1IiACiUgguQpYTPCvu/EmtyiYO3u2EaevXIUKTkT/6ovPE3ViFVNzbdr4lzEhz5Ezz2m3asPLG1jfb3u7xQAJUSy4yMiYMYPdecdt9sjDD1q6dBGiDWn//gP2/gcf2osvvRrvMjRqdLl98dknlitXzpB7x0+YaDfceKvt2nVic+LbPr2sTZtWUT6DBVS9BlfY4sVLIn/PkiWLPfLIA3bDdT2N//7fU8/Yu+99GG0ZWzRvZv379XGLjr1791mTZi3dRDK6dGmtmvbDyGHOIpjUvGVb++mnn+PNILFuQJDYse0f27FjhxUsXMI95t133rTrel5rQ4YOt5tuvi3ecwEvgC36ZbG1bNXO9uzZ4/pMq5YtrOvV19ro0WMTqzrR5lsgf37r1KmDq+eAgYPsYDI8bfSiiwrY5Q3qu/HHJ/o8C7xZs+aEvKcI0HUuq+1EYd83uQfxaNz4CbZ7954Qlohi9GUEDO71afv2HTZz1qyTFhFcX7fOZU4c82EdWNAjIP84bbpt2HCyVfxFF11kV7Zr496nKVN/PON9JCk9MH++fMa4F2xL+P3++zL76eeZISI7YzuCSOlSJUPGXN67+QsW2m+//R7y7aG9q1atYuXLlbMMGdJHVhuRbP6CBW5xFhS+cue+wBo1vNwuuOACN+75tHLVKidSY2kcTOXKlrVq1aq6TROfEC6XLv3N5s6bH+MGAf2x8RWN3G18Vz7/4quT5voIS/Xq1rHs2bOfKPv+/TZ79hz3jGCir1LPypUrWebMmSJ/OnjwkOMyZ+7ckHi59NXy5ctZ9WpVnZjkEyyp69q//grJn82SxldcYfnz5wv5+9q1f7l+Hvw2+QtatGhmRYsUsX79v3PiHgvjRo0aunIgIC9bvtyJYGcj0WYlS5Sw7Tt2OME0LoJjYpWTNvYCFkJVMFWsUN7q1atro8eMdeNL0yaN3dg+cNCQRI1/fMklF1vbNq2dePv551+6IvFOFClSxHJkz2bLV6xw84LESg3q13P9c/CQobZ16za79ZabbNOmTa7eKSXBu3Wrllaw4CX2888z3Rh3JtIVjRpaiRIlbMzYse7dSIyUOXMWK126pG3evNltPgXTjTdc577VH3/yWUS/K1yyzKltB8eh5K07dLaqNS+13Tt32gdvvGyHo9lJiENWZ+wSb4m1c/t2W/Xn8rM6eAUr3aBxc2vQpKmtXbXKen38Xrx41G/S1LkdTps0wSaPHRWve3WxCIhAwhNIrgJWrdq1rUOnzjagX1+bN2eOA1e0aFG7/e57bOL4CfbH8t+jhMnkmElIYqWEFLAWzp/tFrE+5c57sR0KWCx16dzRPv3kQ2cp8NHHn1mfb761hx6837p17exueeDBR+3zLyImfnFJCGJrVq1wi4nJU6baAw8+YvXr17M3X3/FWYMsXvKr1al7eWRWkyeNtSqVK7sFcPjCigXR/556NtI1Dje5kd8PcTvnPvH7u+99EGXRWDCN+H6IVa5U0f3ORLVps5a2JAYBa9jQgW7x51OLlm1tRhIXsBAKb7n5Jvv0s8+d4BDfhLjZo0d3Gzbse7dTTTrbAhZizaCB/Wz1mjXWpm0HZ4WRnBLiQtcunVyVEAmWLl1qefLksfr16jrLmZkzZ9m8+Qsiq4zAgCCFBdWo0aNtz5691rxZU7vwwtxO7Pj0sy9CRI92bdvYxRdfZDt37rJZs+fYnj27rVy5sla6VCmX58gfRjkrFZ86d+pgF154oe3cudP1d6xjatasbohUxCX1k/BgGyDC1KhezQkFiG4pNaXPkMFuvL6nW5gjyGCRQ1s2aFDPMmfKZPPmzbeZs2Y7PFzTskVzZy3EmDtt+gxDVCxcqJBVrVrZLa4nTZ7ihC+f6tS5zI1hWJr+/PMs27ptmxXIn89q177UXT9h4iRn2eITYjbiPqLK9Bk/OWvVFs2bOivbVatX26hRYyKvrVixotWre5n79/z5C+2PP/803Ilp20wZM8YoTpJfh/ZXOisyUlQCFhZX/lvCwvWXRb+48btu3Tqu7N+P+MH+CohMiFdwo0/zXiAsXZg7t7seiz+sN7Di8CnPhRda+/ZXsjy0n2fOtOXLVxiWQGXKlHaiHu+Fj6vLYvKmG6933yHyhQ1iIiIDoh9WQ2PGjjupG99wfU933Ucff+p+o3yUc+rUabbk11/Pare/+GIEmlaurceNH2/HjyfaEjnWesYkYHXr1sVZGjKO0C6MTVicMj4ldqI/0zf9s2h/xk7ELfoflqmJlXr2uMZtHn740SdOzEiJAhZsEaPz5cvn3t8z4XIL69atW7o+h+UdY2xiJCxWr7qynRuvsTwMpjMiYGF51aRVW2f9g2nrwD69kqzlVXgDEEOqSPESliFjpiRlidXjljstZ65c1vvTD21HPE8i63HL7e60M9KGv/+2vl/JEisxXjzlKQJxJZBcBayWrdtYg4YN7e3XX7cNG05MYt58N2bRfd7cOdb/28SL7RUUsJjkZ8mc2Y4dPx5lfK6MGTI4C4t9Ye4n3PfKyy/YbbfebOPGjbcaNWrY+efnsHABa8G8WW5B8fgTT7lJlt/BfebpJ+3+++5xk3yscuKannnmf3b/vXfbokWLrWnzlnbgP8uZSpUq2pRJ49yipXDRUm73lbRwwRxjEVKtRu0orTyCz1322y+WP39+t3BgQXHppTWdwBWdgPXkk4/ZQw/cZ7/++pvlzJnDsmfPEaOAdfvtt9jLLz7vFkFMcosXL2bxFbAQ7kqWKG7btm93wlv4jjiT2fMCVhHB+h05evQka4fs2bJZkSKFbdv2Hc7lAn7hFli0P4tJJunhp/liVecFPxZoLJrpM+elTu3cnEjOfShjRuP53jovXMBiEUA7/b5sebQ75pSNhQnWKLi3he9IBuvKtSwgWGjDO3h4S/r0Gax+vcusz9dfuYVm567dnSsnAmdcLAywgilU8BLbvmNnyOI4vA9Tb8qLmIRlBeUNn1zDD/cn3LVICNxm/4ZMxGFfokRx16ejavOo3h1cG8qWKe2sUObMnRd5CX2uWdMm9ve6dTZ8+Aj3d/pixw7tnSswFgzeBYNu1K5tW8OSa/Lkqbb0twhrFt4NFuqIAN9828/2BizZa9SobjVrVLc//vjTxo6LcA3FxbBLl062ceNGt6DzfQg+7dq1dWLJiBE/hFizeCsKhJgRI0eFLAJpW0S41KnPc0JbeJvxu48dxG8w5noEmpjcgbmH/kIfjuk6nsvOOD5tjIvhbsvB9qDt4AWjmK7jvU6Thn6w96Q+clntS61KlcqGBeP06TMis2fBhsCza/du69Mn4nuBpRsLHvoUIqJ36YZJlcqVnCj1559/2pj/3HZ5t69s19YJLLhpYnHnE1ZHtWrVdBaqCGGw9P3nr7//th9+GB1ZJyx1ul/dzY0fX3zZyzGEJ/2KvBHBeA994p1gcwMmn3z6eZRtiFtQubJlbPGSJVa0SFEnMIVbYCFEY021ZMmvzsLJ9wUsyhBkI4SXCZFM27VrYxdfdJFNnRohinqPRzYvWrZoZvsPHHBCux+7vHXU7Nlzbe68eZH5e5clrLYQBEmIWmxOIOKNHo1XSERtc+Y8367u1tV9X7/8qnfI68omyLXXXO0EQhaoMMOql36PFQ3Cune1DO/X9Jm0adOEWEdyjft7unRuI+nQoYMnuQtHxGxKFdl2XM8YQJ2D7xLXMYZiKUudJkyYFGVcKcqQKWOmyDlE+BgXXu706dJZhowZ3IZPdO8EYw8eQP7dYfyOTsDiHWM82rJlqw0cNNjxoj7UxZclvM7BRoi49nikOBfV+AEjxoSoXFiDz+JexA0swBj7fxg12lnRhbvLRoxhvPNpnDV6+HfVj8u+DjyDd5s+xLvl3vUsWaxnz2vdJgzvYriA5esR5BBeb/4d3gbUFUvM/fsO2KHDoW64lIPvU1TxviJ+Ozk/yoXAdOTwEfd+RTde+3Igyqc6L8Ki3SfHK2NG4wC84PfG/+7b9/jxYyf1d3dv5syO9YEAvyCL8P5BGQhsFp3rL23B2Hv06DHrP+A7N78I9gP+m7kYfw+fV0THybe5Z0iZ+PZi4cfYyTgTbMszImC16dglwm1w50778PWXXfyBcynR+GUrVHIxsXbu2G6r/iAm1tkLVleoaHHreesdLu7V159+EKcJp+dd7dI61uqqDiH4p0+eaJPGJK2TIM+l/qGyisDpEkiuAlaJkqXs5ttus4/ef99WrfzTYcK0/I577rWnHn8s2nge7HLyIU6sFBSw8uXLa0t+me8mRfkvKnzSI3/7dZGzwmh3ZccQSyF2iQf0/9a5Yde/vInNmDbJiO0ULmD9+cdvbqJV4OIiISICO/5Tp0xwggUWU3E9HRarmQb161v3a3u6WFrBtPKP3yx37tzWtHlrZ2FCWvb7YjdZr1uvkTPDjilt27LBXn75dXv73ffs/XffMmIMRCdgsTgaO2aka8PyFavZ2NEjnFVEdBZYxGeYPm2yq2eRYqVt1MhhLsZJXAUsFuC9vvzMuRExsWEiw8QIl0kWaCQW6hvWRR//AdGicpWa7lryeOzRh+y+e++OzG/RL79Yy1ZX2uZ//g5xIUSkfP65p50A+fQzz0ciZLHWq9fnTgAlIdJ07Xat9e37tYsVc2Hei93EnYXHkMED3KKxY+er3bVewOrR8wZ78onHrFAhXMtSOQug1998y956692QpipTurQNHtTfWW94cQLR6cr2nUKsQ7gJl4qR3w91Lku0PWX4/Ite9uRTz7hTS3/8caKVL1s2Mm4bbUJMutZt2zvhJab08kvP2/XX9XCLBdqACe79Dz5qgwYNDrkNIWTypHFWtEhhVwauxc2gbv2GkaIrN8yYPtlKlSxpFStVszFjRlqB/AVcPliNXNGkuSFefPLxB05AJI/NW7ZY9Rp1bO/eEy59LDiIhYGQQeJ5V1zRyAlDvCPEP/IJC8Ybb7jeLVZ97Awm69df39P1J8SHYCpbtoxzQ1y2jAn0ZFeGLFky23U9e7g+8m3f/iHXI4ayAMf6isUbCQGD9l29erVzcwmmOnVqW+VKldziPWgVxMIVIYbYWn379o+0nmRRgEswO98kyoOLIXFIvGCAO9Fll9V2cYNYtCD++DbgGVN/nBYyb+S3WjVrGCK4e7ewptyzx77/fmQkU1/m4sWLW6OGDdxihYSAPm78RFu/fl1IvRA5sVzJnCWLi99EH1y06BebNXt2yAILqzSEE8J2cB2LuOnTf4oUC8kUFzqEhOHfj3TvWDDxblJH3k2egSDS/qp2bpwZPHioWzD6hEhz1ZVtXd9CSCRRDyznuBcRKJhKlizhng0zrF1hjajFuEW/YjwJJm9lN+C7gU5MoFwIWNmzZ7MhQ4e5vwUT1iK8R77swd9wqUM8YvGPqIqVFfkFBSzajfwZExB7glbLLDCxykHE6T9gYOS3tlNHrs9j/foNcJsAPnnhj8X5sOHfO1GI58EXluEiG5wR4Biv+vf/zi30EQjpa7h0Bvsyz7jl5hvd+IyVVVAwqFmjhtWoUc2GDR/hOGEheWIxHhEjbNq0GU5sQ6jjuzNr1my36XBhnjx25PBhx4REPKZWrVpEWqxx75o1a2zsuBMCHte1v+pKx+zLL3tZ27Zt3PtJolzfjxgZaSXb49pr3Lvuvzf0Ecbc4d+PiPxeM9Yiiqb5733A6gnBOegqSZ0YRxDM6Tu4Efv3EcvocFZw9xZMlIvn8k7kzJXTKpQv58aKoEXgJViJtW3tXEDppwjxjB1//73Oiejc36ljB7fB1rffgBABhHa8ulsX++PPlTZhwkTHAeu3unUvc/OdbFmzWYUK5SK/I78sXuysFH1i7MUiccOGjY4LLq+EVQi2IfM5vn2/L4uweuQexgasB0m009y5823e/PmR4xJx6GibLVs22/oN/1j1alXcu0qZfvllsbsPFlif+82FcAEL69Y2rVs6DojZwcQ4ek33bm7e9/XX39qx48ec4NK8eVO3kRRRLrPlK5bb1CnT3O9YYhNbDEszrI7CRTfiFSIyf/b5l5GCDv27UqUKka7GjP9YOAZFKOYHjEFjxowzNkBoP+LMDRkyzJWDOR39GgHL91PaecWKPyKrhHs6fRELx6A7H/PbFi2au5iOvi/hkssmZVBI69K5kxOavxs42Fmwendn+jNjJf8fTJSJ9x9hidAVjB8I+HwH+FZecUXDiD6Oocz69S4PnsffOnfu6L5f3w0cFGLRTr+/9prubmOGftqsWRMXoy/4/hE7EMGM5AUs3EdbtmyR8C6ErTp0smo1a59zllchLeVeuIAl1tYttnrliY4Tfm1i/7t2vcutSeu2Nm7kcJs5bWq8Hndll+5WsWq1kHsWzp1t3w8MnYTFK1NdLAIicFoEkquAhehww823uInm4oULLUOmTFaxUiWbNXOmDR008IyYOkfVMOEuhFMmjzcCyd7/4CP2xX+TYe4jkCyLcISfkqUrhEy8hw8dZA0bNrCnnnnO3n33A1u9clmUAlZ0HQPh5Nln/ucm563a4KJxegnLgFk/T3OTvIsuKeomSEwqFi2Y7SYJr73xlhUvVsztbLOgZwI8aNCQkDoxkWKCyIT3ow/ejVbAYnLz3YC+btH76GNP2qDBQ23yxLHRClhMWnr3+sLF83nzrXfsuedfsmlTJ8ZLwBo65Dsj5gLuPQvmL3R1q1atihNQ2rTrYAsXLnJ179e3jxOCTqRUxoI+b948bmHVvEUb9xOCxeuvvuTuYeIPrwoVKrgdfxbLwRhYxDB76cXn7L33P7Qn//eMux9h5Zs+vdxkc83atW7SSKwbysVEDaGEGGuwrF+/ro0YPsRNtBGcSAhYxK3YtWu3KwPWDUxQsZxgwdij542R7jYXFShgA7/r6ya5LBRYzPHfWGIhCnTs1M02/SdOMunr+01vl8fESVOcYHX55fWdmxMT64cefswQoZgos+BEgODZWKo888zzIWJPsEciID35xKN29113ODFl6W+/ux10xCfq+8qrr9urr73pbsHyafCgAYb5P1ZHWKYVK1bMmExTznbtOkYKFHPn/ORizGBZhSXDL4uXuDgvefPkcQc+IHDQfxHWmKCz8MRqsXOX7q7NYHbttde4e0f+MNotWGNKLB6xqMAajMUqyVuOsCDwYqjPg1hhWK1QbixT/OK7+9Vd3UKZBSL1ixC2sjj3J9zVsNjxC63oykPdWrdq4SboCGFBF19v0bN9+3a3qCAhpLdp3cpZZSCG0Pex5OHav//+2y3UsZJAiGJBg0jHYpH3nYUaCzPGZPoMQY99XRAF6He4NxIA2QnuBQrYkSOHnbBAGUhFChd2sYlYYNAPec8QQ3i/WZSxUCTxTMQc72aHyE1fQNTi2bQf6fwcOZx7GvXBte74seOWL38+y5E9u7OaQ4CLySLQu4lSbizhSIgkvFewQsTHpZp3kGcgRGIticsnbocxJRZTTZs2dnVGZIgprh/5wJU+wSI66FaHeEF/xvUR5rSPF80Yb+n3CEbBRFlxUUVwQARl0RuVgEW/IWg1z+TdDlrH0Ca45vHe9v76m8gF86WX1nLfNawJZ8z4OdJSDOEJd1Xa9YfRo+3okaPOUou+z98Q4IKJNkYMzJQpsyt/TC7IjD09ru0eIhqTF1ZG3a++2o0jlBEhiXfxogIXOYuVtQSiP3TYjc+IhZSRcRfLFIQCxgXeAd5BNgwQH+hjiNyMDWwo0cewlkOcwdKHhJjjT4Wlv2zestmwxM2bN6+7DwGScZG2Q2Sh7/J3rF537dzlXC/pU7iH1rnsUvfeImxh9UcePId28wfVIOggYCG+0k/Wb9hgadOkce8Y/Zvye3dj2pLvHP2UZzL3gDH9mTLBKlzA8lyIJblgYcSGG0IL9R5DEPfjx61L586WK9f59nWfb0PEkxw5zrdruncNsRilv1J3voG8w5QBSxuY0Z94d3g/GT/cHO/6nk5oRdTBghthiRhovq6MQ1hpE+ePdqJP0ced1e/Bg5Y3z4VuzOC9nD9/gWPCu03/IvEu8o7v3rPH9QVvIct7jkjFcxFvwwUs3jMEEZiMCOREAAAgAElEQVSxWREcX/0YOW/eAhez0I8blJuxledRX/ouIRF+/HGaG+cQbehXxGvz4yJlpL0QHRGHsNQjMa7SNjyX7ytiKMIP4uaIkYhCEZswiHAw45mUA2GZMtCezOuwZqNPrf1rrRs7eC/hFXSF9uNMMIg7cx6sjWlDvgGU48LcF7rvBRyx2PQbp1hIImDxTrF5jFBEPZnf8N+DBg8OOeGwerVqVqtWDdfPmfsQ+w7WPCOivXbZ3n17XXsjkuJGitUrvzPuIeTOmPGTLVz0S+SwQr1atWppGzZucG7YsLuoQH73nrBhtWHDP7Zn714X54uEgEU/IuQIMfwSNAZWoSLFrOdtd7qA7R++8co5Z3kV/nHjY1GmfEVnifX32tW2+Z+NMX4AE+vHhs1aWr1GjW34d/1t0bwIv/+4posLFbYb7rgn5PJTySeuz9N1IiACsRNIrgKWn3w0bd7cGl4REVR0wfwFNm70D2ctgDtlChewWITPmT3DTTBxv/Np0sSxbsf9rrvuta+/6Rv5d8QnXACZdFapVsvVZc2q5XEWsNjZ92JT7ToNYl0cxdaDmPT8uni+mzy//8HH9sSTT7lb2KWeOnl8hLuP/RsSnJoyf/31N3bfAw9HuUiMScDi9LzeX33uJpK1atdzE9WYBCwmOmNHj7QjR45awcLF3aJj+o+T4ixgMTmcP3emu69Cpeq2c+cOd8LY+++97eIcvfzKa/byK6+7OgcDavNv3BhgkC5deuva7RpnfcIi6afpU9xk8L77H3LiAZNm3M4GDohwRYpJwOIZvyyc6/JmZ/HmW253E0F2aEf/8H2kS2FcBCyEBfoQsbGYIL/91utuZ5gJ9733PejKsmjhHLeQhvdldRvYocOHLX3adDZv3kxDYPnrr3VWrkLEiYmIU3fcfqu98+77TiikXvny5rFFC+c6t8bcF0ZYOGH5M6DfN64PX9m+s1uAxmQFiMA7ccIYt0i+psf1Nm3adFfeGtWr28gRQx2vuvUb2aZ/Njmxkh1j3DpuvOlWl2+atGnti88+dn9HaLq2R4QLnhewWNiXq1DF5VOpYkVDsGTiy0T78kZNXR7Vq1e17/p/6+qPEImoxaIF6w7KgsC0LoZ4K1yLeMWCFDHxt98jYvAR0wcBB/EWITSYWBAjHrB4YmHLwp5EWyMysKCjDQ8fPmIZcYkhDt3iJU6kiUp8oe9hXcDiiEUaCdEs/OQo4uphyeXLRF9FvMKlgkUecaDIn3kpf6dOkyZNcXXyizPy/uGHUfbX3+siF4Xt2rZ2iyTq4q3BiO+GAIgIglWBs8iqVcOqVqniFm6IQFmysEC52olXuCl5ayIsLrBEDFqj+QUwi9y5cylnhGsfAg+LcsQmyo51E/ePGo3VQESQbtwtsSZhxx+Lq+hO3aMtWQgjdLJgZOHoE+NRy5bNXWwn6kMeES6KaZxghJVCVPnClvcsa7asbpHIM35d+puzHolJSINX2zbERCvgYnEFxTHaBwudShUruD7MGEafoQ1ggYjKAjGYsDTCNZC2pJ+ySItKwEp9XmrDLRsxBSuu8MTYSB/zFmH8znNx/ytRvFikew/583cW1giW3jqkdOlSTkyhHPStYEKsad2qlROdsG5BwIgqwYYFOha44S6gLOiv6X6164eIYPDheixAEJr79vvOduzYHsneCzUsWJ1VyK7d9q/968Zx3IwQyHEZJhYY7UWdsO5DVAm6EnsBi3wGfDfI9QX/HtEHeHcRWikL1k3E+kFMx9LQu8KxyUE5uZcNHEQarsdaqc5llzlB+YdRY1ydvIDFf/Ot8e6ZuKcyrgbj+2B5hxDHQh8LQhbs5Fu+fFmrW6eOq1dQwEIEbNSwodFWtB1u8AklYFFX3pW1a9Y6SxoEDca8iM2CUe5dChew/DeYjRTYefdnb31DexQuXDhkDCM/rHd4RxF22FzwAhZ986efsbpa4uru/8ffcWFLnTqN6zu0ZVQxsCpVqmR169S2n2fOtvnzT4jWiB+8h1gW0i6tWtLnCrvvIRaP1B3h69prrnFjHgIu3+hChQpb61bN3bgwZcoJAxIEe8Qp+hPf0mJFizoLIr4N3/bt5wQWBH/GSgKfI2hjRUXyAhbvnbd+9Lw4wRivBQRYf/IkYhGC5LFjRyMthsMFLC+ow4nvC67E5ImVGVaYsB4/foI79ZPkBSxCCiCoMm7yTiCE0p/o+ytWnHCB7tq1sxOnsKiElRew6KsLFix0YiTPo20RGnH39mMj1shs3FAm+pcfWxHWEdi5d+7cea7f813Dxdu7GFNWfz1tSD1WrlxtEyZOTFgBq1Hzlla3YeNTshSKciRMAn/MmesCw4Vv+9YttmZVzKb2iVXc0xGwKNOl9S53LpFHjx6xBXNm2eIFJ+JDJFaZla8IiED0BJKzgJUU2z1cwCImxcyZ040jmRs0bOImr+xe/bp4ge3dt8/KlK0UGR+LieL4saPc4ht3ueX/mXHHVcDipJghgwY4kYMF48OPPB6JCMGJyXZ42rN7t7NMiS7hYsUCh3JzCiCTJVL16tVsxPDB7iOPmDB6zDg3ea5du5ZbjDLBv/ue+525dniKTsCi3DOmRbhSNWve2pULS5ToBCxEntkzp7uJZpt27d1CghQfASu6euMm0bvX524nr0UUccRow0ED+7vFE5ZTH3z4scuKHWOEIszoKVMwffrxB8bkLCYBy5nqjxrh+gQucZs2nXDNxNVv1sxpLsu4CFhYLb340iuRRcD0fujg75w702V1L3cueMQxQ+ApXrJciGsKLjcrlv3q2rdqtVrODeS1V19ygWyZGD777Iv2+7LfT4qJwcNOBHFfa23ato81iPuXX3xqHTtc5UQF3B79JJIJMn2JSS79iF3kRQvmuF1fXBK9KyvPxGIPt1N2nkuUKufq5AUsxDrv0sfEmcMRsBZs3KRFZAwr55Y4caz7e5OmLd2CmMQueYRV0pZo3xHECyb5CEicnDZ27PjIWCp+gcnCJfy0Myy8iLNCW1M/7zaC9VSVKpWcVSOJSTzlZsG5cMFCt2sfVTBdbzXAoogJOmVZuGDRSe5oBAVn4YLFBIszLPp69rjWjv/7rxOegzGqYM9ikV12hAQvYCGKjR07zllg+EQbMC78+ON0F1uJhADI4o8+g3sdQnN4YqGNEMPiBEvGYMIqgQUnlkfw8c9fuWq12y2nT0SVmjRp7OLZMYYgHFLPuCTnEl3nMmfZRH0pd5AHC22sLmlr737CPZQN4Q/BIKoYXyygqlev7haa3McYQB/DTSaqGD2+rPDEegnrUNwug3nDFUGK8rBg9v2Ee7HqwmIm6G6GlVzHju3dqXcDBw52i2vui0rAos9jgUUctN5f9zkJHa5DjB+4rnl3RxblZUqXcWIw74RfKPM9w6py0SLKE+EuhJUE1hLBIPn+IYhGCDgsMLH6iCoeH8zJA6sp3h8E5p2BE3J5j8mDxal30SR/LyZ823eAE7B88gIWAjHWIz5hJYV1L8L20KHDIwUifmdTh3ELy5J+/SO+c17ACg9wjxgKexb1xLUk8V7hshsexN3Hugtnw1hM/lixEFON760fX7DAQ3z2yVumIYzgBkXCShDrWsYnrBJ9QgggHh/Cd6iAhVVQJyeo4yZOzK+EErDoMyNHRsx1SE6MrFfXWcJ6sTwqASu6IO68U8Tq8laKwXeKkAocpuBFDi9gwY/Tf8PfV35HTKN/DP+eDdGjUQpYbEAg2JAPLmtYkiF0IszQpoz5tBliCKIh36DguO2v9ZajMCBwPPf4WHdstODKu2fvHveuIWoiuiCG8r1EzPSJd453lvIwtpO8gBVukeTiIDZt4ualWCpRBt6jqFK4gMVcEoswNnSCsfq4t2DBgs61MtjvvIAV7opcpnQpZ3XrLdW438dc43uDyEryAhZ1x2U56CLpN2O8uyHtD0M2Nr7u803k2EqbwPubb/tGHggQWxB32qHPN33dGJqgFljVatW2Vu07uSPTP3rzlRh3MKJskST4x9LlKzpzzlV/roh38PSEqk7VmrWtdYdOp2SBRRl4KVhMsHPhdlx94ISEKqDyEQERiBcBCVhmtevUs2rVq9kFuXPbzJ9/sonjxiXa8c/hAhaTkhdfeNZwFfvfU8/Yu+996HaGP3j/bee+c9vtd0VO4t5841U3CSMY7QMPPOwWlKS4CFhMQufPneUW4CwEW7a+MmSy/eH777gJdHhiolGxcvUo+9QnH7/vJrDUoU69hiFxXFjAffjBu84i5LHH/xc5+WHn/pFHHrBHH3nIuYeUKlPhpLyjErCYmH7+2cdu5/O551+0N958x90XnYBFmXCTvPeeu9xk7/4HHo58TnwFLMQLFtrEt8l1QS43WU2fLr0zh589Z441btIypA78/vlnH7lYIO++/4E99dRzkXMQ3AFpa+JZvf1O6IECTNhmzZweo4DFxPnLLz5xk+1Ona8+aVK5Yd0a5y4QFwGrW/ceboLpE5YR8+bOdPGSKlau4XYvcTdcuXKlVa5aK6SOfMsRgBBRiL3FQpLFFtZxtBWTXdwRxo+faM8+92LIQjm+AtaC+bOtWNEidvMtdziLjugS4gGx2FgMYM0YtHTB7WfzP+tc2fLmL+iu8QIWLrq4G/rE4QeFixS26tVr258rV7o/059+nDrRSpcqaY0RsALuBzENuAT1Z5HAwhC3FXbTg9Zml112qTup01teBPPyFlgR1hoDnbjDe8z4wG728uV/2KzZs9zCCIsf3M7oe5w4h2tKeCJWF5ZwtF2pkiVcrCrKwsLHx+qinsQeIn5T794RwgQL1G5duziRjl3+mJIXkMItXrgHixnGCyxKRo0e67LxFmgs3LAYwMWJ8ckHQOcaLAFw9aQ9wy31WNDQpix2cadlUYv1D/+PZZpzOV261IgxFwx+zMLPCzM8FyGG67BuiD649QnxinwRJfxBFpQToY93BtdGLBYQzOGIyIErLe6JiGXhIhz3srj0Fpy4713RqJGLy7Rg4cKQuD9B9rj+cIIfCbcif3gG/0YIa9qkidusYMGKiycLbkKSXN6gntuswOqXBR9CUuo0qa2FO73tEmc14S0uohOwYH77bbc4Vv4Ev2DZaGfam4U7/Z6EQFK2bFnbvmO7TZ0y1R3EQD9GnORgBtzkGI9oZ8R4Yg4ibE3+L1C7zz8uFli8b5xASNvSTsGg1OTDO8e7F275GJuAhesUlpk+Yd2Buxl1RAgKWsvxLjHWB63UvIAVHnvML8yxQsESiBSdgOWtB6lbuLjJopp+PnDQIHc6mxewELSCJ/L59sMCzcf1YTOA94LTBIPvGfXAegeLxaCARX/lu8g4P2BAxLicUAJWVGJ1ieLF3RiHezRu0vERsLDCRLggeSs034bUA0HWx/HiffVtipta+JiDmzZWlrjTsxFFisoCi3yx9kHwQkxi/ET8Rlj1VriIgvQJ+k24QAR36sj4j5srifsZY/2GBweMNGl8hbOqwt2YZ/LuMYYwRoVvZPC+kRD86T9ewKLv+lOKPRd/aARl41qsNakz7u7BMTJcwPLxwdgIw+o8mPj2YKUdHDe8gBX+Tvj4aljATZseIRozD2jevJnNmTPPzb1IXsCCkxfm/DOJTdejxzUh3y5/QAbWXlhS8+4hIrIhEXSpjk3Aos9469MEFbCIet+2U1crWaacbdu61Qb0+ty2bE68o9FDWiiB/wGkIsVLWqbMWWz3rp32x7KI02jORipWsrR1v/EWF/+KOFhKIiAC5zaBlC5gNWzc2Jq3aGmrV62ygwcOWJFixWz9uvX29VdfRLvjdDotHi5gkRdm+7gn4Xvf9eprzQtVuJj5k5OwvvKuZ8R+CgaH/ujD91ww75tuvt25v4QfF04sAWIm1b70UjcR6H5Nz8idbl8XFq1M+MMTMT3uuvu+kD8zsXrowftdXCJiz/S87kYXmyOuiYXZX2v+dJOr83PlPem2qASssmXK2MQJEWLLq6+/GRm3I0vmLPbM009YtmzZ7aWXX7WVq1bZ6NFjnRUOAfJ51utvvh3iKvnCc0+7hRqxkwj6yYIhOhe2gpdcYr17f+HcLZggMcmDMYGf3UlzUQhYt956s730wrNO0OOUveBi/PXXXnaTftowfOHHxJl4ZjFZYOEa8M3XvWzJkiUuuD/uZT7RLvQvJmSxCVi4s9HXYOUTi13EGy9gYT2A9ROL/3r1rwhpJyaixG9j95r2Z4FEwqWMyT3BkXGFwtKOifkLL71iH3wQYYUWXwFr6ZKFzmWS+nrXh6j6Gm4Fq1Yuc+1TqEjJkEk2bAiQT3nCBaziJcpGxvEi34QSsHgm/QaLCfdejhkXEryaZ3HS2+WXN4gMSBusl4+BxeKYWCtM+i+rXdtZX/nFU3DBjCjBApxTFZmIR7dj7p+BiEXAefIfNHiIW0SxAO3cqaMtW74iMrCyX2Sxm89CLKbkBSxim82aFbHA8MkvJoK77yz8cGtmsUL/532FG+8MritYzTA+4hbDYnv/gVArgFRGsN5/3aLWx/LBnYZ3k4UjsVWYQzPWENfFW85RJqxeSpcpZbkvyO1EOhZ/CAIsjrGUCnfdw+oKix4WwIzVwUDk5MeYQoBoThOEU1BcwOIFN0byxPo1plMRyQvmzrJizx7n+hV+PQtXRAUEtDFjx4ZYYnI/rqK4OSJ6Dv/++5DxHvGChfXFF18cGcCfWHcI0FjQ4rZ45OgR12zp0qZz7s1Y7XlrM6w+Q2JgffaFs0AKjkM3XI+bVPrIGFicfHfj9df959bUP6Rv0j5YjdAGBONmIekXrz6+UbAf+RhYLMaxrNqyNTRAfaGCBV2/RrQOxngK5tGkcSMrWbKkE52CC/fYBCxi+/3+n/sv+fGO4tbOZgzvaHjiuwpvb4HrBaz3P/go5FJY3XTjDe5k1tgELGILIS742EzBjHh36OsIK4w5XsAiKDcCoU9eSAgKWD6mGd+l8L4fIT6WCRGwihfDVa1pSJy2hBKwwi3GKDcW5HxfsJrjZM34CFhsbhAwnkR8rhBm/40h9DWs1E4IWJsjXTGD13NCcrWqVZ0rYzB+GNbHxMPCksgnfyIn4hLCDwI3/ZxrsNyh/1z138EPwfaJfJcslR09djRyown3VgQc+iBt7NuF8Zsxk+8b43eOHNndvw8fOfFekif9w7mCTpzsxjEvYPn7w/svYwQbW4ypiGKMkVg4Tf1xupsnkMIFLFyWEdaDMQeD+SJ8Uw4v/ngBK/ydcN/8tm2cC6cXsIjzWLZMWTcWsRFC8gIW48B3YRssjDs33XC9+458818oDr45HAZDPRD+GdP5bvH+8h77FJuART6IvY5r4ZJl/jv49KQx4JT+AOh2Xa62chUr2+Z//rFP33k91o/GKT0okW8qXa5CpHjFKYSYK56txKD31Ktv2bYtW+yD118+qycini0Geq4IJCcCKV3AevXNt2zO7Dk2cvhQN/ErWKiwXXfjjTagb1/7dUmEm1BCpqgELL5V6/+OiBOQr0AhW/rrQjexuaRQ8UjLFXatiDFECnezwSqDhAjDAiT/RYVCikxMHxY77DASdDwqdycm2f50r+DNlCl8l/faa7vbW2+86iZL7a7q6HYTw1PNmtWdO9nUqdOdqXYwZc2azdb/vdKVN+cF+U66NyoBi0kS8Y4oz1HcCv6bLRCHw1susMhj0l6+YlW7INcFLn6T5xI09mVhwwSK68mvWIkybrc6qvTWm6+53Tl2OGHHTiTfYEzO33v3rZMELNxS+nz9pVtYVqhY1bnjBBPC3/+efMx69epj99z3QMhvN9zQ095+8/UYBSzilEyZPM5Sp0ljNWpeFhL/BVGqX9+vXZ4JIWCx2zvqh+G2Y+dOK1ioeEhZmQtg7cRkP/w0R3/sOOIB8dqYhPJulSxd3i204ytgTRw/xgliLAIffyIixlpUidOFli9b4p5Vs1ZdZ5HjEwv0JYsjAiBz0EDQAiuxBCwC/deqWdO59nFSog/kHCw7QisnaSE2ebHa/44VIwtQ3B+wfKCvsghjMfbddwNtc9jJcgiXuKzw/7hX0Pew6sP6AMuicMsDrBe5HhZYeGGx5C1Tfpw2zRYvjjgZzy8UsYxBfIkpeQGLQN1TpoTGb/I7+vMXLDjJqoj+xIKAhRexj6ijd5Hyrk1YqUUX0Ny/y8GykR9jIwcc1KxZw727nBoXtEqIGD+4Lq0TBitWqODGkMFDhoUEXmbxzhhEG2C1FJVronftYhHMAjw8easkv1hE0CtXvpz9/dffJ7lxMj6x0CMFA7Pzb6x+iCfGuBcuTPhnEieJxTILshEjRoa4cnINAh/C1PIVK5yVpF90Ur9QsSyVE4L8OIqLHxZNlI++gzsr7ob+IAeuwzK1W9euLvYwC0T6TdGiRQ3XVIIu+xMyg3z4PtHfsdhA+PcWLXx7qH9QUCHoOaeJ8ZvP/0S9L3Gxpygf8aG2bt0SpaMHVoz0tfCTCeMrYCE0Ir6xQMaFkD7mE8Hgr78u9ITRhBCwvOiAIEuMuPCEoMuhBDCLj4BFf8FCu2+//iHfQ++Wx29BCyzGdUSGTz/73I0dpOgErAsuyBnpkuzL68UbrGAQGkk+ht0ff6y0sePGhVSNuHiEIJjx00+2cOEv8RKwfH+ib0c3hjEu8D/vQkgAeR9LLFgQ/x5//MmnzvqVFJUFFn/3LoKr16xxMf2u7tbNnfL3/fffu37JNxIBh/GEcSWqFHwnmXNhUbRn9x4nuGBVxvjtY2nS77EsZWxHnA0/edbn7zfsYhOwuJ48qR8WppxaixsngnWvXl+7dzBcwOKbw9iCO+zEiZNCxlvEJk7YDJ7EG1cBK8KiraUL7k7MNX94gxew+Ibi0hfcjCSUAxsBzAWw0vWJGI+4F+LlwKYD93Kw0OEjEf2YdFYFLNd5Mme2Kzt3sxKlyzrRpX/vL2zrOWKJFbS82rN7l63+8w93MsvZTk3bXGmX1q1vy39bakP69bHDhyJiniiJgAicewSSu4DVrEULa9y0WYwN8+z/now8qjd37gvtznvutT//WGHffN07wRs0KgGLh+Dq9tyzT9kLL77iLJv4QBPvxyfcLHCNiSp16dLJiKXlg7Ry2huJBdLrr7/i7iP+CsGrw83E41NBJjIEDP3s04/c7t4dd97jdkKjSpySSKBu4pO0vbJjpPsC37Wnn3rCuVb4WEvh90clYDHZgFF4Ij9EIxbtxNxhF5OYU8Rbee7Zp6MsGzEYmOBxHD2TSWKBMQnk1Kg6dS9z7jPs8jJxHDPqe+dqdefd91mf/+JGsPOPSIUrR9ACiwn+0CED3clGPa+7yR3xHJ5YqA0bylH3W5wbpz+SnBONJk8c4+KmxGSBxUKfUyjZicRKBHdKhAzcO5556snIY9kTQsCCLRZhiCyPPvaEffzJ55Fxa7AsQFD17nr8P0IMLigsRoJHra9ZtcJN1Js2a+VcH1mEDB7Y38WaaNaijYt95BOT00tr1XIxkrBGIBFk98MP3nEng7VodaULFkyCN/mwM4y4yOJ43JiRboLNe/TGm29H5ustBulzDa9o6hZc3oXwdAQsRDMWFSzgg4tsLGQQXoifwm6xd6MK7w9Myjt16uCO9mZH39eZdw0rGWKG+EU993rrC0QtdvWD4jK787iTIGKzuMF6h9OoqlWr6gLTzpk71zhWnkT+CDv0I0RFRBWSC9xbuHBIbCEWL+zqYx0VsfMdsfNOQqArU6aUO4p+ya+/RsagwrqAOD8+xhLvJ/WhfxM8nHEBoQNBFjc7FrGeH+w4/cqfzIhFDcGssWzCVdULge5wozKlnYUV7Yp4QFnSpk3nYsz4WChch9UjC3EfLL58uXJmqcyJg97VlDIiEHJ9MJYKMV0Q1VjcjB49Jtq2xKKtceMr3KIRS6LgyWMEiEd0IX3Vq7erQ+ZMmeyaa652fREBMWgxRwwbBALiIH77LYuyiIUyf0eopq6MLwSzjiqxcCO4ONexCA9uWlBPH2B81qzZznoWMQHu4QnXQtyE6S+804h78/6LpYSVBcJXuLsoIiYi9Srex3HjnSDm3VBZXFLXYPB4xlPiSOEyS/vyHpMYp+n/uPlhzRERM8ucyyFCa/jJnbgsEnuH/PgueTfI8Dp5lyGsh/1poP6a+ApYEWXnRMRMNn7ChEiLHPoQscmIUebj7/CM+AhYfBMQKvmmEd/MC4te2MYiktiSfgxgHOI7wOYOBwvQ9vERsHzcsT/++MMmTZ4amS8usby7cPMCFicZ3nLLTe799qdwUr+oBCwvTgZja8GHgP4IqVEJWMQqpG28UMyz6Q9YAuE+Rx+JygKLfOkDfBsQZn0sL/ov7zbffd5Nf2opZabv5+WU2k2b3PsUk4DFWEMYB+Y/PnYYeUQnYPkxmzGEAP/0CcRx77JOeX1cK76bwTiIiPiM6Tt37HSW5T7xbtFWzOkY33H55V3wyZ+0x5iI6O/7Tfr06QxLdt4jfwJfdAIW3yUssmlnysQY7euJJSnCHPGicL0OF7D4hnfs0MEOHjzgvgH+xMQ0adPY5fXruz4aFPnjKmAxD8Fa7d/j/zrXZC8WewGLenKoRtDtn9hmjFG4bjOO+ERsUurOd4gx9bfflzmBMfgNZ6OAkBXhVnXkwaZmolpg+YI6S6zO3axcpSrOEuvz995KEkJQlF+dwB9LlytvmTJndW6Dq/5YnmSsxzjRp+ctd9pFBQva0P59bfGCubFVxf2eJ39+q1bzMpsyfozt37c3TvfoIhEQgcQlEJ2AVahYMStWvLQt/XWRbQyYXDMR6HHrnVaoSFF75qF7E61wu3fstMOHTl+w5yOUN9/JVj6+4N179LQvP/vUflu61P2paPHiduPNN9uPU6fa2FEndmwSqqLRCVhM0FavXO7cLmBcrHgZF5g3Lmntmj+c+JI778V26ODByFsQcO668zb3UeZ0lWDAby7CsuaVV16LdkEW/mwCAo8aOcwJGixig8cQ+2uxIiEgKJPpRfhYLrUAACAASURBVAvmWoEC+ZyVEPGeECoISs0im9ShU7eQ03R8HjGdQhheJiaknPTHxJbA9gSwji39NGOqC64ebjmElRsiInlc1b6zm3g99uhD9tijDztRCbN/JnOcVFazRnVnAREUsGb+/KObIMKlT5++Id/sTZs3ORcyJj0jvh/izNaJQcOpeFs2b7H27a90Jze6dtmxwwoWLuH+G6GPuFnvvf+hE+ZIuCNNmTTOuZEwifMnnbEoxjoMJgkhYPEsRBgs+OhDBC/m9CCCu9avF+Fu2qJVG5s5M+JE4s8+/dDF32BBglCAG9pDD9znTh1kMX9xwYjTx1i0YE3HBJ14TX3797eBA4c4waHXV5+7hQqLZQLJk6jPsCEDrXLlim6BOGLED5YhY0bnLscuKXFy6tS93O30skjBpZbnEYOIeEO43WERyKQb0dUvuE5XwPJB5FmERAQhj3BNYeKPuEn/YPG6yx1ZHupgwITaT8BZ1GAhRJweTjTi/xvUr+uOaYcX75RfpCL6YD3CMxGjsXRC+OBa3BEpE1Y1TORpM+rMwQGw4T1EGCSv0qVKuXJSxpEjf7A1a/8yFjiIHvQvdqaDgc0RfBC7EOR+X7bMjSUsrnDtQxj65lsEyR0hpxCyy46FyL69e61MmTIuSC5CHgtT+izvAotBxjssq6gLLsEIxgiePkZJxGIX15Ey7t0gT2dpWa6ccytCCMVqhPoibuC2yQIYSw3EJIKYs+Dj9EIWPrRFm9atDSslhB36ya5de6xixfLOTQqrJcREOHkhiPGMwNIsXMPdq+irLOSxdEPMYEHFu714yVJXTk7iJCYTYkdwsQ43rJI4GQtrAlxlsOTJc2Fud4w7C3TqyqmbPJP72YygTfk2sIgPLwt/w3KEdqUslP/AwYP2y6JfnNs5IhFjH4t02oDYOkGrofCxMyIGVhdnhYX1WvB5jLkE0UdcW7hwoTsxELGRNqBtGdvWrIkQoyIEWQSpS1y/wiKQhWGO7Dmc1Q0iNO2I66u3FMyfP5/rjzyTgPyrVq92XGh3/kbQax9gGwGYMZTy0s5YXISzQdCiXag/4onvX8E6x1fAol4syBE4KQt9wb0bRQo5IZj3l/HKW6jFR8DCuhW+JAQpxhLeYfoi1m9sFvAs3ptDhw5bxQrlXGyzYP+Nj4DFdx0hkXxxs6MuuXLmcqcQMq4417NJk93f8+XNax06XHWSiBiVgAUH3MrpZ7gVb9u+w0oUL+pOL+TdjkrAos5Y++EqHSFMl3Zx/ugjCEewjkrAoj2w/sEKiHdk0cKIQyoYU3kH+Z7xbUCw2LBhg+XLm8+d3ghTPw7GJGB5K1JOJ1yw4MSpsTEJWN4dmJilztKqf8T31CesGImvGdHOKwwBMX++/G48oj8PGz7S1q074fbIOI27KWP6gYMH7LvvsO494VpNWbA6YgwlpiBjK5yrVK7k3vvgyZPRCVgRY1Mz976ycbRw0WI3XvAd5R3HutfXI1zA8q7znOpHuXg+gnXJUiWMkAyM4bhY+/c8rgIWmwBs9rDJE7TiDJ5CSBn5PvGdYXMEITPCGnNIyDyXe9gYgwu/B91Bfbv4/kVbsTnD+OFPPD1jAhaFibDEutpKlC6T5C2xGCiKlihlGTNltqRkeRUc5C8pXMQ6de9pWbJls5+mTrJZ06e5skaViEdWtmIVa9yilR3/97h9/u5btm1r9Cf2xLb40O8iIAIJRyBcwMqWI4dVq3WZ1WvU2D2EXY1JY0bZL/PnuIXIuSZgxUYKAeuiiy+22TN/douNuvUbuIX1m6++EhJ4OrZ84vp7dAIWXPt8/ZUzZ8Zaomnz1tHGZQp/1prVK5wFR+48F4UErvaWL9GVjdOR2rbrEHkiWGx1+Pab3k5ciCk9+9wL9uZb77pLmEz3+vJTtzhnouATQsUzz75oX3wZ6s7jfyf4+zXduznBBuEmpoS4gZjDJJBTEKNzMQrmMWP6FCPQaPMWbUICKj/y8AP2+GOPuAke1lEsdgiI3vurLwyLMu+qyGJ1/IRJ7oSpWbNnW5OmrdzicuP6iMVaVAnrkRKlyrufECGGDh7oJoM+seh8+9337eUXn49VwOIerCXuvP1WF8eGCRaLOw4A+HHKBGdif7KANcWubN/ZPa7vN72tVauTY2Bh5cYJfIiTlarUcNfSbnfdebvBhgWOT0w+n3/h5ZA4Xlj6UH5OGfPtzSSbSfkjjzweeXoXHHFBZQFEniw4m7ds4xYyX335mZvMsyi7tHb9yOex2Pni84+diOHzZnH4008z7eZbbw+xLEQ0u+uu291i3ScWPh9//Km9/OrrkX+bM3uGlSpZ0qK0wCpcyKrXuOykIO5Y2dDPFi1aHCEodO3srB8RJ2kDkndPiKnfIhx4gQgeVzS63AkZLD58QtQYPXqc7QqbW/FeIQoS88v3SfoAi4Xff1/uRNWgmxxWTywysILxbsL8zniHMMCJfb5fdu3S2S0scM0KFwDY7WcRyKKKxO8sRhAJfSyYyFMAV65ybcvizScWPZMmTQ6JCUf8K04nRDTziUUIFgVY652wjkpvDRo0cCfb+fbn+bxXPN9bljJ/xuKDhUuwrrgI/zxzZqSFG2WDOSyD1yEIcJ2PhYIlWFSWScG2xcLJx4OBcb26dV29g23JghuLJNy+gqeaMb6wiMTFlUW0T7Ql7wOuiN4lhgUo4l5MifeBwO8kno8bMMI4opdPCHNw+3HajJDA71HlG10Qd38tIijPCI4NCAS4ieLmFUwsCLEeoW1op2B5aD8sDYOnItLOVatWtkoVK0b2Oe7h+0HZfQwc/uZPqoyJDS6tCCJYESMOBQUwf98JAat/CBt/CiECDt+H8MTmDidJ+neD33m/Zsz4OcR6BmEBUTEuMbCoP0I4Qiv5Bg+B4N+UlXebuQOJfoJISWwkb7nk3W+ji4HF2Bs8GAOxCcs6Fvj+HcfilcDwiBlewPLWWv7kPs8jKgGL34ivWap0KWfRQ+Id4FvNNyNoSeddCBE4ORUTqzpfDuYrxHtjLCdFJWDxd6z26GeIoiQfMB1OHBqBGBZsJ/ocfRWRghSTgIUFLN9J3EWDcUi9gIVFN65owcSzEJP5Lofz4jpnDVuurNWoVs0yZc4UeSuxDH9ZvNgdahE+FmOFyQYCogoWWOHB2nkW4yDzIp/oHwjcWGV58ah+/bpWoXx5J/AEY3VyD5u/8KK/+jGX9QDCHxZ6/vsVLmD55zFWMc8KfqP4XkyZOs3l4ZN3i48+BlZE0P7y5cu7jZ3wd9ALWMyhsFilD/t3gn9Pnz4jSmtM7wLLeNWrd58ojYRgiGhJ+yLCfdu3nys2Mf44TCLRYmCFDzAUoE2nLla+UlXbtHGjffXhu+7Yz6SWSpUtb5mzZLVdO3fa6j/PbsyrmNiw0O3YvaddXLCQsxKbNW2arV/3l61dFXH8KhZXefMXsHqNmliO8yMmTj8MHWwLZv8c5RHPSa0dVB4RSAkEggIWh0VgrZola1Zb8+efNnr4YLu0fkOrVK267d650wZ+09v+2bDunLLAiq0NXTyR9h2sWPEI94nNmzZbn969bOOGqF0zYssvtt+Z/PBxjcq9gUk1u2ZMfMOtpWLKlwUK4yt5Bic6/u/R3ctkhB2l4GltMT2HXdcsWU+IGFFdi8VD8DQsFqbspLP7ziSNuDZYq2DJFD4p8/mx+OM+JtdRxZoJPpd6EywcVxcm2uxEx5YIEJw+Q3rnLhB082ERhgvS+nUbnNuGLx+uPrgYcHrNvv37IywlduywPFg3HDjg8nFWc8WKRvtoP3n0FyC8cfIWCyPuZ8LOKVG46xw7fizSTQsRhp3HHTt3OGsSJpJMODlljHsIrsxmLgsCyrB183r3fUXMJGXKmNEKFCjgxA12Y0lYwmDpQh2DcZGYI7G4xKWJXVef+DsLbBbyxYoXcwvrFSsirAHC46PhZpbnwjxuVztVqvPcBBxLtvBYHEzq6Re4pxw9esQxZaed/o8ox2Q03N0VYZnyETgeZrgK8J4Ej82mzHBg0YeVUaFCl9iq1Wtt+fLlzkIq2OcIus1uNoJdMO4PCzXqzE5vsH70G2+J498Z+il9kEWQX0QgbHHiX0xp1+7dIfMg2pVFR4H8BVzcJqwHEFHCj3D3ecIPa01OtnNWJ1u3ufksi56o3quI6zM4vmlSp7at27a7vOm//nofNBdXF4St8ARXrIxoY/ggCsEh+A55AWvmzFlOLMiWNZud78a0Pe5dDl7r2wp33wwZMjprnH3799n+/fucxUT4ooxn8o5SZ3zJYM6mSjCAOHmyYOJQC8YqgpBjacpzw1mSH4vgbNmyWOrz0jjrJ96TkDhGmTKFCEtRtSmLpGA/cflmzOieD6/t27Y7KyjetfA6kR/9hz5DzCSsXxDOiaHH9cG2RPQh35gSrj7B8Zy84cvpg4hrLDr5H/nHZHnln0GbR4gZEbyjSriq5y+Q37UL8d4YF7g2qn7o6popk2XMlNFZVvKto63hHtVBGoxzHNCBpSXPQQTlkBXG4WD+9O2M/wmr0fFxViqpUjmLRPoEsbvCg+P7d5dyHTt+PDIr3rWMGTK650bFjfeXe3k3KMu+vftc3bg+mNi8SJM6jXt+MMEZfgTPD56Y6PsGAuQRToLbuTOy3oxFtA18YLd71y7bu3+fHT1yIk4ybc+JubRLOF+stoknGbS0RAvjtHvig9FnXKD43bvc6fH0PxjS1xGksFYMunxSH8QOTt/FgmvM6LGRDHkn6d+UlUS+5EWbEmiccYvkBSzETL4z1I93gjIiXAXf4RPMjoZ8A/g7bUB7wI9n+XciYgzLYtmz53DvNcxoo6AFk4vhmCWLYxN8B3mvsXxLmy6dE7Bo3+B7QvsRcB23uvC2pSwwCB9f/HX0c7hnz5bdMmfJ6CxCeTbXRzVm0B8ypE/v6uXd+8L7PQwYf2B+5PChiHdt376QfsB4Qrvu3rvHjv3nphzMB0aMkRF1i+grvg/463we4eMgHBHoaT/Hevduxyb8G0Abczp1+DsBL9rh4H/fGKwDsTTGujs4xnkBi/kTmwl8I9jc4RryDJ8f+HJ7F2g8BqLyJvDfEjdeZcwYmR9/p068K15MTfAg7lENYlhiXdXlaiteqoxtJRD5ay/G+DE40z8WLl7ScubMZXv37DYCtieFmFcxMbjgwjxW/4qmVrhYcbfojSod2L/fVv6x3J1cuP6vE5PiM81WzxMBETiZwCPPvuQsIteuXmlVa1zqxpz5s2ba1AkRp5PxEarfuJmVLl/BBQadPmm81a7f0PJffPE54UIY1zZnJ5PEzrSSCCRVAiyUJk4Y43b7iQXCDiAiDuLOww/e7yzFMK/vdnWPpFoFlSuJEri8QT0rV66c9R8wyAW/PpUUFLB8rKRTyUf3iEBiEECI53TG5Sv+cAGmo9tESYxnJ5c8+QZhJYt1T++vv7V9/4WEYVGPezibMsGDJ+JTby9gYaXz638WUfG5PzGv5RuLiIJrI27Q4Zs3ifnslJ43YhZxDL27eJBHUMAidmxsCTEN92fiyyHG9e03IE5ifkz5nhEBiwKgnmLllDZ9Olsw6+Rdptgqn5i/X1yoiB09csQ2/7MhycS8ikt9c+TMaZcUKWIXX1zE8hYoYKnPO8/+2bDBlv222LZu2uQstKI7pjwu+esaERCBxCHQtmM3q1wjwl2IgyK+H9jfva/huz7ZsuewrtfdZPkKFHBj04I5s23U0KhPTUmIkiZUDKyEKIvyEIGkRAC3q4njR7tdQHYz2WFkh5CdR9wxunS7JtoAxkmpHipL0iJAPCrSF1/2OuWFvQSspNWmKk0ogcj+OWuWzZu3QHhOgQBiAjGA+Pb0+ebbyFMeOV0uwurpPBdEP3iQR1wfk5QFLKx/OTCGGIMTJ06Oa5V0XQIQwMoe4ZnDHHCBDKb4CFhYhLVry6ELEZZneAQQH/Z0hewzJmAlAEtlIQIiIALJgkD6DBmsas3azjVp3qyf7OB/p41EVbnMWbNa4aIl7N9/j9vSXyLibCRWkoCVWGSVb3IgQJyH++6728Xaca4123e4mBxvvvmOcw1UEoH4EGBRSrwdXBeJwXeqCffLMqVLu0C6Pi7Wqeal+0QgoQmULFHCxQTDTRY3ZaX4E2CzBBdC3m/ec5+aNWviTojj5L+oDhiIy5NwH+cwCg4vwCUsKSWs9zjhFtfo4CmGSamMybUs/rtCSAIfn9DXlf5IHC5ixPn4f9FxwB2S7xyb8IQo4PrTFa94lgSs5NrzVC8REAERiCcBCVjxBKbLUyQBXHyJdYEpfEJMxFIkRFVaBERABETgtAgQX0rfoNNCqJvPAAHmTHiYJGRflYB1BhpOjxABERCBc4HA7l277fCBpHfIxrnATmUUAREQAREQAREQAREQARFIXAISsBKXr3IXAREQgXOGwH5OYNmz75wprwoqAiIgAiIgAiIgAiIgAiKQcghIwEo5ba2aioAIiECMBDgKeue27aIkAiIgAiIgAiIgAiIgAiIgAkmOgASsJNckKpAIiIAInD0CO7ftcKeyKomACIiACIiACIiACIiACIhAUiIgASsptYbKIgIiIAJnmcDhQ4dtz85dCRps8SxXSY8XAREQAREQAREQAREQARFIBgQkYCWDRlQVREAERCChCHBKyN7de+yQgrknFFLlIwIiIAIiIAIiIAIiIAIikAAEJGAlAERlIQIiIALJiQDH3e7asdOOHTmanKqluoiACIiACIiACIiACIiACJzDBCRgncONp6KLgAiIQGIROHbsmLPEOnLocGI9QvmKgAiIgAiIgAiIgAiIgAiIQJwJSMCKMypdKAIiIAIpj8C+vfvs0P4DhlWWkgiIgAiIgAiIgAiIgAiIgAicLQISsM4WeT1XBERABM4RAseOHrMjR47Y4UOH7OiRoxFi1r//niOlVzFFQAREQAREQAREQAREQASSAwEJWMmhFVUHERABERABERABERABERABERABERABEUjGBCRgJePGVdVEQAREQAREQAREQAREQAREQAREQAREIDkQkICVHFpRdRABERABERABERABERABERABERABERCBZExAAlYyblxVTQREQAREQAREQAREQAREQAREQAREQASSAwEJWMmhFVUHERABERABERABERABERABERABERABEUjGBCRgJePGVdVEQAREQAREQAREQAREQAREQAREQAREIDkQSFWwRDmdhZ4cWlJ1EAERiDOBLJkzWqaMGeJ8vS4UAREQAREQAREQAREQAREQARE4uwRSZchXTwLW2W0DPV0EROAME3jhiVvsgTu6neGn6nEiIAIiIAIiIAIiIAIiIAIiIAKnSkAC1qmS030iIALnLAEJWOds06ngIiACIiACIiACIiACIiACKZSABKwU2vCqtgikZAISsFJy66vuIiACIiACIiACIiACIiAC5yIBCVjnYqupzCIgAqdFQALWaeHTzSIgAiIgAiIgAiIgAiIgAiJwxglIwDrjyPVAERCBs01AAtbZbgE9XwREQAREQAREQAREQAREQATiR0ACVvx46WoREIFkQEACVjJoRFVBBERABERABERABERABEQgRRGQgJWimluVFQERgIAELPUDERABERABERABERABERABETi3CEjAOrfaS6UVARFIAAISsBIAorIQAREQAREQAREQAREQAREQgTNIQALWGYStR4mACCQNAhKwkkY7qBQiIAIiIAIiIAIiIAIiIAIiEFcCErDiSkrXiYAIJBsCErCSTVOqIiIgAiIgAiIgAiIgAiIgAimEgASsFNLQqqYIiMAJAhKw1BtEQAREQAREQAREQAREQARE4NwiIAHr3GovlVYERCABCEjASgCIykIEREAEREAEREAEREAEREAEziABCVhnELYeJQIikDQISMBKGu2gUoiACIiACIiACIiACIiACIhAXAlIwIorKV0nAiKQbAhIwEo2TamKiIAIiIAIiIAIiIAIiIAIpBACErBSSEOrmiIgAicISMBSbxABERABERABERABERABERCBc4uABKxzq71UWhEQgQQgIAErASAqCxEQAREQAREQAREQAREQARE4gwQkYJ1B2HqUCIhA0iAgAStptINKIQIiIAIiIAIiIAIiIAIiIAJxJSABK66kdJ0IiECyISABK9k0pSoiAiIgAiIgAiIgAiIgAiKQQghIwEohDa1qioAInCAgAUu9QQREQAREQAREQAREQAREQATOLQISsM6t9lJpRUAEEoCABKwEgKgsREAEREAEREAEREAEREAEROAMEpCAdQZh61EiIAJJg4AErKTRDiqFCIiACIiACIiACIiACIiACMSVgASsuJLSdSIgAsmGgASsZNOUqogIiIAIiIAIiIAIiIAIiEAKISABK4U0tKopAiJwgoAELPUGERABERABERABERABERABETi3CEjAOrfaS6UVARFIAAISsBIAorIQAREQAREQAREQAREQAREQgTNIQALWGYStR4mACCQNAhKwkkY7qBQiIAIiIAIiIAIiIAIiIAIiEFcCErDiSkrXiYAIJBsCErCSTVOqIiIgAiIgAiIgAiIgAiIgAimEgASsFNLQqqYIiMAJAhKw1BtEQAREQAREQAREQAREQARE4NwiIAHr3GovlVYERCABCEjASgCIykIEREAEREAEREAEREAEREAEziABCVhnELYeJQIikDQISMBKGu2gUoiACIiACIiACIiACIiACIhAXAlIwIorKV0nAiKQbAhIwEo2TamKiIAIiIAIiIAIiIAIiIAIpBACErBSSEOrmiIgAicISMBSbxABERABERABERABERABERCBc4uABKxzq71UWhEQgQQgIAErASAqCxEQAREQAREQAREQAREQARE4gwQkYJ1B2HqUCIhA0iAgAStptINKIQIiIAIiIAIiIAIiIAIiIAJxJSABK66kdJ0IiECyISABK9k0pSoiAiIgAiIgAiIgAiIgAiKQQghIwEohDa1qioAInCAgAUu9QQREQAREQAREQAREQAREQATOLQISsM6t9lJpRUAEEoCABKwEgKgsREAEREAEREAEREAEREAEROAMEpCAdQZh61EiIAJJg4AErKTRDiqFCIiACIiACIiACIiACIiACMSVgASsuJLSdSIgAsmGgASsZNOUqogIiIAIiIAIiIAIiIAIiEAKISABK4U0tKopAiJwgoAELPUGERABERABERABERABERABETi3CEjAOrfaS6UVARFIAAISsBIAorIQAREQAREQAREQAREQAREQgTNIQALWGYStR4mACCQNAhKwkkY7qBQiIAIiIAIiIAIiIAIiIAIiEFcCErDiSkrXiYAIJBsCErCSTVOqIiIgAiIgAiIgAiIgAiIgAimEQIoQsDKkT2fp06eNU5MeP/6vHT9+3I4dO25Hjx6zo8eOxek+XXR2CaRKlcoyZ8pgqVOfd1JBjhw5ZvsPHDy7BdTTkxQBCVhJqjlUGBEQAREQAREQAREQAREQARGIlUCyFrDSp0trN13b1rpc1diqVioVKwwu2LN3v+3avdf+2bzd1v610foNGW/jJ8+WkBUnemfnojwX5rTH7+th7VtfbrlyZj+pEGvWbrRbH3jNfvx5wdkpoJ6a5AhIwEpyTaICiYAIiIAIiIAIiIAIiIAIiECMBJK1gNWpbSP7+uOnEqQL1Lzielu6fLWzzFJKWgSefvhGe/Tea2Is1BPPf2Jvfdw/aRVcpTlrBCRgnTX0erAIiIAIiIAIiIAIiIAIiIAInBKBZCtgXZArh80a/4UVyJf7lMCE37Rv/wGbMGWOPf9GL/tt+eoEyVOZnD6BdOnS2uDeL1njBjVizKx4tY62bsPm03+gckgWBCRgJYtmVCVEQAREQAREQAREQAREQARSEIFkK2CVKlbQFk7rk+BNufT3Vdas0322ddvOBM9bGcafQN4Lc9nYQe9YyeKXRHvzH6vWWYU6V8c/c92RbAlIwEq2TauKiYAIiIAIiIAIiIAIiIAIJFMCyVbAeuGJW+2BO7omSrPNW7jMrrr2EdsiEStR+MYn09IlC9mM0Z9apowZor2t3+DxdsPdL8YnW12bzAlIwErmDazqiYAIiIAIiIAIiIAIiIAIJDsCyVLA4tTB/l88b80a1Uq0Brv65mds6A9TEi1/ZRw3Atd1a2UfvfFQjBff+/jb9mnv4XHLUFelCAISsFJEM6uSIiACIiACIiACIiACIiACyYhAshSwOJWO+Fe4lyVW2rx1h9VvdZut+WtjYj1C+caBwE9jPrMqFUtGe+XefQesRaf7bO7C3+OQmy5JKQQkYKWUllY9RUAEREAEREAEREAEREAEkguBZClgFbwor/0+e4ClSpUqUdvp46+G2f1PvpOoz1Dm0RMoW7KwzZnUy847L/p23r5jt1VvdJ1t+GerUIpAJAEJWOoMIiACIiACIiACIiACIiACInBuEUhyAhbWU43r17CK5YpZjuzZrGrFkpY+fbo4UX302Y9s5Ljp9tKTt9l9t3eJ9p5///3XXnyrtw0YMuGkay65KK81vryGXdmyvhW6JF+Mz+VUO06386l7x2bW5arGcSprXC7atmOX7dy5xxb9usJ69RsV7S1ZMme0cYPftRzZs8Yl28hrDhw8ZAt+WWY7du2xxb/+aROmzjEsy04nXVwgj13VqoFVq1TKzs+RzQoXzB/v7NZv2Gzzf1lmE3+cZ5OmzY32/vatL7dvP30mxvyHj5pmXW/6X7zLoBuSNwEJWMm7fVU7ERABERABERABERABERCB5EcgSQlY13drZU8/cqPlypXdUp93Xrxp5yh0hR06fMT2/j3ZUqdOHe39R44ctUr1rrFVazdEe03dWpVseN9XYwwOzs3dbnzKho3+0eUzafgHVrtG+XiXO7Ybjh8/brv37LMOPR63n+YsPunylk0us36fPWvp0qWNLatofz927LgdOHjQBn8/bwVkwgAAIABJREFUxW578LVTyufRe661B+/sZpkzZzyl+8NvOnz4iKtv5+uftD1795+U56BeL1mrppfF+KzmHe+zqT8tSJDyKJPkQ0ACVvJpS9VEBERABERABERABERABEQgZRBIEgJWxzYN7cG7rrYKZYudMvVVa9Zb2drdrFTxgrbwxz4x5kPcqtrNbrYdO3fHeN2Ifq9b4wY1YrzmvsffsU96D3OWRuMGvWMXX5TnlOsQ240rV693p+nNnr805NLbrr/KXn/2LkudOv6iX1TPXLh4hb3+fl8bNmpqbEVyv6dJk9ree+UBu65byzhdH9+L5sz/zdr3eNS2bt8VeWu+PLlszMC3rWTxgtFmt3PXXstXOnHKFN866PqkRUACVtJqD5VGBERABERABERABERABERABGIjcNYFrBu7t7E3Xrjb0p+G9RCVHPbDj9bt5qfsnls62ytP3x5jvSf+ONdad30wNjbO+mrbynExXvfKO9/Ys699YTWqlLGR/d+wbFkzx5rv6Vywf/9By1WsaUgWbz5/t91+Q/vTyfakew8dOmz3PPqOff1d9K6L/qYhX7/sTnw87xSs5uJa6OvueMEGDDvh8olQicVbzvOzRZvFR18OsQf+915cH6HrUhABCVgpqLFVVREQAREQAREQAREQAREQgWRB4KwKWNd1a2WILxkzpj8tmEePHrOuN/7Pxk6aZX0+edrFr4opVajT3f5Y9XecnnlgQ4R7YHSpz4Axdsv9r1iDOlVsRN/XLW3aNHHK93Quuumel+3bQWMjs/hr8XDLfcH5p5NllPfu3bvf7nvi3ZBnBS8kePrTD99oD9/dPcGfHZ4hVnPNOt5ra//+x/3U/IpLbWifV6J9Li6Rjz//sb332cBEL5secO4RkIB17rWZSiwCIiACIiACIiACIiACIpCyCZxVAWvHqvGWIcPpiVc039Ztu6xFp/ts645dNu2HT+yi/LmjbdW/1m2ykjU6xbnVYxOwvAVWiaKX2JhBb1v+vBfEOe9TvXDq9AXW+uoHDeGuWqXSNn30J6eaVaz3HThwyHIWbRLldVmzZLLZE748pUDtsT447IKjx45Z0/b32s//xQCbMPR9q1OrQrTZYEHW5canbOykmfF9lK5PAQQkYKWARlYVRUAEREAEREAEREAEREAEkhWBsyJg5To/u73+7J3WtUPUwkh8CX/xzQi765E3rWrFUjZ64FsxuvH5a2N7Bu6DH7z6oHXtEPOpgm27PWzjp8522b327J12100nTiWM7Rmn+vvPc5ZYsw732pGjR23I169Yi8aXnmpWcbqvT/8x9ujzH50UM+yRu6+xZx69MU55JMRFTdvfY9NmLrLzc2S1WeO/ME6MjC5t3LTVKtfvYbt2702IRyuPZEZAAlYya1BVRwREQAREQAREQAREQAREINkTOCsCFkIT1kpY8JxOIh7UGx/2s7c+6m9Y3HTr0MS+fO+JaLPErYwT9r75bkysj33qoevtkXuuiTWuU7WG19nSZatcfsTxKl2ysD16zzWWL2/0VmAxPTxtmtRWuUKJGMu3eu0Gq1z/Wnfi4ppFwyzPhTljrc/pXMApiD3veN4GfT85JJsdqydYhvTpYsx64z9b7e8NW2J9fI0qpWO9xgtYFcoUs9kTv4zx+pFjZ1in66PvC7E+TBckawISsJJ186pyIiACIiACIiACIiACIiACyZDAWRGwnnroBnvsvmtjxTlk5BQbPf5nW7hkRZTX/r5iTcjfl/7cz4oUKhBtvoePHLV2Vz9sU2bMj7ymXKkiIdcXvCSfdbnyCuvQtmGs5Rs4bJL1uOO5WK+LzwWZM2e0qSM+snKlQ8sVzMNbYJUtVdgmj/jQMsbihtntpqdPKsIlF+WxmtXKWuXyJazQJfliLeKnvYfbvY+/HXldvUsr27gh78R435atO6x5x/tt6fIIgS+m9Nnbj9k1nZtFe8nOXXusaYd7bfHSP+2jNx6O9cTDBq1vP+m0xtjKoN9TDgEJWCmnrVVTERABERABERABERABERCB5EHgrAhYw/q8as2uqBUjwRfe6OWsq7CsiksqWqiA/fpzvxgv3bN3vxUo09q53tWsUtY+ffsRy5UrR8g92bNmjnMg9rotbrF5i5bFpXhxvgb3yjW/DLM0aVJHe8/QkVPt2tuftXYt6lvvD/8X47W//r7Kqje6Lsq8Up93nl2Y+3x758X7rE2LujGWkYDuuUs0j7zmzps6OjfQmNK1tz17ktVWdNdPG/WJVa8cvRUWVm7NO95nBw8dtlED3rLqMVhsYaFW9fKeduDgoThz14Upi4AErJTV3qqtCIiACIiACIiACIiACIjAuU/grAhYsQVGHzFmut16/6u2Y9eeOBPu0aWlffLWwzFe//5ng+zhZz5wgdYJPn5BmHgV54eZGdZfxKHavHVH5G2FLs5nl9WqYPVrV7HMGTPEJztX1zsfecNaN61jA//P3lmASVW2b/zehl3YXbobpMFPFAQVQSlBlBIQkO4OSenu7lJKpUtAQDqlu6Ubll422f2u9z3nzJyZndliY2bnfv+XHztz3vy9Z/1f3D7P/fw6ItKxQ8YswOgpizF1VHe0avJ9pH1bdRmJpSu3Rtrnf8XyY/uaqfDyjHzPQvx79uKVTKucNaEXGtczClrmC7wNCESGD6pCmK/nz5tDGq4LLkI0s9RqfVcu0j2u37wX9VsOQJGCebBt9RTpg2Wt7d5/At/U7RYj/uzsWAQoYDnWffO0JEACJEACJEACJEACJEAC9k8gwQWs4oXz4fD2+ZGSa9JuKFas3xEjuvOm9EOjHypHOqZizU7Y/+8ZLJszBLWqRy6YRLV4h57jsXDZRkO31j/VQJMGVfFR8fxRDbX4fNvOf/F9o15YvmA4vvsm8miokhWa4+yF/3B42wIUL5LX6nrPnr9ChZqdpNgWWXN3c8Vff07AF6U/jLSflpbn65MC+zfPRZ5c1tM1123agwatByFDutTY89csiJTF92lVfuiKPQdOokn9qpgxridcXCwLYWIN87t5n3U5NmkSoICVNO+VpyIBEiABEiABEiABEiABEki6BBJcwCrzSVHsWD89UqJ6Y/TooBfROH/9MSFS8ei/G/dQ5LMGENUF/f6LPCIpsjVFGuLg0fMxc+Fq2S2FV3IM+Lk5OrepG52tWu3z1XcdcOjYOZzcsxgF8uWIVJTKUrg6Uqfyxr3zRgHN0gBx5q9rdsSjx8+i3NvGP8ajwpefRNqvddfRWLJiCwp+kBMndi+KtO/UOSvQZ+hMtGteC+OGdIKzs1OUe7DW4dVrf2TIX1U+HjWgHbq2q291rjf+AajVuA/2HToV6/U4MOkToICV9O+YJyQBEiABEiABEiABEiABEkhaBGxSwOo1eAamzV0RbdLChHzvX7ORLq2pn5V+gt9XbUOLziNQr0YF/DZzQLTnNu84Zc4K9B8xG6Gh7+SjNk1rSi8oNzfXWM95++4jlCjfBKl8vXHlaOTnnj5vFXoOmoY5E/ugcX3rKXxiM8IEv3G7oRBVBKNq0RGwtAisAT2ao1+PJpFO2brbaFntUaRqFitsPUosqn0J8ap5pxHYtO2A7CrERyFCWmsPHvmhbLW2uHv/cVRT87kDE6CA5cCXz6OTAAmQAAmQAAmQAAmQAAnYJYEEF7AK5c+F47t+ixTWzr3HZBRNUHBItKCKtLLZE3tb7RseHo7OfSZiwdKN6NmxIYb0bRWtefWdzCOvxDPvlF448s9C5MiWMcbzaQOEEPbL8NmYOncF6lT/CkvmRKwYqPUNDAxC+e874tTZK4jK9FyM6TloOqbPWxnl3tKk9sHm5ROjFJqSZ/5SznVy92IU+MB6lJjgnevDWggOCcGJ3YuRMX3qKPdgqcO9B08gzPx/+2OTfPx5qeLYvnZqpHOdOH0Zn33TOlbrcZDjEKCA5Th3zZOSAAmQAAmQAAmQAAmQAAkkDQIJLmAJbFePrUTWzOmtEhTV41p2Hok1f+2OFuVVv41CtUplrPYVwk/1Bj1x6Og5/Da9P+p8/1W05tU6rd6wC+OmL8P5i9elKbnWGtapjPlT+8VoLn3n/YfP4OSZyxgydgH83wZgzOAO6NzaeirirTsPUbjMj0ib2heXjixHMg/3SNf+rEprnDhzOcr9iZTAraumRBrBJqLE8pesi2xZMkQZJXbq7FWUrtwSZUt/iLFRVCo039yLl29w+85D3L73CH+s3o7/bt41dBncuyV6d/kp0vPUa94fG/7eF+WZ2cGxCVDAcuz75+lJgARIgARIgARIgARIgATsj0CiCFi7N8xEqY8LR0lr7JSl+H31Vvj7B+LN27eG/kLk0JqonPf0WuSeVqJ/0c8b4u3bQGkgny5NKqtrv3ylzP3oyTMsXf63YpZ+/JzF/svmDkWtb5WoJGtNpPCtjIYhvRCjViwcgYrlS1qda8GSDejUZyLq1qiAhdP6yWqA1preNyoq0JW/KoV1S8dG2m38tGUYMGouurWrj5ED2kXad8SERRg+YWFUy8bouaurixTZypQsanWcuF8RfXXp6q0Yzc3OjkeAApbj3TlPTAIkQAIkQAIkQAIkQAIkYN8EEkXAavRDFcyc0BNurlH7RglPI3//ALzxNwpYZ85fk+lxQqRp16wWJo7oEukt7D10CpVrd4GLszOKRuHH9FIVxx4+8UNAQJDVeX29U2D/ljnIkytrpGuPm7oMqzfujPItKVOymExtTJnC02pfkQY5b/F6jOzfFl3b/QinSHzR+4+Ygwkzfo9yXdFh7ZIxqPL1p5H21daeMKwz2reoHWnfm7cfYP7iDVIEfN92/+FT7Nx3TBrbb1k5OdJ0xPlC4Os94X2X5HgHIEABywEumUckARIgARIgARIgARIgARJIUgQSRcDKnzcH/vpjPLJmsZ5GGBllEWkjUgL/PX4OYwd3jFJQ+bpGRxw8cjZOL87XJyX2bxYCVpY4ndfaZMJXqtCnP+LmnQdYNmcIalUvZ3XdkJBQ1GvRH1v+ORTl3kQE2+FtC5A3t3UhTvh/1WjUC8dOXsLSOYNQvcoXUc4bVx3WbtqDBq0G4ssy/8OqRaNk1UdLTRjV/zJ8DibP/jOuluY8SZgABawkfLk8GgmQAAmQAAmQAAmQAAmQQJIkkCgCliBZv2YF/DojdtUA3wYE4bsGPXH63FWsXzYGInrJWhMRPB+Xb4rnL1/H+QUe2/krChfIHefzWprwzPn/UK56Owh/sGf/bUPy5B5W1334+BnKVG4JEb0WVSteOJ9Mq4ys3bh1H//7srE01Z81vheaNqgW1bRx9vz7hr2wbde/6NKmHkYPam913gePnqJCjU64fut+nK3NiZIuAQpYSfdueTISIAESIAESIAESIAESIIGkSSDRBCyBc9OfE1DuixJwjiwXzgL3O3cfoXKdrnB3d8XujbPg65PC6u0cP3UJn1dtEy+316ZJTUwe1TVe5jaf9M81/6BZx2GoW+NrLJo5MNI1N207iIatB0ariuP0sT+jRaPqkc4nzNSbdxou+7RrXhsTh3dOkDOLRYp+1hDXbtzF2f3LrEaJCVFvwvTfMWJi5NUtE2zTXMjmCVDAsvkr4gZJgARIgARIgARIgARIgARIwIRAogpY6dOmwpLZg1G2zIcxuhZRWa989fYylW3pnMGRju03bBYmzYqftLKc2TJhwdRfUKaUdWPxGB0sks5Zi3wHv2cvsXn5JJT/4qNIpx09ebGsbBhV8/JMjq2rJ6NE8QKRdm3SfihWrNsh+2RMnxo3Tq2Nauo4eX795n1ZdTF3jsw4f+gPq3MKc/uO9L6KE+aOMgkFLEe5aZ6TBEiABEiABEiABEiABEggqRBIVAFLgzhtdA80a1gNLi4u0eLa4efxWPj7RikeNahTyeqYwMAg1GnaDzv2HovWvLHp1LpJDYwd0hEe7m6xGR6tMecuXscnXzeDu5sr/K5vg2sUnGo07IWtu/6Ncu4Pi36Av1dOgo+39Qi2oKBg+OaqaDJXj/YN8EuPppGmMUa5eDQ6tOwyEstWbrVq1C8qRk6bu5KRV9FgyS6mBChg8Y0gARIgARIgARIgARIgARIgAfsiYBMClhBQypb+ED93bIiSJQpFSbBa3e7Yuf847l/4C6l8U1rtv//waemVJVLM4qsJ4apZw28xaUT8pBKGhr5DnaZ9sXXnv/j4wwLY89csODs7Wz3O1et38VmVVhDG61G1z0oVw5YVk+DmZr0a5OI/t6BN99EmU7m6uqBL63oY3j9+UjPFYg8e+qFCzY7S08pSlcTnL16hXY9xWL9lb1TH5HMSiECAAhZfChIgARIgARIgARIgARIgARKwLwI2IWBpyFL7euP7b8qiV5dGSJnCCy4uzvBO6Wki2Lx67Y8M+auizCdFsWP9dIu0/d8G4tipi6hSJ35EJUuL5siaEfOm9MMHebLBO6XXe0UniSqCr16/xc69xzB17nIcO3VJLvnJhwWxeslo+HqnsCg6+T17hVZdRmDLjsPReguzZkqP9cvGolCBXBb737rzEI3bDcGRExcsPv/i0w8xrF9rFCucV+5HCFvv24KDQ/D6TQBadRmJLTsOIUP61Ni+eioyZUyLoKAQnL/0H9Zv3oeZC1e/71Ic78AEKGA58OXz6CRAAiRAAiRAAiRAAiRAAnZJwKYELI2gEICEIOTu7oZcOTLDzc0ojNy89QCHjp1D8SL5UCh/TovQRfTO6fPXIKJ0ErrlzpkFubJnQvp0qWK9tBBwbt1+gAeP/fDU74XJPEUK5kGuHJmQwit5hPnPXbiOS1dvISQ0NNprf1QsP/Lny26x/7GTl3D1+p1I50qZwhMlPyoEL6/k8PJMFu11rXV8+cofwqT/7MX/ZJc0qX1Q/vOP8Ojxc7x4+drw/XsvxAkcmgAFLIe+fh6eBEiABEiABEiABEiABEjADgnYpIBlhxy5ZRIgATsiQAHLji6LWyUBEiABEiABEiABEiABEiABABSw+BqQAAk4HAEKWA535TwwCZAACZAACZAACZAACZCAnROggGXnF8jtkwAJxJwABayYM+MIEiABEiABEiABEiABEiABEkhMAhSwEpM+1yYBEkgUAkP7tkKXNnURHh5u+CdRNsJFSYAESIAESIAESIAESIAESIAEokWAAla0MLETCZBAUiIwuHcLdG79gxSvwsLCKGIlpcvlWUiABEiABEiABEiABEiABJIkAQpYSfJaeSgSIIHICAzp01JGYFG84ntCAiRAAiRAAiRAAiRAAiRAAvZBgAKWfdwTd0kCJBCHBIb2aYWu7epFmkIoorPYSIAESIAESIAESIAESIAESIAEbIMABSzbuAfuggRIIAEJCA+s7u1/jJA6SNEqAS+BS5EACZAACZAACZAACZAACZBADAhQwIoBLHYlARJIGgSG9WttELD0J6KAlTTul6cgARIgARIgARIgARIgARJIegQoYCW9O+WJSIAEoiAw/Jc2UsAybxSw+OqQAAmQAAmQAAmQAAmQAAmQgG0SoIBlm/fCXZEACcQjAWsCVjwuyalJgARIgARIgARIgARIgARIgATegwAFrPeAx6EkQAL2SUAIWD06NLDPzXPXJEACJEACJEACJEACJEACJOCABChgOeCl88gk4OgEKGA5+hvA85MACZAACZAACZAACZAACdgbAQpY9nZj3C8JkMB7E6CA9d4IOQEJkAAJkAAJkAAJkAAJkAAJJCgBClgJipuLkQAJ2AIBCli2cAvcAwmQAAmQAAmQAAmQAAmQAAlEnwAFrOizYk8SIIEkQoACVhK5SB6DBEiABEiABEiABEiABEjAYQhQwHKYq+ZBSYAENAIUsPgukAAJkAAJkAAJkAAJkAAJkIB9EaCAZV/3xd2SAAnEAQEKWHEAkVOQAAmQAAmQAAmQAAmQAAmQQAISoICVgLC5FAmQgG0QoIBlG/fAXZAACZAACZAACZAACZAACZBAdAlQwIouKfYjARJIMgQoYCWZq+RBSIAESIAESIAESIAESIAEHIQABSwHuWgekwRIwEiAAhbfBhIgARIgARIgARIgARIgARKwLwIUsOzrvrhbEiCBOCBAASsOIHIKEiABEiABEiABEiABEiABEkhAAhSwEhA2lyIBErANAhSwbOMeuAsSIAESIAESIAESIAESIAESiC4BCljRJcV+JEACSYYABawkc5U8CAmQAAmQAAmQAAmQAAmQgIMQoIDlIBfNY5IACRgJUMDi20ACJEACJEACJEACJEACJEAC9kWAApZ93Rd3SwIkEAcEKGDFAUROQQIkQAIkQAIkQAIkQAIkQAIJSIACVgLC5lIkQAK2QYAClm3cA3dBAiRAAiRAAiRAAiRAAiRAAtElQAEruqTYjwRIIMkQoICVZK6SByEBEiABEiABEiABEiABEnAQAhSwHOSieUwSIAEjAQpYfBtIgARIgARIgARIgARIgARIwL4IUMCyr/vibkmABOKAAAWsOIDIKUiABEiABEiABEiABEiABEggAQlQwEpA2FyKBEjANghQwLKNe+AuSIAESIAESIAESIAESIAESCC6BChgRZcU+5EACSQZAhSwksxV8iAkQAIkQAIkQAIkQAIkQAIOQoACloNcNI9JAiRgJEABi28DCZAACZAACZAACZAACZAACdgXAQpY9nVf3C0JkEAcEKCAFQcQOQUJkAAJkAAJkAAJkAAJkAAJJCABClgJCJtLkQAJ2AYBCli2cQ/cBQmQAAmQAAmQAAmQAAmQAAlElwAFrOiSYj8SIIEkQ4ACVpK5Sh6EBEiABEiABEiABEiABEjAQQhQwHKQi+YxSYAEjAQoYPFtIAESIAESIAESIAESIAESIAH7IkABy77ui7slARKIAwIUsOIAIqcgARIgARIgARIgARIgARIggQQkQAErAWFzKRIgAdsgQAHLNu6BuyABEiABEiABEiABEiABEiCB6BKggBVdUuxHAiSQZAhQwEoyV8mDkAAJkAAJkAAJkAAJkAAJOAgBClgOctE8JgmQgJEABSzrb0NwaBgevQzAXT9/PHkdiICgUCA8HOEA/F4H4U1gMFKn8EDKZG6G71N5uSNFcnf4ermjSPY0fNVIgARIgARIgARIgARIgARIIM4JUMCKc6SckARIwNYJUMAS2lM4XgeGwu9NEO489cf6Y7dxy+813miClRCthGol/wyHk/qnuNswKWiFw0letPI8TOsrvg8LR+FsqVEwa2rULJ0HPp4e8Ermpva39beD+yMBEiABEiABEiABEiABErBFAhSwbPFWuCcSIIF4JeDIAlZgyDvsvfgYZ+8+x6X7L3Hvub/QoKQIpYlR4rMQqYRopT2TkpXogjDlO/X/DGPN+irClyJwfZDZF3ky+qD+F/mRK4NPvN4tJycBEiABEiABEiABEiABEkiaBChgJc175alIgAQiIeCIApYQk14FhKDv8pO4/cxfClaKaKWIV1qElRJIFY5wJaQKTqq4FaYoVTKVUPZVI6/kBGHKXPKpuRimzifGfpAlFRp8WQBfFMoCd1cXvqMkQAIkQAIkQAIkQAIkQAIkEG0CFLCijYodSYAEkgoBRxSwDl59gslbL8E/MMQgWmkClgyVUgUtKUOFqamDmiClildqSJVRvNKlGUqBS4ZuSUlMF9GlRnfpxLJapfOiU/WPKGIllV8onoMESIAESIAESIAESIAEEoAABawEgMwlSIAEbIuAowlYIaFhqDllj0nElRZ1JeUm4WGlRVjpBKgIApcUqVRBSkRdifAsmVGoRWfpUg5VUUzrr4/2EiP61y+NKv/LBWdnxUmLjQRIgARIgARIgARIgARIgAQiI0ABi+8HCZCAwxFwNAFr3KYL2H3xoXLPWupgeDjSpkyGNCncZVVBv9eBuHDvhTRgF2KWFLh0/ZXkQVOvLMX2Su0rUw7V9EMtost8vC69UDwa1aQsyhXN7nDvHw9MAiRAAiRAAiRAAiRAAiQQcwIUsGLOjCNIgATsnIAjCVi3nvqj34qTePE22BCBJTyssqX2xPB6H0kRS2t7LzzAyHWn8S4szOCLZRCldB5YQgQz8cTSPLB0aYIGocxM9DIYwIeHo3SBzBjdtBw83OiHZee/Utw+CZAACZAACZAACZAACcQ7AQpY8Y6YC5AACdgaAUcSsC7ff4UBq0+p3ldKZUARNTWneRlkT+sV4Wr+2P8fFu66pBq2qymBqr+VlgYoKhQK43a1HKHOEN60aqFiiaUZxEspTBHR1Eis5O4umNq2IormTGdrrwj3QwIkQAIkQAIkQAIkQAIkYGMEKGDZ2IVwOyRAAvFPwJEErD0XH2HMX+dMxKNvimdB5yqFLIK+6/cG3X49iOf+QYq3lXnaoPKFofKg4blZVUNFuDKKVkpwlqmAJT4P++kLVPood/xfOlcgARIgARIgARIgARIgARKwawIUsOz6+rh5EiCB2BBwSAFLCExqGuA3xbKi8zeWBaxXb4PRa+lhXH3wUhGvlLKCauSUYtauRVCJaCq90bvmhyXFKsN6Rt8sbZwiZCmRYMVzpMW8rtVic40cQwIkQAIkQAIkQAIkQAIk4EAEKGA50GXzqCRAAgoBxxOwzkrBSHhfCdkob4aUmNq0tMXXQZi591h8GHefvtZFYIUp1QZ1HldhTuHS8F3vaWUiZpmLW7qxxqqFoIDFX0oSIAESIAESIAESIAESIIFoEaCAFS1M7EQCJJCUCDiSgCWqD47ZeFYKTVpUlNCSxvz4MT7MmSbCtW46fhsT/zptTPcTMViiIqFBwFKjp1QxTJlTV31QUbQMEVtK5qAxUktGbZkZwh+d0iwpvV48CwmQAAmQAAmQAAmQAAmQQDwQoIAVD1A5JQmQgG0TcCQBa48QsDaICCxFiJJ6Ulg4sqT2xNiGJZHO21iFcNe5exi15iTehStVCPXpgiLiSvG+kjPojNt1YpV5FUJNvNK8r3SpiPpormNTm9uH9MfkAAAgAElEQVT2C8PdkQAJkAAJkAAJkAAJkAAJJDoBCliJfgXcAAmQQEITcCgB64ISgSXEK3NRSkRCfZQrDVJ7eeDCnWd4+joQgSGhBpHLECkltCshYFmqPKhPDVSjskwM262IVoa9ADhKASuhfwW4HgmQAAmQAAmQAAmQAAnYHQGbErA++V9BtGtWE89fvsa1G/cxa+HqWAEtXjgvTp+/FquxHEQCJJD0CTiSgLVbCFgbzkBUBdQiqIxm60pElvDGMqT2mVUdlN5XWsqfuVhl9tnc0F1LL4yQQihSEkVEmFg8PBzHprVI+i8dT0gCJEACJEACJEACJEACJPBeBGxKwEqXxhfD+7dBhS8/loe69+AJOveehFPnrkbrkJ9+XAQ1qpVF9SqfYeTExVi2cmu0xrETCZCAYxFwLAHrAUatP6Ok/ckIKrOKgpp/leJkJTUu8T8GwUvzzrJgyq4IW8Yqg/q0QCXCSq6mphsaf9bvQcxxfFpLx3oBeVoSIAESIAESIAESIAESIIEYE7ApAUvs3sPdDZNHdkOlrz6Rhzl55grqNP0l0oMlT+aBzq1/QJMfq8LDw032DQkJRb3mAxiJFeNXggNIIOkTcDwB67QUr/QCkxZ1pcpKRtN2UXDQSekrqxaqApWM0FIjrrSIKnMBSxOmtPRAvYG7rIKoGsIr/WRol4zuOjG9VdJ/6XhCEiABEiABEiABEiABEiCB9yKQ6ALW558Ww9kL/+HlK3/DQdKm8cUIXSRW594TsWn7IasHnTH2Z1SpUMrk+d37T/Dlt+3fC46bqwtSeCWP9hyBQSEICAyKdv/Ydhw7qDVSpkiOBcu24NipK7GdhuNIwGEJOJyAte600XRdCFMQdlZKSqFSQ1CVsbRUQjXqyjz1T//ZJELLoqm75cgsfSVENdwLxylgOezvIg9OAiRAAiRAAiRAAiRAAtElkOgC1j9rp+DytTvo0X8qAoOCDfsWUVXnDi6Vn/ccPIXmHUdYPdPlI3/A1dXV5Pmg0fOxdMX7pRC2a1odtap9Hl2W0rerXa8p0e4f2477Nk5CMg93jJryB9Zs2h/baTiOBByWgCMJWE9eBeLy/ZeqRmUUq7TLV5MKTd8FLfVP0bV0LRwv/YMwZs3RCKmDWuqhHKIJY/JPJSUxYnqhMZ3xxAxGYDnsLyMPTgIkQAIkQAIkQAIkQALRJJDoAtaaxSNRvEg+rFy3E6MmLzZEYuXJmQXb1kyWxzjw71k0bjfU4pGEX9acSb1Nnvk9e4kajfrg/sOn0cRguVvrn6qhcd2KJg9dXV3g4uIs/zIWLKp16f5yd/biDQpY70Wcg0kgYQg4koAV10Qfv3yLmiM36EQprbqhFnFlKmAZBC2d4bu5oHVyZuu43ibnIwESIAESIAESIAESIAESSGIEEl3AatOkBnp1aSix/nvsAjr0Go+wsHAsmtkfRQvlkd8PGrUAS1f+HQF91szpsXTOIGTLkt7k2eRZKzBt3sr3virP5Mlkqp6+1a9ZHo3qfI0r/93FwDG/4Y1/oOFxUHAIXrx8897rRjUBI7CiIsTnJBA5AQpYsX9DHr8QAtZ6NaLKaPpu8MOKbsVC1QBe/FeAkzPbxH5DHEkCJEACJEACJEACJEACJOAQBBJdwBKU922ehcwZ01oFPnDkPKxYv1Mas2utcIFcmDnuZ2TNkh5COFq9YTd27TuOoycv4vWbt/F2eS0afoO2Tb7F+Us30anfDKtrOTk5IWumtMiQPrX8i96DR3549OQ53r2TheMttjSpvJE9S3q4u7viid9L3H3wFMHBIRH6RiZgZUibCpkyppYphi9evcH1Ww8tzhFvgDgxCdgBAXsVsF68DcbDFwE4et0Pd/38ceup4h0oDdc1g3SlmKD4JKOk1A6GVD6t0qAiOOlS/DRBSTNuV32ttPm1ioIh78Jw5+lrRcDSRVVJNy1zk/dIoq7UHESInRsisN7uBQKOqHuGcH2P+LOzL+DiAyT7BHBNDzh72sEbxy2SAAmQAAmQAAmQAAmQAAm8LwGbELA+/bgIZk34Gd4pvSyeR4g4A0bOw6oNu+RzT89kmDupN0p/UkR+njRrBeb+tlZJ6YvnFh0BS6QYjujXHB8WyQMRxSX+oub/NgjXbtxDj4GzLe6z+Y9VULPaZ/BO4QlnF2cEBgbD79krdB80J0IqpDUBq0WDKqhV7Qt4eSWDq4uLFPaev3iNCbNX49DR8/FMhtOTgP0QsEcB6+DVp5i76wreBoXCPyjUUCVQSOJaRUFpzC7+jROmqFiRVR00VApUDdtF5UEpSEmNXRmrH2/R0F0VvfSeV5rgFelYvdglqs1qEVj+24A328xeJKFimRhxKft0cgdc0wG+TQGX1Pbz8nGnJEACJEACJEACJEACJEACsSJgEwKWtvPmDb/Fh0XzyY937j7Cm7eB6NiyNpIlc5ffDRgxFys37JKRWCJia9KIzth3+Aymz1sVq8PHZlBUAlZq35SYOLQtChfIKf/yd+/BU4S+C0OWjGng5uaKh4+foVPf6bh555FcXnhqdW1dC/VqlJOfHz99gdev3yJD+lSyAqIY22/4Auw6cMqwXUsCVqtGVdG6cTXZ59nz13js90JGgIk5xOduA2bhwpVbsTkyx5BAkiNgTwKWiLr66+Q9/Hn4phr1JOUlRcTRRVBpVQHDdQKU/rm+4qBBvJJCkjKfU1jkRutGkUq8DpYFLkN0l4gIC5cxYIZKhxGjswAnNcLKIGAJ8UqIWMoSphFYhi9FZJn4oEazOqcCUjUH3LMnufeUByIBEiABEiABEiABEiABEjASsCkBy/xi3N1c0eKn7/Bzxx/lIxFRNHj0fKxYt1N+FuKMiLqylGYXX5cclYDVrH5ltG1aHWFhYZg4exV2HzgtPb3y582K4X2bIWUKT2zcehhDJyyRW8yTMzMWTe8FD3c3bNx6CHOXbEZQUAh8fVNgWJ+myJ8nK27efogfWg4zHMlcwEqb2gfL5/WHd0pPrFi3G8tW74R/QKCce3T/lkjlmwL/7DmBviMWxBcWzksCdkXAXgSsd2HhGPvXeRy4+sQQESU0HxFppQhEUn0y+lHJyCvVRF3tY/hsnuKniVBKBzFppBFXYi0RpKUJYVFGZ5mlF+rTDbUlpX7lpIvA0gQsLeDKkEKo5kVqwp26d+VxGMJd0sEpTQfA1Xoqul29oNwsCZAACZAACZAACZAACZBABAI2LWBpu23XvBY6tKyF5Mk85Fe/DJ+D1Rt3m3hiJdTdRiZgCd+rv/8chdSpUuLQsQvoPnA2QkPfGbbWscX3aFKvkhS0ytXogYDAIEwa2g6ff1oEz168RpOOY2WEltY+L1UUk4a1lR97D52PnftPyp/NBawP8mTFvInd4ZncA137z8SBI8Z0wU4taiBfnix48vQlhk1cmlCYuA4J2DQBexCwXr4NxqwdV7H/ymPJ0pDSJ/2uFBHL4GOlCUtmUVkmPlUybMkYcSXTDNU5lOxBCwKWJnpJQSmqCC0xhxoVpc6raFj6KoWWPQAjTyGUOZGqsVdEIUvz0kLyEkDqFjb93nFzJEACJEACJEACJEACJEACsSdgFwJWhEisoBAMGbsAy9fuiP3JYzkyMgErQ7pU+GvZcDnz0PFLsHHbYZNVfLxT4J9VY+R3Qtzad/gs9v81CR7u7tj37zl0HzDLpL/w0tq5Zpz00dq1/xR6DZ1nUcASaYgblw6DiMR69fotjp+5gvVbDuHg0fMQopqzs5P0xHkXZt1APpY4OIwE7JKArQtYQuSes+sqNp26bxCZDCmAasqfNG7X/Sw0HqfwMJlYZ/DEUn+W0VOqCCbmkZ+lx7vOK0udS/O6UrQnU5FM669FfRkqD6rClXE+49yGvupaSl6gaYiVwcRdemBt1z3XjOLFn9q/vzRzeqNBvUwnFB/TtAaSf2SX7yQ3TQIkQAIkQAIkQAIkQAIkEDkBuxCwtCO0b14L7XWRWP2Gzcaav/YkaCRWZALWpyUKYtqojnK79VoOx/XbDyLQP7R5qvS9Wrx8O6YtWIej22bIPov+3IbpC9dH6L9i7gDkypkR9x74oUaTgRYFLPFl7hyZZMph3txZ4Kway/i/DcS23cexeuNeXLl+z1ghjL8VJODgBGxdwBLVBUdvPI/bfm/kTSlilS5lUKsgqFUMVKOnpHClCU+a+KQJV/oqhaJXhJRBYwSVZb8rvaClRmzp96ETvBStKqL4JaQrKV85qT7s6ucTs9oob6QhhVBMYIzm0qK4FOnLKGCJ8yrilRqZ5ZoByDgYcHJ18Dc88uPfunULjRs3xoMHD5AxY0bs3buXvEiABEiABEiABEiABEjA5gnYtICVL082NPqhEgaNVryb3N3d0LJRdfTQPLGCgjF03K/4c80/CQY6MgErf95sWDqzj9zLj61H4NrN+xH29e/f0+Ds7IwlK3dg6rw1OLxlGkSklSZomQ9Yv3goMmdMgweP/PDdT9YFLDEulW9K5MiaQRrCl/64ILw8RQVEyEqE/UYuxLFTVxKMExciAVsmYOsC1pA1Z3HkxlODMKOk9xmjmqSYpX3WxCtdmqEWGaVFOonUPtFfCj5mcynaj3TTMkRkRYywMkZCaabvSnqiVK2irlio+mcJ4UprspBgBBP3rWoVQk2UMs4v1nHSBDOEKWfReWLJeZ2SAem6Ah55Evz1O3XqFMaOHRvhPxSIf9+nTp0aadKkQbFixVC6dGlkypQpwfenX/DmzZuoX78+7t+/jwwZMuDo0aOJuh8uTgIkQAIkQAIkQAIkQALRIWCzAlaeXFmwYGo/ZMuSHms37cEvw+ciKChYnsk8EqvPkFlYt3lvgkRiReWBdVgIVE5OGDdjBVas32NyByJKSpiti9Z/5K/YuvsYNv0+AunT+uLIiUvo2Hea5nMs+4jqiztWjYO7u6v01OrcT4nWMvfASuWTApkypkFAQBBu3X0sDeRF+7J0MfTr1gCiMuLZi9fRvMuE6LwT7EMCSZ6ALQtYN5+8QcfFR00N1VXvKi01UNGchIijGrrrPLG06n9KNJYqLgltR4240sQtxZRd54ulCmEy2kvvuaVLPTSkDJpFXun9ucTLY/TTUoQ3Y8qg+FmfQqh8NqQQvt4I+O9So6q0cboIK8Nc+jRCXZqh2Jd3dcCnZoK/wzt27ECzZs2iXNfd3R3ff/89OnTogNy5c0fZP6Ydnj9/Dn9/f6RLlw4eHopvpHmjgBVTquxPAiRAAiRAAiRAAiRgCwRsUsDKnzc7Zk/shexZM0hGk2etwNxF62QVQtEiRmKFYNj4X/HHauGdEr8tqiqEqxYOlFFQZy5cR6e+0/E2IEhuSHhRDejeENUrl5aVE7+u3ROBgcHo2aEu6n7/Jd74B6B1j0m4ev2e4QDfVymD/t0bys/C4P3ClVvyZ3MBS/Tr1rY2nj57hZZdJ+DFKyXtSLRxA1uh3OcfSvHv8+rd4hcOZycBOyFgywLWsoM38MehmzrTdhnjZPC1UtL7hIClRSAp6XpKRUJFtNJ7YxmqFJqbtJuZskfwvlKjtcSVaimFWuVBQ19dpUFlbTV1UCeMmYpXEV+QvJlSYeWAusqDF4uAAFGswkyUMvhnad/rI7TMPLE88gMZlEjYhGzRFbC0PeXLlw8LFy5Ejhw54myb4n5atWqFS5cuYcqUKShRooTFuSlgxRlyTkQCJEACJEACJEACJJCABGxOwMqVIzN+nf6LjLwKDArG7IXrMG3eSotI2jevLasTikgl0XoPnon1W/bFayRWVAJW6Y8LYfyQNnBzdcH6LQexdssBWXWwRPF8EFUIXZydsXLjPoybvlzuOU0qbyyZ2Qfp0vjgwuVbGD9zpRS4RFTV8D7N4OPjhYtXb6NxB8X8XTRzAavMx4UwbnBrKezt2HcSi1dsl9UPxZy/dGso/7x87Q4atR+dgK8WlyIB2yVgqwJWyLswjFh/Fkev+xl8r/SV/ETlQdE08UoTlDSPLMNngzgVrhbwC0eYUmpQ0ZN00VZyPkNqoTq/BXN3k4qGOs8tGe+przqoH6t7BeTyFlIIPyuYFdM7VVN6SgHrhDpfmIzVUuZWos0UXyztHJFUJMw+F3BWUqgTqukFrCZNmmDYsGFy6aCgIDx8+BCXL1/GkiVL8O+//yIwMFA+q1evHsaNGxdnW7x37x6++eYbvHjxAn/++SfKlCljcW4KWHGGnBORAAmQAAmQAAmQAAkkIAGbErAKfpADM8f3tBp5Zc7F3c0NLX/SeWIFh2D4+N/w+6pt8YYwKgErmYc72jWtjga1v5J7ECKcELA8kyupHBev3EK3gbPh9+yV/CwqBFYoWwJDezeRXlghoe8QHBQCT08PGbUVEBiEdj2n4PxlJfpKNHMBy83VFVUrlELfLvXg4uKCwKAQhIaEwtMzmZz/xSt//DxoNk6fvx5vXDgxCdgTAVsVsAJD3qHv8pO4/OClQcASXIV4JMQrLYVP8cBS0gO151rKoPbZpGqhVnnQzPQ9YtSU5cqElsSrCNFYUljSj1eSBbWMQbFTSybujb4uih51VKHl6UQg+IbBi0vzvDIatYsJ1YqDOjFLRp3pha3MQwGPuE/Pi+wdtyZg6ccI4WrZsmUYPnw43r17B1dXV5w8eRI+Pj5x8uuzbds2tG/fHsHBwRSw4oQoJyEBEiABEiABEiABErAlAjYjYIl0wcWzBsrIK5HuNiuSyCtzgO1b1EaHFsZIrJ4Dp2Pj3wcQEhoa56yrVSyFOtXL4r+b9zFx1ipDiqD5QuU/+xANapeHr09KGY0lUgQPH7+EGQvXW6wGmDVTWvTuVB9pUntL83UhXF27cR9jpv6J1/4BJtPPHtcVHh5u+O2Prdhz6IzhWZmShdGoztcyesvLMzneBgTiydMXmDpvHa7eMKYmxjkUTkgCdkbAVgWs14EhaLPgEF68DVGjpYwilRJ9pVYP1PtM6T2rlPAqtSifmlYovK+cjB5Y2nND1JWieBnSBA0RWlZSDK0JZIq4po/givqlSO7uinWD6yO9rxcQ9hp42M9C+qAu6ko9n6HqoLp3k0qEQtjyLAukbxv1BuKwR3QELLHcy5cv0bBhQ5w5o/y7WwhahQsXNnwWHlmlSpWS/zHCWvPz88O5c+cM/7/ko48+wt27dzFhwgRs366k0vfp0weFChUymaJcuXLys6UILLGvq1evyvTDR48eyfWFwXuRIkWQJ08eeHp6RkpLeC8+efJEjr9y5Yo0iBdzZM+eXZrX58qVK1Kh7uzZsxDnElURCxQogDdv3uDixYu4cOGC/DNlypQQaZd58+ZF/vz54eXlFYe3x6lIgARIgARIgARIgATsgYBNCFiF8ufEjHE/Rzvyyhysu5srWjb+Hj061JePgtVIrGXxGIkV3cv19UkBD3c3vHzlL6OxomoiUsvH2wuv3wTA/22Aial7VGO152IOse6rV/7wfxuo+NKwkQAJGAjYqoB19vZz9F5+XPGwMvhaKR5YUmSSRuziGPo0OqNHlUG8Ekl3moeVhZRBvWCl6GKa8KUToEyiqYzrKpFXplURDZUN1SisqEzbtecVP8qDkc2+gquLM/BytWLgHq4UoVBzH3WClva9efVBsVFV5NK4uOcCsoxM0Dc+ugJWaGio9KkS/UXr3bs3vvjiC3z77bfyc4oUKbBu3Tp88MEHVvc/e/ZsjBo1Sr4jQtARqYKrV6+W5u2Rtdu3b8vHegFLeHAJvyyR8ihEJBG9pW9iP5988ol8LsQoS01Ek82dOxcrVqzArVu3IM6ob0KUE6LUwIEDUbJkSYtzVK5cWQpVFStWRI8ePdCvXz8p0pnvRxjTC2+vQYMGoWDBggl6x1yMBEiABEiABEiABEggcQkkuoCVPLkHtqyYqEZehWDWwrVWPa+iQiUjsYQnloe7FLFqNe4rU/bYSIAESEBPwFYFrIW7r2HVkRtKoJVq3C692oVgpFYRVDQinam7PJhRgFL0KCWiSlQelE/NPK/MI64MApmJKbtpOqGQiESaolLl0BjlZRyr7EPzuhJTRUghFJFgqheWeL6we3V8lC8zEHIf4U8nwSnMXxXT9CbtFgQqsQM18kwR04x+WLKyoosPkHWs8mcCtdgKWMIDS3hhCQFLRGWJ1HEhzjRv3tzqzn/66Sfs2aNUuZ0+fTp27twpvbVevXqF169fy+/Tpk0boQrhoUOH5DO9gJU6dWr53bNnz2SUVapUqWTkVEBAgIyo0lq1atUwc+ZMuT99CwkJkWLa/Pnz5dfOzs7w9vaWEVKir/DjEtFUWhP7rV69eoR5vv76axkBljlzZnkG8Y/YjxDQkiVLJn3DRISWEMtEE4KYEO1EZBYbCZAACZAACZAACZCAYxBIdAFLRAod3/WrpC2qDc5ZtE6KT7Fpbm6uaNX4e3RuUweTZy7H7N/WxWYajiEBEkjiBGxVwBq6+jQO/ffYYLZuEJ4URctglm7iXaVLGzQIOTJay8zPSm/WLu7X4KGlpg9qQpkWsRXB00qN5bRgAG8wkbdg0q69SuYm7k0rFkeXmp8qj19tBF5vA8JF5I6+qqC+6qDctBqRpUZjGSovCsN3XeVCp2RApgFAsnwJ9iZHV8ASIkz9+vWlqbtoIuVPpMTt3r0bjRs3lt+JiCyRWmipPX36FJ999pkUmLJkySLHC3FHmMWLyKxFixbJYdOmTcPHH39sMoXoL5pewNI6VKlSRYpm2bJlg4iYEsLTxo0b5Zya6fzmzZtlSqG+LV++HD179pRfCcFKnOGHH35AmjRppJglor6EuLV161bZR8y/Zs0amZ6ob5qApX0nUg6FkCcixIRIJQQtIdoNHjxYdhF7FIJapUqVEuyOuRAJkAAJkAAJkAAJkEDiEkh0AUscX1QeFJXyjpy4GCc0alb7Ems3Kf91mo0ESIAEzAnYqoDV6bd/ce3RKynGKMbtxgqBSuSTmu5nMGVX0wu1iKgwJTpKSUEMQ5jqfaUJXvr0P1MBSy9o6VISdRFZmpgmWVqqYmhIVhYqlj5xOeLnOp8XQO96nyupg+9eAA/7GtIYDemRymmN3xuirDQTd7GGTuzSUg/l2m5Axt6AZ/EEe/mjI2CJFL958+Zh4sSJcl9C5Dl+/LgUekT0VO3atQ3CloiW0gQn/SHGjBmDGTNmyK+EUCQiuMR40cTPQrgSLbpVCEXfokWLYunSpTL6St+EcNW2bVsZ4SWa+Fmk9mlNiGgiGuzIkSPyq2bNmknRSduPfi5RmXHXrl3yKzFmxIgRJmvpBSwRvbV3716kS5cuwv2JVEbBULRevXqhY8eOCXbHXIgESIAESIAESIAESCBxCdiEgJW4CLg6CZCAoxGwVQHrmzHbDYKNrDKoi7oSopQQp/TVBU1SB6WeY6xUKAUnnVeWllqoN3m3LGhZjtyyaPquClymgpX1t8nXywPdapVGhf/lhmcyN+CdH/B0ukwhVIQrMdZSBJYuukofaSV/Njd5F5/dgUx9AM8PE+zV1gtYIsKqb9++EMbmb9++xePHj2W1QdHnwIEDck8iTU+IQcIPS546LAxDhgzBr78qEcl16tQxCF3aIYTIVbp0aUOa4KxZsyBS+7QWWwFLpAAKY3lLbcGCBXJfolWtWlVGZGlNGMcL4UkIWcJ8XQhU1szVhQgmzipSDkVqoBDo9IKZXsASvmAdOnSwuB8hlgm+wmdLpF6KM7ORAAmQAAmQAAmQAAk4BgEKWI5xzzwlCZCAjoAtClih78JRfdx2tRqg0GW0dDklCknxnVKiq5S4K9X7SfPLUj2ylMcRTdk1AUp5rI2VEpfs7+7mrGpIqkgmTeB1BvJmFQZN5hPpY2rclZZFKOYVP3u4uUix6n+5MqJTzZLImFr1LHr3Cnj+KxB4wSz6yrKJu/T9UvcqaEivKyWv0kL0VjiQvhPg/XWCvfd6ASuqRYWnk6g0OGfOHJPqfiIaq2bNmnK4EIKEICSEIa2JNUSan2Av5hD99R5QsRWwDh8+LL2nLLVt27ahZcuW8pHY88qVKw3dRIqhJjTVrVsX48ePt3p04bElzOaFoCeaSD0UYpzWNAHLzc1NphsKc3pLTVQ5FMLV8+fPUb58eUPKZFTM+ZwESIAESIAESIAESMD+CVDAsv875AlIgARiSMAWBax7z/zRYs5+xeVJrSCoREgZP2tlSY3ilSoyCUHKSRWllDxDg7G5MpUm8hjFq+TuLqj0UU6k9/FEBl8vpEmZzEjRIJLpwGrVD7WvNEusKOqcpvH2RNa03krEldbeHgVergVC/dSIK/HAXIzSVSKMkD5o1ldn4q4wCgMydLFJAevzzz9H06ZNUbZsWSlC6ZuIKqpVqxZOnTolI7SEICTSCrV3QPg/aRFaXbt2Rffu3U3Gx0bAEoLRtWvXIpiqaxML3ymR8iea8NQS/lVaE9FYI0cq1R5FKp9I6YusCcHq3r17sovwr9IqL4rPmoAlTOU3bNhgteKhMHoXApbwAitXrhwWL14cw99+dicBEiABEiABEiABErBXAhSw7PXmuG8SIIFYE7BJAcvPH83n7lcq+YWJbEBdlJVaAdCQFqiJWmp1Qunx7qRUHTR6YGkilqlnVba0KdGhWnF8UThbrPnFfKBICwwDQh8AL9YAQRd0kVNiNgtpg3pPK0O0leirpg2aiFpaFUKd6JXqByCtYoqeEE0fgSWMx4sXV/y3kidPLisCiu+EaGUt0knb4759+6RgJFIKa9SogalTp8pHovpe5cqVceXKFRm1JVLpRLU/fYuNgCV8uER6o7UWmYAl/K40QU2kQwqPrMiaEOeOHTsmuwhxTkRtaU0TsLJnz45Vq1aZRJ7p56SAlRBvM9cgARIgARIgARIgAdskQAHLNu+FuyIBEohHArYrYO1To6WUSCmRJqcEYamm7iZpdMLk3ZjmJ8QrfcSWedRVcg8XVCieA43KFUKWNCmMdMNDgLAXQOjT9ySuN25Xp3r3BgjzV7yuQtAUM9YAACAASURBVB8DQVeBMJFCZp72pzds14tZWjqkucClRmDp5zEXtFLXBdI2ec8zRX94dEzcozPbmzdvZBqhqFLo4+MjvaJSpEghhR8hAIlWsWJFzJ07V0Zp6VtsBCxRDfDo0aNWtxaZgKU3lI8qAksIcp988gmePHki17IWgZUzZ06ZpmhepVDbIAWs6LxF7EMCJEACJEACJEACSZMABaykea88FQmQQCQEbFHAevD8LZrM3GMiQpkIWIa0QMWsXXpiqcbn0h/KTMAyVhkEPFyd0bJSUfz4ZUGVShjw7jnwegsQdEr5TtOf9CZW4vtIP5tXAtQmCjOkMMopNKN1g+CkCVJqf0OKozKfJtppaYVyvN4wXh+RZWLirghbUvzL2A3wqZRgvwdxJWCJvQ8cONDg7SSinITvlfhHrCGaqMQnqvqZt4QWsBYtWoQBAwbIbYhUx0mTJlnl7efnh88++8zggSX8s7QoNTFIi8CigJVgrywXIgESIAESIAESIAG7I0ABy+6ujBsmARJ4XwK2KGCJM1UcvlkeTRGujAbr6k8IV9PqjCbs+vRAMVIVf9Sxol9a72ToW7skPi2gmnS/ewb4bwMCLwLh/tZRai7sWg/95wieU0aPLS3FTzFdN0/3M4+oUvZsqD6oF7iktqUZ2asRWibPtTUtVS0MAzL2sEsBSxxbb+aeJUsW/P777/jyyy8NdyUqGWbLFjEFVC9giTHCb8tSu3nzpqzkd//+fRnpFNsILGGoXqmSIhKWKFECa9eutfo+nTt3TkaWBQUFyT4nTpyQqZVao4D1vv9W43gSIAESIAESIAESSPoEKGAl/TvmCUmABMwI2KqA1X3RIZy7/VyXMqgKVKoYpOg5qs+VjLiSKo+JYbuMvJLfKX2/KZETv9T9VCEQch14tQYIfRTbkCtlHpOoJ/GFFREqQtSUPmJLG6dPJ9QJXIqdvbKWwUBeJ1aZeGRpKYW6SK2MPwM+FRPs3Y+rCCyJNzwcVapUwcWLFyFM1oXp+7x58+RZqlatCmGebqlNnjwZEydOlI/MPab0/eNKwBLpjsKnS/hyibZp0yYULVrU4t6mTJki9ybOJioMCl5OTlp4HyOwEuxF5UIkQAIkQAIkQAIkYMcEKGDZ8eVx6yRAArEjYKsCVo/fDuLMnedGkUpaXClCjtCChOeViM5S0gPV6oK61EJD9UK1/4c506LvD6WQNW1KxYfq2SzF7yq2zZJxuhSXzFP8zCsK6kUoXeSUotboPLH04yz5YunXMheztLKI4YCTG5B1KOBVIrYnjfG4uBSwxOLCzL1hw4ZS5PH19cXz58+l59X27dulAGSpCUN1kXIomhCSVqxYAS8vrwhd40rAEu+bWFNURxRNRIUJoUpUK9SaqKy4detWmRYp/K+E8fzy5ctRuHBhk30xAivGrxwHkAAJkAAJkAAJkIDDEaCA5XBXzgOTAAnYqoB14NJDDFpxTEpWMo1Qla8MflYi6spJKFmqsKUzcTekFaqikIht+bPXt0bD9pdLgIDT1j2t5DgzzyuD/5UmDr1TXx5VRDOkCSo7leKa2FwEk3Z9lUBz3yztlGFqyqFe0DJPOdTm1iKulGgw49qqwOWcAsg+EUiWO8Fe9rgWsAIDA/H999/LKCytCWFo9erVJpFL+gP++++/aNy4MQICAuTXBQsWlJ89PDxw+PBh/PLLL0iVKhXiSsASa4SEhKB8+fK4c+eOwb9NmM2XLFkSwcHBWLNmDU6dUn3WANSpUwci1dHcgJ4CVoK9qlyIBEiABEiABEiABOyWAAUsu706bpwESCC2BGxVwLr64CXazdunRFgpcVdqtJUataTzttIil7Q0wrAwRWTSorDyZfLF1DZfw9vTHQi5DTybGjNchqKC1iKmIvOlMq8yqAlYZt/r0wRNRC99SqJ5yqKaVhihv24N59RA7vmAq2/MzvweveNawBL3OGLECFltUGs9evRAly5drO5SCFd9+vSx6kUlvK6E51VcClhiMw8ePJApi6J6oLWWMmVK1KtXD23btkX69OkjdKOA9R4vH4eSAAmQAAmQAAmQgIMQoIDlIBfNY5IACRgJ2KqA9SYwBK1m7caTV4Gqj5UmXCnCVJiTVm1QSlUmFQv1VQdF36olcuGXeqr3ld841fdKYyBCqwwKlfVXwySiSnTTRVcZ0gnNo6T0xuu6tD45NjYpgzrBypCqqE9ZNDNxDwsDfKoCWXol6Cu/Z88etGzZEu/evZNRT1pa3ftsQkRN1a1bV07h7OyMDRs2oFixYlFOOX36dIh/NMN0McDT0xP79++XEVj37t1DgwYNZNSUELQOHTpkdc69e/dKDy7RhMikeXFZGiDSG0UKoxC0DG+akxNy5cqFUaNGyagsa61y5cq4evUq8uXLh2XLlpkYvOvHiD4itfLp06fSD0yck40ESIAESIAESIAESMAxCFDAcox75ilJgAR0BGxVwAoMfoefFx/ExXvPdcbsSsqgQbySkUfGSCvF31ytWqiapgsBa0zTL/BF4WxA6EPg+Wwg7E303wGrVQb16X36aCpLlQCVfSr/o39u7ocVScqhpZREEwP5iOmI0vRdGLin+S7657XRnosXL0b//v3l7kQ6oDBJd3V1jdZuhZAmhKRXr15BRD8Jocrd3T1aY9+nk0gpfPjwIYTBu0gTFP5dliKu3mcNjiUBEiABEiABEiABEnBMAhSwHPPeeWoScGgCtipghb4Lw9CVx7D/0gODkbvi3g7V+8po6K6lCir6lamAJcaMaVoWXxTJBgSeBF4uMwZcGXyt1FfA5LMWlaUXnLRKiMbvDF5XFqsM6oQtVYDSUiGdVFcvo1eWPnpL7Mfc48rotSXOpIwPg7ABQ7jmxyXUPVNPLBTZb/fvtxCC2rRpg3/++UeeRYhZ5cqVs/tz8QAkQAIkQAIkQAIkQAIkEFsCFLBiS47jSIAE7JaArQpYAuhvuy5h8Z5LBlFKQjZUHlSqD8r0QZ3nlSIQqd+rFQr/7FUdOdJ7GwWsqG7LpBqgJkKpolKEiCzzqoN683bzMcq+ZGSUwfMqqqgsS881jyt99UGdP5cmpqX8GsiuVMWz53bs2DGZKid8rURFwY0bN8o0QjYSIAESIAESIAESIAEScFQCFLAc9eZ5bhJwYAK2LGDdefoGTab/gzARcSSz7ZSUOyXKShOD1IgrRd1S+mpphao31vKe3yF7Bk3A+l3neWUpBEtvmm5BFNIM0w0RV+8spwdGSBk0F6/MxCcTQcvMO8uS4CWn04lbhnRCVTQTf2QZAPhWtuu3+8qVK6hSpQpCQ0NlxcEhQ4YYfKjs+mDcPAmQAAmQAAmQAAmQAAm8BwEKWO8Bj0NJgATsk4AtC1iC6A8TtuDJywBARlkpwpWWMmjwvNJM3GXwleaLpRili77Le38fdQSWnMzcg0qp+qdP+9MqHiq5jEYRzehvpf9OmU/uVxWoIqYMmkdkmUdn6VIHZcqgPsJL/VmNQDPuCYBrKiDnNCBZTrt6MR8/foxx48bB29sbjx49gjBvF9+JVrx4cSxcuBDp0qWzqzNxsyRAAiRAAiRAAiRAAiQQ1wQoYMU1Uc5HAiRg8wRsXcDae+E+Bv5+yJguqDNnNxe0FMEqTNWYpOwko5SW9/kOOdL7ROKBZRSYNIFKiE5OqqAlfzZEXEX0xIpozK75Z2niUxhkrJc+YiqCobveL0utUoh3hnPLvajpk4b0Q83vSnwvzbB0wWW+1YCsvUXNPpt/B/UbvH79ukV/q1KlSmHJkiVIliyZXZ2HmyUBEiABEiABEiABEiCB+CBAASs+qHJOEiABmyZg6wJWUMg7dFmwFxfuPlNEJJE+qEZWaT9bqjyoPFOisSIIWCY3Ykk4MheprFUHVIUmE2HJvLKguYeVvmKhLvrKEKVlqYqh3mfrnSEaTc2n1KlW6sFcUgHZRwOehW363bO0ORF11atXL1kxMCwsTFbuK1CggEwbzJQpk92dhxsmARIgARIgARIgARIggfggQAErPqhyThIgAZsmYOsCloB34OJ99Ft6UE3FM1YaVMOTTEzetXQ9Jc1QSSlc0UekEOoisMSkEczYtQgmS4KTGKBW+jOJopITGSOr9D8bPLD0KYK6KCxDXwsilvSz0ubWVSOUkVai0qCuQqKltytlBbs1bxf3JqoOvnun8HZxcYG7u7tN/w5xcyRAAiRAAiRAAiRAAiSQ0AQoYCU0ca5HAiSQ6ATsQcASkP7cexm/7jyPt0GhShSW+o+iRWmm56q4ZfCdUgSjFX1rmKUQaj5SOiHLUnVBE5FJE7j0HlVi9YgRU8Js3slQDdFSRJWZSGYQrMz76sQrzeRdileawGXh9UleFMg+AnBNnejvFjdAAiRAAiRAAiRAAiRAAiQQPwQoYMUPV85KAiRgwwTsRcASss3KfZcxddMpg4BlEK906YJS2FKFJ80Da2XfmsiRQY3AerFETUMUHldGjyqDITs0vyt9JcCIkVNiDcN46ZelGsjrjdYNwpq5x5aWeqhEGQnfLjGXnNOSkCajyfRillY9UXuxxPxOQLI8QOafAc+iNvzGcWskQAIkQAIkQAIkQAIkQALvS4AC1vsS5HgSIAG7I2AvApYGdt/5u/j1n3O4fO+5oSqh5nelRGLpqhSqn40C1glACFhaZJXFNEJdSmCM0gzNqwNaS0m0EGVlWEepemiSlig+6/dh7Q3zKgVk7g64Z7G7d5AbJgESIAESIAESIAESIAESiBkBClgx48XeJEACSYCAvQlYAvmbgGAcvvIAe87cxs6zd6TZt+Z3paQXGtMKhai1ql8tJQIrQAhYi3UCkRZlpUVI6cQiq1UHzQ3dIzN81yKt9GmHWjSVlNqMgpX+Z626oIm/lpWXzbsCkK6RIlw5J08CbySPQAIkQAIkQAIkQAIkQAIkEBUBClhREeJzEiCBJEfAHgUsS5dw+8krhBlEJ8XrXGnhyJHRV/kx4DjwfJFBOFLjtdS0PV1FQYvG7EaxS0v1C3fxgVOmAbrtaFFXkb0mmgG7vo/5d5b6mM3pni3JvYs8EAmQAAmQAAmQAAmQAAmQQPQIUMCKHif2IgESSEIEkoqAFa0rkQLWr0bTd+EcZVJVUO97ZZ4CqIhhwkBdFgMURurCKD3bjGgtzU4kQAIkQAIkQAIkQAIkQAIkEFcEKGDFFUnOQwIkYDcEHEvAOiYFLIOnVKQeWJoXllnFQH1lQucUQJoWqrClCVz6PzXzd+110CKrxNxW+nuXt5t3hxslARIgARIgARIgARIgARJIHAIUsBKHO1clARJIRAIOJ2A9WyijqBQRSxWRFNMs5Xu9QKX/OYInlrnZuiZIWfO40tY0N3HXBDJV7Cq8NxHfBi5NAiRAAiRAAiRAAiRAAiRgDwQoYNnDLXGPJEACcUrAoQSst0eBZwvMRCrFAF75H/MKhMr3wghepgwajNa1aoHiuRUTd50pe3h4GJwUl3mz/upYg3gGoPD+OL1fTkYCJEACJEACJEACJEACJJD0CFDASnp3yhORAAlEQcDhBCy/eaoQpYlWEQUoYdIu1CbhjxWOMDhpwpNJdJYmYukrCSrfSZN3VcDSDN9No7vMhCu9Z3sRClj8pSUBEiABEiABEiABEiABEoicAAUsviEkQAIOR8CxBKwjwLP5xnTBCB5Yumgs/TN9lJX2fbhW5tA8JVCrZij+tJCSGGbhO/1bxwgsh/sd5IFJgARIgARIgARIgARIIKYEKGDFlBj7kwAJ2D0BhxOw/OaapQLqTdrFdVoxb7coWFmKwtJHZOlSEj0KKe9KwFmd35aF14cClt3/TvEAJEACJEACJEACJEACJBDfBChgxTdhzk8CJGBzBBxLwPoXeDrHVKSS1lRKFJVI+5M/A3CSgpVezDL3xzJ6ZilphspnY8qg+tyrNJC+BeCRU7n7oFvAvVHA23O6d0H0dVI+M4XQ5n5HuCESIAESIAESIAESIAESsDUCFLBs7Ua4HxIggXgn4FAClr8QsGabmrWrJu3S80pv4i7Ia+bqETywTMUtxeRdH8mlVTR0AfKtA1y8TO8xzB+42QMIUEUsnX5FE/d4f+W5AAmQAAmQAAmQAAmQAAnYPQGbE7Aypk+DNKl9kMIruayC5f82EEFBwXji9wIvX72xe+A8AAmQQOITcCgB6+1h4IkQsCKrHKgJUVLBMuurpQfqUgdN5jKL0krbBkhX3/IlP1sHPJigrqF2cU4BFPw78V8K7oAESIAESIAESIAESIAESMCmCdiMgFW90ueoUuFTlClVDBnSpYZ3Sk+EhYXjjX8AAgKC8ODRU6zasAvzl2zAG/+3Ng2VmyMBErBtAg4lYAn/qSeTgbBgVTiynhaoiFe6FEItpVATrCIYwGv9teisMCDbGCDlp5ZfAP+zwK2uQHiQ8bnnR0Cuqbb9wnB3JEACJEACJEACJEACJEACiU4g0QUsIVYtnjUIZct8iIDAINy7/xi37jzE9Vv3cf3mfeTOmRkf/68gsmfJICOzrt24i6FjF2Lj3/sQGCT+QsZGAiRAAjEj4FACVtB/wKMxCH/nLyE5GaoEaqKT+FYnalkxdFdSBvVjRESX+lmMCVMjt7INA7zLWb6QlzuBe0OA8HeKViYssNK1AtI3idkFsjcJkAAJkAAJkAAJkAAJkIDDEUhUAStXjsxYNHMgPvlfQfz9z2FMmv0HLl25hcdPn5tchJubKwp9kBMfFsuPIb1bwsc7BcZP/x0jJv7qcBfGA5MACbw/AYcSsMJDEX6vDxByT+d3pRestNRAwdWYZqj3uJI/G6KvRB+tr/5nNRrLNS2QbxHg4hPxou6OAl5sUr9XFay8vwHJ8r7/pXIGEiABEiABEiABEiABEiCBJE0g0QSsdGl8sW/zHKRL64uRExZhxoJV0Yqoypc7G1b+NhJ5c2XB6ElLMG7GMumRxUYCJEAC0SXgUAKWgPLmCPB0OhAWaPSf0szaxXNNnDJPGVSrExqN3aVypQpdYWrUlSpcKaqWElaVug6QrjHgkhIIDwXCAoAnfwDPfje9ohSfA9kGAc7Jo3t17EcCJEACJEACJEACJEACJOCgBBJFwErlmxKrfxuNgvlzom33MVi/ZW+M8KdM4YmNf4xH8SL50LXvJCz6c3OMxrMzCZCAYxNwOAFLXPfT+cCrrcrFGyoN6sQnTbyKIGbpzNtFH330leaZZel18sgNuKVX/K5CXwFB103N28WY/BsA19SO/TLy9CRAAiRAAiRAAiRAAiRAAtEikCgC1g/ff40FU/th7V970LrbKAQFh0Rrs/pOIhJr76bZOHL8PJp2GIbnL1/HeA4OIAEScEwCDilghfkD90cAQZd0EVemAlY4hM+VIliFI8yYNqgXvEwErli+P86eQI5RgFeJWE7AYSRAAiRAAiRAAiRAAiRAAo5GIFEErK2rJiNzxnSo8kNX3HvwJNbM61QvjyVzBqNb38mYvWhtrOfhwPgjIKLtPi1RAEFBIdh76CxC372Lv8U4MwlEk4BDCliCTchD4PVe4PlqXTqh8MPSzNhVD6wI6YVGbyylrxrFJdUutWmm7FF9FpFZmXsAnkUBOEfzxtiNBEiABEiABEiABEiABEjA0QkkuIBV5pOi2LF+Ohq2HoQ1f+2OFn83V1e0b14bH+TNjk59JiAsTPkLVMb0afD3qskymqBkhRYIDol5JFe0NgAgeTIPpE/ni0+Kf4DiRfLgzZsAHDx6Hpeu3YHf89eGPYn5MmdMg/o1vsL2Pcdw9uKN6C4RJ/2cnJyQJpU3ihTIiRLFP0DKFMlx9sINHDt9BY+ePI+Wz1icbESdpOKXJTC8b1MpXFWu2xdv/APkkwplP8IHebJi6aodePVaqY7GRgIJRcBhBSwN8OtDSkphqJ9QtaykFKpVBbUKg07C80oVr2JzUS7egE8lIGMnwMklNjNwDAmQAAmQAAmQAAmQAAmQgAMTSHABa3DvlmjTtCYq1OyE85eEJ0rUrUvrehjQsxn+3nEYzTuPQLCacihEpbVLxqBQ/lwymuvC5fgRi4oUyIWOLb7Dh0XzwsXZNGLA79krbN5xBFPnGSPApo7qiNIlCuLps5f4pn4/eUAxrkTxfBARSafPX8fDx8+iPngMe7i5uqB142qoWqEU0qf1NRktmB08dgFjpy7Hk2cvYzhz7LtbE7AObp4CIUwuXrEd0+avkwuk8EqGz0sVQVhYOLbvOQFR+YyNBOKDgMMLWAKqMFb3Pw683A4EnFY+m0RiyU6KuKWPyDJciHnIlZWbcs8DpKoCeH0CJGe1wfh4nzknCZAACZAACZAACZAACTgCgQQXsNYtHYtihfKgZIXmUuDRNyFohISGGr5ydXVBh+Z1MHJgO+w9eBLf1O0W4U4G9mqBzq3ronbjPthz8GSc31mWTGnx27Se8PVOIaOXbt15hCv/3UOa1N74IE8WpE2tlIpfuuofTJ23ToouXVrVQtWKJXHs1BX8MnKhfO6dwhPTRnVEofw5MGLiMqz7+2Cc77VFgypo0+RbiCisl6/88dTvJQICg2XkWNrU3nB2dsbjpy9Qu9mQBIvEsiZgLZneB+nS+WDS7NXYuuuYZPHZJ0UweUQ7+XO5Gj3g/1ZUTGMjgbgnQAHLjGnQXeD1AeDVDiD0KRAeAIS+1Zmua+btSpFB2SylDDq7Ay5eQrJXBKs0tYHk+XWD4v4uOSMJkAAJkAAJkAAJkAAJkIBjEEhwAevO2fVSuCr/XXu8ePnGQDln9kzo27Uxfhk+2yBsycirXs2leNWyy0g8e/4qwq3Et4D1Q/Wy6NmxLgKDQjBk3GLs2HfK8Je6dGl80KdzfZQtXUxGVLX5eTLuPxQpOZBpfEJE0jyf4lvAyp0jExZO+Rlenslw6tx/GDJ+Ce7eV/zFxHd1v/sS7ZpVl+LWivV7MGHWShnpFN/NmoCVzMMdHu5ueKlLH6SAFd+3wfk1AhSwInkXQp4AwXeBoBtAyGNAiFuiBd8GxDMRqeWRXfnOJRXgkhJw9QaSFwRc0wPJ8wHOyZV/2EiABEiABEiABEiABEiABEggjggkuIB1/eRqPH78HJXqdDHxPmr247eYNLIrLl29hUq1O0N8HjmoHfYfOo3KdbpYPa4QsDq1+gG1GvfBvkNCXIrb1rtTPdSpXhaXr91Fu16T8fqN4uGktU9LFMTEoW3h5OyEll0n4PzlWyj1UUHpQfXfzfs4eOw8qpQviWxZ0uHbSqVkxNbeg2dw4cptHDt1GacvGNMokyf3wP+K5MUP35VFCi9P7Dl0Blt3HoHf81dRik0zxnRGyf/lR1h4OH5sPQLXbz2IAGL8kDb4snQx3H3wFO16TpGim0htbFyvEpyFsLVhD16/EVEXShPC17cVP4W7uxu27joqo7e0JgSojOlT4bvKZfDx/z7A9ZsPsfmfwzhz4YZJdJc1Aav2t2Xh6+2FHftOSHGwWoVSyJ0zEyqVU6qS/fr7VlmdcueBU/iiZBEZ7LFlx5EIUXuVy32MrJnT4c79x9i2+3jcXj5nS7IEKGAl2avlwUiABEiABEiABEiABEiABJIogQQXsFYsHIGvyn6MwmV+xCMzH6gm9ati/NBOePz0uTRo333gBFp1GYVnLyJGXmn3MWt8L1QsXxJffd8Rt+8+jPNraly3Ijq1rCGjxVp0nYDb9x6brJHaN6X0bRLpjrsOnMbzF6+loPXFp0Vx6eoddBs4C7PGdEHO7Bki7G35ut0YP3Ol/D5X9owY0qsJCn6gRjaovYODQzHrtw3S7Nxa807phdULB8HXx0tW+usxaLbFrmU+KYzxg1vLKKyW3RSxTYhI21eNlf2FqCXM3rUmRLelM/rAzc0NfYbPx95DZ+Sj7FnTo3+3hvhf0Yh+NkdOXELHvtMN/lXWBKy9GyZKY/wp89bC3z8Q/br+aHHP46avROvGVeHj7YXJc9Zg2WojhxReybFt5RgI76+/dx7FgNG/xfn9c8KkSYACVtK8V56KBEiABEiABEiABEiABEgg6RJIcAGrY4s6GDesE5q0G4oV6yOKMiLyavywTjhx+jIq1u4cKXkh3KxfNlaKXV9UbYunz4wRQnF1ZeU/+xAj+jWDm5srQkJC0W/kr/j3+EUEBQdbjYrSC1gtuo5HhS9LyAisGlXKIG0aH+w+cBrnLt3EiTNXZZVCEeH0z6oxUtAJDAzGlh1HpVBWvfKnEKmBouri13V6ycqHllqBfNkxd3xXiAiuX0b9im2qp5R53wL5smH6qE5SDGrXa6qMAIupgOXq4oJda8chWTIPGSElBKsNWw/hu0ql8UXponLJzf8cwaCxi+TP0RGwxH6/+bok8uXOgsrlP5bj5i/dIiO51m7ej0nD2qFYodx48OgZvvtpgOFY9b4vh587/CD9pWs0GWhI34yru+c8SZcABayke7c8GQmQAAmQAAmQAAmQAAmQQNIkkOAClsAYcH8PTp65gjJVWlmkmi93Ntx/+BT+by0LNtqgyl+Vwh/zh2HvwVOo0ahXvNyQi4szWjaqimb1K8HFxUVGFj18/Bz/nriEU+euYfvu4wgOMRrPi03oBayfOoyW+4rMA6tVo6qyemBgYJCMXhJVCkVL5ZMSS2f2kSbs5y/dRNPO4yyesdRHBeSaQgir1XQw7qjeV+adM2dMgznjuyJj+tQYO205Vm7cG2MBq3jhPJg5prPk0G3ALBw9dVku4+zshAWTfkaRgjnxNiAIX37fXX4fHQFr6cp/ZF9rHlg//VABnVvVlH0atRuNy//dkeuNGdAK5T4rLlM167ceES/3z0mTJgEKWEnzXnkqEiABEiABEiABEiABEiCBpEsgUQSsVb+ORLXKn6FBq0FYu2l3rOgKAePAlnkoVjgvvqjaBifOKEJKfLWPiuXDiL7NkMo3JYSopTWRWth76HycPHfNkDYXEwFLiE7jBrWCSO/7e+cxDBm/2OQIwny9W9vaeBcWhk+rdLJ41iutRgAAIABJREFUPJHCOHZgK5nG+G3D/iZeVfoBIt1x3qTuyJ4lPWYu3IBf/9waYwFLP5+oaig8tIT/lyhM9mPNr9ChxXeSQ8nKHWXXuBCwhD/Xgc1T4erijE3bj2DwuEVIny4VZo/tIiPbRkz+Hes2H4ivq+e8SZAABawkeKk8EgmQAAmQAAmQAAmQAAmQQJImkCgCVtWKZfD7vKG4fPUWKtfpihcvX8cIsoeHO37u0AD9f26GFWt3oEmHoTEaH9vOQjQr/XFh5M+bFeU++xD582SBEHFENb8ZC9dLnyqR7hcTAcs7pSfmTeguDcwfPXkuDdv1zTN5MuTMlkGKQtbEKX0E1g8th+HmbcteYFkypsVsGYGVCqOm/IE1m/bHSsASQlmlch/j85KFkTNbRvj6poCbqyuSJ3ODuJu4FrAEj8E9G6NaxVK4ev2erPYohKv5k3ogODgEnfvNwBmdGX5s75fjHIcABSzHuWuelARIgARIgARIgARIgARIIGkQSBQBS6Dr3KouRg9uj2MnL6Hcd+2l8BOdJgzICxfIha2rpshoqItXbuGTr5tFe3x01ohun6KFcmPayA6yWt/9h35o23MKHjzyi5GAJaKiFk3vJdP6hPBjrYlnjdqPlgKOefsgT1bMm9gdnsk9MGTcEvy1/bDFaQp9kAPTRnWEEM3EXo+fvhIrAWtQj0b4tnJpuYa4NxEdFhQUAnc3N7i7u8aLgCUi4GaN7Qxhat+hzzRZTbFxvYq4duM+GnccI/3J2EggugQoYEWXFPuRAAmQAAmQAAmQAAmQAAmQgG0QSDQBS4pYretiSN9WOHv+P4ybthQbt+6PlIqPdwr06NAAPTs1lP0GjpyLPt0a48KlG2jUdghu3XkQ51RbNvxG+i39e+IyTp//L8L8X5YpjlH9W0A4ibfoNgEXr9yOkYCVMkVyzBzbBQXyZpOG5aKSocUWDhw/c1VGHJm3FJ7JsOa3wVLQO3X2Glr1mGRxirKli2HMgJZSYGrZbSIuXDGtQti+11SDp5WYwFIVQpHqOGVEewipbcny7VizeT/uPXgq16tXoxx+bi9M1eM2hVDMnT6tL2aN6yLTHyfOXo0m9SoiTSpvLFn5D6bOWxvn984JkzYBClhJ+355OhIgARIgARIgARIgARIggaRHIFEFLOGb1Kl1PYwZ3F6KHiKF7ucBU7F64y4T0rmyZ0bDOpXRp3tj6bmktQVLNsrKg727/ITzl27g46+axvkN7ds4Cck83LFi/R6Mm7Eiwvz/K5pXCjqigmDzLuNlVcGYpBCKqn7D+zbD12X/h/1HzqNb/5mxOsP4wW3xZRmlCmCzzuNx7tKNCPPMndANYr937j1Bu15TJG9RXfHgpimy78Axi7BlxxHDOEsCVqeWNdC4bkU8f/EGler2Nlnjx1pfoXvb2vEiYImFhFeYSN0UlRqTJVNSFb+o3k1WQ2QjgZgQoIAVE1rsSwIkQAIkQAIkQAIkQAIkQAKJTyBRBSzt+J9+XASN632D6t98gbSpffA2IBCPnzw30MmZPZP8ecs/h7BsxVZs33ME4wZ3Qv3aFTBp1p9yTIufvsPN20oE1l9bD2D89GV49OTZexMeN6i1rHT39NkrTJu/Dtt2HUPou3dyXh9vL3RtXQvfVvoUb/wD0Kr7JFy7cc+igCXSDKeO6IBihXNj2aodmDx3jWFvDWp9JY3ahSAjvl/z134EBgXL55XKlcBPP1TEpn/+xZ9rTYU9/eEypkuFxTN6yygskVY3esof0hdKREqJSKVmP1ZG3RrlpNn6r39sxazfNhpSFvdtmCQFoT2HzuCXEQulICQiw/p0+RGVviyBkJB36DN8PvYeOvN/9s4CuqpjC8M/EhyCu7tbcXeHUtzd3d3d3aFIkeLFpViR4u7u7u7y1j9553ITEhogJLnJv9d6q3DvOXNmvjnwmq9770HdKkXRqFYJc/Ji2x6TsPfQGTNOnmxp0L9LbSPE+PvsxVvi3fsP39TEPW2KBKbJPMOSgfZr/CV1ItPDy4r9h88aEacQgW8lIIH1rcR0vQiIgAiIgAiIgAiIgAiIgAj4LAFfIbCIgGV6Tk5OyJAmKXp1qm+osNfV/CUbcO3GXfy5dD3uPXiCD/+XRzwJcPyQ9qhRqSjev/9gxMmr12/w7PlLRIoYDitWb0Ol+t1/mG6KJHExfnBz0+eK/Z6evXiFGzfvg6cHxogWwWReMf7dewLte0020sa9DCz27hrWqwFYxsdxmAW1Yv0u/LFwg1n7itl9ESVSOCN/7j94gvOXb4K9rcI5hzKN4tmYnQ3avxZliudAx+aVzHhk8vLVG1NyGCZMSNNkPUAA4Mz566ZnlH3Pse5tqqFUkazm2bfuPDTCKkrksCbzjGEvsDinuRM7m88/fPiI5y9fgVlkFGBWdhxbeZWo2tWchvgtpxDaZ4NRCN65+8hkhZ29eN227NVzByByJGfz+w59pmLLjsM/vMcawP8RkMDyf3uuFYuACIiACIiACIiACIiACDg2AV8jsL4HY+hQITB9bDeUKJwdQ8bMQc9BUxE5YjjUqFQMnVrVwMYte9Gyy8gfzsRKkyIBqpbNh2wZk5tT9uyDpwZu+OcAJv+x2mRhMYb3bmhEFfthURZZkTd7WvTqUB08WZCxdtM+9Bg80/yaWVIt6v+GQnkzIHCgz2WSbE6+YdtB9Bsx9z8blVOSUWL9ViwHEieIAf7ePiitps5eYzKw2HjdimhRwqN/5zpIlTye7TNee/TkJSRJGMvMp1Pf37Ft91HzfcnCWdGgejHTeN6Ke/cfm/LDGhULmY869pmGzTsOoUCu9CYzi0KtcMXONkZbl48wTeeZccaMNCt6tquOYgUyGWnHaN9rCv7Z+bkvWKXSedG2STk8fPQMTTqOwYXLN7/n1dE9/pyABJY/fwG0fBEQAREQAREQAREQAREQAYcj4NACi7R7dKiLzq1qoHqj3li8YrPZAIqbji2qo0eHOlixZruXZGIxyyhoUCckSRALKZPFw8NHT7H30GmTkcWeTPYnCDJzKXDgQEYSvXr1xvZScF4sO8yZOZXJGNu++6jJKrOCWWXM6IobOypSJ49vMs8OHj1nygmZ7eTZCBrEyZw0mDFtEoQLGwbPX7xEi/qlESZ0SHz8+Anbdx9Dt4EzbGWKHJcZZRHChUauLKlx5/5jHDp2zsyd86QHe/36na10ktcHDxYE8WJHRZoUCbHv0BncuH3fZMCFChncTPPNm7cmG40cTCbXp0948eqNjRMz2siD5Yr2Jwjy+gRxoiNDuiQ4f+k6Dh45Z8axonalwmhSp5Qpj2Qj+q+d3OhZXrrO/xGQwPJ/e64Vi4AIiIAIiIAIiIAIiIAIODYBhxdY6VIlxs71U/HPjoMoWqG1q93o0KIaOrSojg1b9qKVF2RiOfJWx40VBe2aVECm9ElM+WDXATOxaftBh1oST6Fc/HsPhHUOiWHjF2HB8n8cav6arO8hIIHle/ZCMxEBERABERABERABERABERABzxBweIHFRU4d2RmVyxXEtNkrjaiygr2g2jerhp4d62L5mu2o7AU9sTwD1bdew0yorq2rmN5YPFGRZX2OECyvzJcjLSqWzoM4saLg6bMXKFyhs6uMMEdYh+boewhIYPmevdBMREAEREAEREAEREAEREAERMAzBPyEwGIvrJH9W6FC6fymF1a/4TNcrb1jy+po37yaMrE880b4wmumDG+NdKkSmplRvg0Y9SfWb9nnC2eqKTkKAQksR9kpzVMEREAEREAEREAEREAEREAEXAj4CYHFhbB31OiBbVC5bEH8PufLTKyxg9qiRuViqNm4D5auUumZI/0B6Nm+BvLnSIt7D58YeXX4+Plv6gnmSGvVXL2HgASW93DWU0RABERABERABERABERABETAqwj4GYFFIGwgPmpAa1T4LT+GjHadiVWuZD7MntwTXfpOxMiJ872Kn8YRARFwQAISWA64aZqyCIiACIiACIiACIiACIiAvybgpwQWd5Kn243s3xqVyhTAnIXr0GvINDx99hJLZw1CrmxpUa/lAMxfusFfb7oWLwL+nYAEln9/A7R+ERABERABERABERABERABRyPg5wQWNyBE8GAYM6gNqpYvjNt3H+LQkTMoWjAr9h86jdLVOuDBoyeOtk+arwiIgBcSkMDyQpgaSgREQAREQAREQAREQAREQAS8gYCfFFjkFipkCFQtVwjVKhRFymTx0W/YDMz8c7XklTe8VHqECPh2AhJYvn2HND8REAEREAEREAEREAEREAERcE3AzwosbbQIiIAIeERAAkvvhgiIgAiIgAiIgAiIgAiIgAg4FgEJLMfaL81WBETACwhIYHkBRA0hAiIgAiIgAiIgAiIgAiIgAt5IQALLG2HrUSIgAr6DgASW79gHzUIEREAEREAEREAEREAEREAEPEtAAsuzpHSdCIiAnyEggeVntlILEQEREAEREAEREAEREAER8CcEJLD8yUZrmSIgAp8JSGDpbRABERABERABERABERABERABxyIggeVY+6XZioAIeAEBCSwvgKghREAEREAEREAEREAEREAERMAbCUhgeSNsPUoERMB3EJDA8h37oFmIgAiIgAiIgAiIgAiIgAiIgGcJSGB5lpSuEwER8DMEJLD8zFZqISIgAiIgAiIgAiIgAiIgAv6EgASWP9loLVMEROAzAQksvQ0iIAIiIAIiIAIiIAIiIAIi4FgEJLAca780WxEQAS8gIIHlBRA1hAiIgAiIgAiIgAiIgAiIgAh4IwEJLG+ErUeJgAj4DgISWL5jHzQLERABERABERABERABERABEfAsAQksz5LSdSIgAn6GgASWn9lKLUQEREAEREAEREAEREAERMCfEJDA8icbrWWKgAh8JiCBpbdBBERABERABERABERABERABByLgASWY+2XZisCIuAFBCSwvACihhABERABERABERABERABERABbyQggeWNsPUoERAB30FAAst37INmIQIiIAIiIAIiIAIiIAIiIAKeJSCB5VlSuk4ERMDPEJDA8jNbqYWIgAiIgAiIgAiIgAiIgAj4EwI+IrDChA6B1MniI2CggHj16g32HzmLT58+eYg8QIAASJ4kDiKEC2OuOXP+Gu7ce+QtWxQpgjPqVSuGTdsOYv/hs/j4lXl69YS47oxpEyN96kSYs3gTnr945dWP0Hgi4C8JSGD5y23XokVABERABERABERABERABByYgI8IrNxZU2Ngt7pwcgps0NVpORzHTl30EGPUyOExaWhLxIgW0Vwzc/7fGD99ubdgb1SzBOpWLYprN++hTsthePzkuXlu6mTxEC1qBFy6ehtnL1z/KXOJGN4Za+cPMGOvXL8bfYbP/inP0aAi4N8ISGD5tx3XekVABERABERABERABERABBydgK8QWMvW7sSAUfM8zMLKnikFRvZtDGYkebfAKpIvI9o2KYdDR8+jx+BZeP3mrZnDjNHtkTJZXPy9ZT+6DpzxU94DrnfZrF4IHiwo+o2Yh227j/6U52hQEfBvBCSw/NuOa70iIAIiIAIiIAIiIAIiIAKOTsBXCKzLV2+jQbtRePT4mbs8Jw9tjfRpEtq+884MLD6UGWD3Hz7B+/cfbHPwDoHFhwUMGADOoUPi0f8zvxz9hdP8RcA3EJDA8g27oDmIgAiIgAiIgAiIgAiIgAiIgOcJ+KjAChw4MP6fVIU6rYbj2MkvywhjRI2IZX/0NitinyxmJbkVWPwsZIhgKJg7PfLlSGdKE7fsOIyN2w4a8fPx40cbkSQJYyF7ppS4dv0utu85hnSpEqJM8Rzm/n2HzmDhim148fJzr6lE8WMiZ+aUuH7rPjZtP4h8OdIjVoxIKF8qFyKGD4MLl27i760HceHyTWzdecT2HI6XJ1saFMiVHiFDBsO/e09i47YDuHXnoav5hAoZHOVK5sK7d++xecchFMydAbmypsLqv/fgr7U7UL18QbOeNRv34Pbdh2b8ovkymfLFf/ccw/1HT1GyYBbkyZ4GV67fxYJl/+DsxeuuZBvvCRw4EBIniIkyxXIgdszI2LbrGNZu3oeUSeMgQdwY2L3/BE6ever5N0dXioADE5DAcuDN09RFQAREQAREQAREQAREQAT8JQEfFViUNm/fvUdY51A4dfYqajQb/MUm9OtcG4XzZsCDh0+MyAkTOuQXAqtQnl/QvF5pkyllHyz3m7dkMybOXGn7uEH14qhfvZjJqLp955EpA7SPi5dvoXarYXj58rX5mHKrc8vKOHbqEpp3HodZYzsiTqzIX8zz373H0arbRPM5xVXTOqUQJ3ZUuBQ9ugTXu2TVDkyft9aWURUtSgSsmN0H795/wJMnzxExgrO5dte+U2jRdRz2/T3e/H7QmAVYsmqb+fXi6T0RJ2ZknLt0w/wziJOT7RmUfDP+XI8ps1fjwwcXccfm9y3q/4ai+TPayjD5+cPHz4xADOcc2twzYcYKf/mHQIv2fwQksPzfnmvFIiACIiACIiACIiACIiACjk3AxwXWtHnr0KJeaUOxWuOBOGPXEJ1CavKwVogeNQKGjV+ExrVLmkwp+wyshHFj4M8pXcz9z56/wtpN+8wJhaWKZEGcmFHM50PGLsCilS7yxxJY/DVlz+Wrd7Buy35kSsfT/hIbobNqw270HurSMN2twMqSPhlixoyMSr/mQcQIYXDu4g2s/+cALl25hW27jprspgmDWyJKpLB48+Yt1m0+gGs376JA7l+QOH4MUxI4espSc6ogwxJY/PXHj5/w4uVr3Lv/GKs27MHsRRu+KrB4z8tXr83piJev3UGpwlmNDOQYFev3s53UWL5kLnRoXtGs99adB9i++zgSxI2OVMnjIWgQF/klgeXYf5A1+28jIIH1bbx0tQiIgAiIgAiIgAiIgAiIgAj4NAEfFVgfPn5E+bp9MWV4a0SLEh5/rfkXA0f/aWvmnjdHWgzsWhfPXrxEo3ajMXNsBwQL6mQTWCyLG9StHnJnS40HD5+ieZdxRigxwoYJid4daiJbphR4+uwlajUfYk4StAQWZdH435dj9uKN5nkca/aEzkgYN5rpxVWoQid3BRblkBE+HjRxb1SzJOpWLWJOK+zSfzr2HT5jrmcj9m5tq6JQ7l/w4sVrVKjfF3fvP7YJLM5h0YptGDFpsS1zivd9LQOL5Ystuo434zAypkuCEX0aIVjQIEZgXbxyy2Rc8SRDZmEdOnYebXtOMqKPkeWXZOjTqRbCOYeSwPLpP4l6vrcSkMDyVtx6mAiIgAiIgAiIgAiIgAiIgAj8MAEfFVicfZnavZE3e1q0aVwWV6/fRcN2o0x5H2PqiDZImzIB9h46bcr3dqwcZcoIrQwsZmZNG9EGkSKGxbDxC7Fg+VZXQCKED4OVs/siYMCA6DX0D6zbvM8msCizytTq5er6No3KonKZfPj46RMyF272XQJr4+LBcA4TCjv3nUDLrhNcjR8+bGisXzjIfDZmyjLMXrzBJrCev3iFuq2HgyWM9vE1gTV93jpX5ZHhw4XB/MldEC5saPQYNNP0uIobOyoWTetuhuzcdxo2bj9kGz6IU2BMHNoKqZPHk8D64T9KGsCRCEhgOdJuaa4iIAIiIAIiIAIiIAIiIAIiAPiowGI53W+1eiFCOGeMHdgUIYIHRetuE7Fz/0nEjxMNf07uakruug2cgfVb9mP32rEIFCigTWDxGmZlOTkFQsc+00wJn32EDhUCs8Z2QMzokTBk3AIsXrntqwKrQbXiqF+j2A8JrD3rxyFggACYNnctJs9a9cU7tm7+QFCsbd5+CB37TvNSgcWG8Iun9zDZVr2H/mHKEEsXzY6urauYeeQq1RqvXr+VwNKffH9PQALL378CAiACIiACIiACIiACIiACIuBgBHxYYAXEb7V6mpP5/pzUBQnjx8D5izdQudEADOvV0JQGPnn6AgXKdTBY964f5+oUwkTxY5im6iy/a9drMnbtP+kKf8jgwTBxaEskSxwbwycuxvy/tvxUgcVMrz3rxpo5DB7rIszcxoIp3RA/bjQcP30ZtVsM/ekCq27lImhUu6RhlOn/WWXWnJSB5WB/WjVdLyMggeVlKDWQCIiACIiACIiACIiACIiACHgLAV8jsPJkT4OhPRuYRXfqOw2tGpYxpwoOHb8IC5f/467AYsP06aPagZlHHfpM/SIDyzl0SMyZ2BlRI4fD0PELsXD51p8qsDjJ7StGIliwIHBb3mft5ualQ8HMsB17jqN194k/XWDlzpYGw3q5cM39axu8fPXG9mJJYHnLnzE9xBcSkMDyhZuiKYmACIiACIiACIiACIiACIjAVwj4GoHFOa6e2x+RI4UF+0HxtEFmXzVoOxKXrt52V2BFDO9sMqzixoqCKX+sxtQ5a1wtNUa0iPhrZi9TEshTBddu2vvTBRZL+Hj64f4jZ9GkwxhbQ3pOLHHCWJg7waU5/MQZKzD9z/U/XWBR4m1cMsQ8c9CY+ViyarsElv5K8PcEJLD8/SsgACIgAiIgAiIgAiIgAiIgAg5GwFcJrKpl86NlgzIIEMCFIrOU2veegvfvP7grsNgPq0PTCihTIid4OmCPwbNsWViUSAO61EHihDHx+MkLVGk0APcePPYygTV5aCukT5MI23cfM3P88OGjmWP5krnQrml502tq1OSlWLb2X/M5G7sP7l4Pv6RJhGfPX6J4la7mmmhRImDF7D5G2v1oE3f3emDx2cxCS5IgpjmhsU2Pibh99xGIuGLpvGhat5Q5tXDGn+sxYcYKB3t9NV0R+D4CEljfx013iYAIiIAIiIAIiIAIiIAIiIBPEfBVAit5kjgYO6AZwoQOYXh06T8dG7YesLFx2wOLX7Bcb8vSYQgcOJARXTzJ8PHTF0iSMKbJ4mK07zUF/+w8Yn7doHpx1K9eDO6dQvgtTdw7Na+EsiVz4sPHj7hy9Q4OHjtvGsWzPHDS0JZgfy5KrZu37+PBw2dIGD86QoYIbuYweOznTCjvEFj5c6bDgK51TUP812/e4s7dh3B2Do3QoYIjUMCAZk4SWD71R1DP9QkCElg+QV3PFAEREAEREAEREAEREAEREIHvJ+AjAitX1tQY1I1C5XMTdy6BGVWThrRE2lQJTZZQqerdXZXgWSf8uZUt8eJEQ/sm5fFLmsRG0lhx594j04tq6eodts8aVC+G+tWL49qNeyhTu5crcvWqFkPDmsXdPYXw6MlLaNFlnMn0YqRKFg8j+jZC2DChzO93HziFll0n4OPHj4gVPTKa1imFXFlTwckpsO0Z9x8+xZKV2zBn8SYjkhiuBFar4bh45ZarOe37e7z5/YBRf+KvNS7rWPx7D8SJFQW/z12LSXYnHYYKGQyLf+9pTjnsOXgW1mzaa64PEsQJ1crmR81KhcxJj1ZcvXHX9A8LHzY0ps9bj4kzlYH1/X+UdKcjEZDAcqTd0lxFQAREQAREQAREQAREQAREAPARgcVsqeDBXETKi5ev8PHjJ9te8HN+/+HDB1cNx3kBs5sYb9++w5u371ztX5Aggc2YaVMkQKyYkbHv4Blcu3nXlOnxBD4rggZxMkLn08ePeP5/GWV9x8/5PYNlfgwKKJbYMZvq1es3trECBAhg5E+OjCkQIkRw7D5wEjdu37c9J3CgQAgePAgSx4+JpIli4/ipS7hw5ZYRYPbzoXBzycz6hBcv3xgBZh/Wmim83r17b75iZhnln1sOnBO/4z9fv36Dd/8vveQ9Zr4hgpk+XAnjxcC2nUcQMFBAjOrbGHFjR0XPwX9gzaY9+jMhAv6CgASWv9hmLVIEREAEREAEREAEREAERMAPEfARgeWH+DnEUiisyhTPgUUrttoa4nPiObOkMn3CnIIERrNOY7H/8FmHWI8mKQI/SkAC60cJ6n4REAEREAEREAEREAEREAER8F4CEljey9tHnjZleGukS5UQDx4+xebth7B9zwlkz5QCJQtnMSWFFy7fRMN2o8ypjwoR8A8EJLD8wy5rjSIgAiIgAiIgAiIgAiIgAn6JgASWX9pND9aSLmVCdGlVBXFjR/niirMXbmD89OXYue+EPyChJYqACwEJLL0JIiACIiACIiACIiACIiACIuBYBCSwHGu/vnu2PNkxZrRIKFU4K9KnTmT6dW3deRSbdxzC02cu/b4UIuBfCEhg+Zed1jpFQAREQAREQAREQAREQAT8CgEJLL+yk1qHCIiApwlIYHkalS4UAREQAREQAREQAREQAREQAV9BQALLV2yDJiECIuCdBCSwvJO2niUCIiACIiACIiACIiACIiACP05AAuvHGWoEERABByMggeVgG6bpioAIiIAIiIAIiIAIiIAI+HsCElj+/hUQABHwfwQksPzfnmvFIiACIiACIiACIiACIiACjk1AAsux90+zFwER+A4CEljfAU23iIAIiIAIiIAIiIAIiIAIiIAPEpDA8kH4erQIiIDPEJDA8hnueqoIiIAIiIAIiIAIiIAIiIAIfC8BCazvJaf7REAEHJaABJbDbp0mLgIiIAIiIAIiIAIiIAIi4E8JSGD5043XskXAPxOQwPLPu6+1i4AIiIAIiIAIiIAIiIAIOCIBCSxH3DXNWQRE4IcISGD9ED7dLAIiIAIiIAIiIAIiIAIiIALeTkACy9uR64EiIAI+TUACy6d3QM8XAREQAREQAREQAREQAREQgW8jIIH1bbx0tQiIgB8gIIHlBzZRSxABERABERABERABERABEfBXBCSw/NV2a7EiIAIkIIGl90AEREAEREAEREAEREAEREAEHIuABJZj7ZdmKwIi4AUEJLC8AKKGEAEREAEREAEREAEREAEREAFvJCCB5Y2w9SgREAHfQUACy3fsg2YhAiIgAiIgAiIgAiIgAiIgAp4lIIHlWVK6TgREwM8QkMDyM1uphYiACIiACIiACIiACIiACPgTAhJY/mSjtUwREIHPBCRbgJI7AAAgAElEQVSw9DaIgAiIgAiIgAiIgAiIgAiIgGMRkMByrP3SbEVABLyAgASWF0DUECIgAiIgAiIgAiIgAiIgAiLgjQQksLwRth4lAiLgOwhIYPmOfdAsREAEREAEREAEREAEREAERMCzBCSwPEtK14mACPgZAhJYfmYrtRAREAEREAEREAEREAEREAF/QkACy59stJYpAiLwmYAElt4GERABERABERABERABERABEXAsAhJYjrVfmq0IiIAXEJDA8gKIGkIEREAEREAEREAEREAEREAEvJGABJY3wtajREAEfAcBCSzfsQ+ahQiIgAiIgAiIgAiIgAiIgAh4loAElmdJ6ToREAE/Q0ACy89spRYiAiIgAiIgAiIgAiIgAiLgTwhIYPmTjdYyRUAEPhOQwNLbIAIiIAIiIAIiIAIiIAIiIAKORUACy7H2S7MVARHwAgK+QWB9+PDBrCRgwIAIECDAF6v6+PEjPn36ZL7jNe6F2zF4Pe/7WtiP59H1Hs3pW9G/f//erCFw4MDurtEaz1qH/fj/NQf37vkaK/u1BgoU6KtL+daxOdi7d+8Mez6Hc+cz/us5HvHxzD66ZeXRvns0B17PdVprtebr0bvG51nr46//a23243r07pKZNRbH+9qzv/Xd0/UiIAIiIAIiIAIiIAJ+j4AElt/bU61IBETgPwj4tMB68uQJRo4ciWfPnqF+/fpImjSpqxlTYCxatAg7duxAnDhx0LZt2y9WREHQpUsXvHr1CmXKlEGePHlw+vRpTJgw4aurz5s3L3777Tdzzfbt281z3MqQ4MGDw9nZGbw2Xbp0CBIkyHe9U506dcL9+/dRu3ZtZM+e3d0xOP+OHTu6+o4yI1iwYEiQIAFy5syJJEmSuPr+4cOHGDt2LB48eGD7nPKD98SOHRuZM2c287YXIrdu3cLAgQMRNGhQDB061MP13LlzB0OGDDFCyj5Sp05t1uFW3Fy7dg2LFy827B8/fmzuCxMmDMKGDWvmkC9fPsSKFeuL53EN/fr1w5s3b9CsWTMkS5bMds2GDRuwcuVKTzOvUqUKli9fjhcvXri6hyyaNm0K7qcVfLf27duH1atX4/r163j06JH5ivPl9cWLF0fGjBndffb8+fOxc+dOw5lz5vXuBdfWu3dvhAoVCv3793d1ye3btzFnzhzz7Js3bxqxSV5RokRB1qxZzXscMmRIT69dF4qACIiACIiACIiACPgfAg4hsPgvuEGDOCFAwAAIZJet8P7DB3z86JJx8O7de/+za1qpCIjADxHwaYH19OlTVKtWDYcPHzZSpWrVqq7W8/btWyNLKJgoj06dOgUnJydX11AAUI5QgKxYsQJp0qQxwosyg8GsJ/eibt266Nq1q/lq9uzZtl9b41Nw8H9WBk306NGNHKFg+JY4cuQISpYsaW6pWLEiBg8e7G6GDSVeihQpbHPm3/f8O90+26d9+/ZGxFhCimuvVKkSrl69asvusubMf1IyNWrUCB06dLBlfp09exYFChQwcoQ8PYrLly+jdOnSeP78ObgPfCalV5EiRTB8+HAbV87vwIEDIE+KK87byjTjHKzsqoYNG9oY2z+TAqlx48bmI86TQsiKcePGYcSIEa6myP2wsrvcZiqRLedGocf3wfx/ZtCgyJAhA6ZMmWJEEoPf9e3bF3/88YeNN1lZ7Kw9Jzsyd/vOUUjOmzfP3OvRuvjdhQsXjPyMGDEiDh48aFsH58f3k/ztM9TIkrwY69evdyXzvuWd07UiIAIiIAIiIAIiIAJ+m4CvFlghggdD8ULZkSVDCiROGBtBnJzw4YNLiQbj7r1HCBrUCc5hQuLvLXtx6OhZHDx6Bs9fvPTbu6bViYAI/BABnxZYFAWtW7fGsmXLjIhhxo99UIgw84iZWgxmDFEC2cemTZtM9lbkyJGxceNGIyksgRUiRAiMHz/eXUbMmkmUKJH5zhJY/D0zZhiUNnz+oUOHzPw4B0qHQYMGeZo5hUTZsmWN4GEwA4lZRZyX27AXWGPGjEGECBGMPGJ2zt9//409e/YY6cTMsty5c5vbLYHF7C5KFWZqvXz5EsyeIpctW7YYQTJgwABUrlzZ3ONZgcVrKVOYVcUMN449depUkwlnX+rJzLVu3bqZDDjKw/LlyyN+/PgIHTq04XfixAkjbygoI0WK5GrZ3P8SJUqYaxiJEyc2fKzxL126hIsXL7q6h0Lr2LFj+PXXX41gs4+UKVOa9+Dff/817wSlJyUVP7fPGCOPadOmGdHG51PKxYgRw6yXMpDv0apVq8zQFGp8R+3DXmBxL2fOnIksWbJ8safuCSzuD+d+5swZw4lCkuvm/5/fu3cP+/fvN9l6w4YN+2q5qadfQl0oAiIgAiIgAiIgAiLg5wj4SoEVKFBA1K/+K4b1a4GDh8+ga79JOHryPJ48fe7uBkSKENZc37FVdazfvAfVGvUyGVmW6PJzu6YFiYAI/BABnxZYnPyff/5pSufixYuHrVu3ulrPunXr0KBBAyMfKDsomChm7GP06NEm6yZ//vwmy4bZMpbACh8+vMnu+q+wBBZl2dy5c11dzr8/R40aZUod3Zvj18Zmhg3lCO9jaRpFDgUUpYnbsBdYlBgUMVYwU61cuXKmPI9CjHNhWAKL93LeFDVWcN41atQwTJk1xpI3svkWgcWxKHOYZZQ8eXKwdM6+rI2ZTBQ3zChiydvEiRO/qext7969Zl2pUqUy+3vy5EmzDu6DR8GMPL4DLCdt2bKlu5dZnFjit3btWlcsKSQpkBjNmzc347jN5OJcKFO5HgYFon15qyWwrPeSe0vO4cKFczUf9wQWxRUz8l6/fo3NmzcjYcKE//V66nsREAEREAEREAEREAERcEXA1wmsX4vmQsUyBfDm9VssWLYJW7bvN/+SnTZlIiROFMdMPm7sqOafl6/exr37j3Dk+DncuHUPwYMFReWyhVCxdH5cvHITsxesxc59x7TlIiACIuCKgG8QWMyysTKKWCrIDB8rWF64bds2k71DScU+Rfyhn0LICpZ5rVmzBk2aNDEijNk7Ximw+BxmBbFEjtldlCyeDfanYtYYpROlRa1atczcOZ7bflpfE1h8HmUKOTBr559//jFT+JrA4vfM/GKfL4o8MmIZpFcJLAoyihwKSPYJ4/ju9bjyiBUlUefOnY0Uo4hiBhRLCNm3i+V5bsv2rHF+RGAxI457QH6UZkuWLDF9rNwL9tEqVqwY+H4WLFjQZGxZmWGWwGI2HveYfcVatGiBNm3auBrKPYHF94cCjXOhVPzWklTPvnu6TgREQAREQAREQAREwO8S8FUCq1HtMujXpQFyl2yCE6cvmn9pTpcqMSaN6IhUyRN8dReWrdqKKg172rKuWjeujM6ta6BYhTbYf9jjfid+d2u1MhEQAY8I+AaBxbnlyJHDlG716NED9erVM9NlVg+bfzP4Qz8FFbNcWEJGIWQFG17fuHED06dPN72dGF4tsNiLiRk52bJlM8LFM0FBUaFCBTDLiFliFEm8n9KJY/DX9vFfAotZYFw7M3Yo8Rj/JbAoSFiaSYHFTKRo0aJ5mcDifAsXLmzm0LNnTyP4viVYLse5sURyxowZRuwVLVrU9Kdi2aJ9M3f7cX9EYLFxOveB7wuz2OzfI/fmznlQSsWMGdOUkVpZcZbAmjx5shFcVlnp7t27jSS0wj2BxXUzw4ylhJRpLFl17/TNb2Gpa0VABERABERABERABPwXAV8hsCJHDIdRA1ojePCg6NZ/Ei5duYWCeTKhW7vaSJksvqd35NWrNybrau7i9dh78CRKFMqBFg3Ko+egqdi1/7inx9GFIiACfpuAbxFYFDMUNOyhxEbpzDZlRg+zq5iRs3DhQtMTiNkubPTOTCTG+fPnTQN3BrONrB5LlsDiqXOUI26DwoAnzFkN3q0SQp6wZ/XAYoYQ+16xCTszgtjjiXOktPFMMNOJQoZBscG5de/eHbNmzTLiolevXq5K1/6rhJD9t44ePWp6gFmnB35NYFmnGlK8xI0b15QCMuvLqzKwKBwpgyhk2Dw/bdq0nsFiu4ZlgJSVzLjj/Wy2zv1m3y721LJEpttBf0RgsXyP0oysebqhR5LMeib3ntlSFIALFiyw9UyzBBbfR5auslSTZZ9sws93xSoldE9g2Zek8jm8n6KTUstqMv9NIHWxCIiACIiACIiACIiAvyPgKwRWzw51ESGsM1p3H2WatM8c1x3lS+dz98Qqz+zQw0dPTebVkRPnULJwDkwf2xXFKrbBvkP+LxMrY9okyJ45Ba5cu4u/1uzwDD5dIwJ+noBvEVjHjx835VpsXM5MIZZV8YTAOXPmmCbXLA1kKSFLCikd2BuLEsoSX5RRLAezwv4UQvvm3fYbSlFCscOwBBbHtO+HRNnATKr06dMbacY+SJ7NlmETcZ4kV7NmTXPiHcNqOM+G6BR19s3c3RNYfDZFUatWrUwzefafYskeRR/DPYHFOfNzShZy4O/ZZNwSfV4lsDgf7gd58CRB+9JPz/zBYVN5Nlu372XF/lcsK3S7n/bj/YjA4pyrV69uyhP/+usv2/57NF8KUqtRPN9FS9JZAsvK4mJmF8sM2auM31mnKnp0CiH3hKKUctU6UZFZXn369LHtk2cY6hoREAEREAEREAEREAH/ScDHBdYvaZJi8shOKFLOpSntsD4tTA+sH4l6LQZg175jpg8Wg3216lUvhcZth+D6rbvfNXT2TCmQNUNy3LzzAEtWbsebt+9cjZM9U0pkzZAMl6/dwdJV2/Hx/yclWhfVrlQYEcKHwfWb9zB/mUsfF++Igd3qoUCudHjw8AmKVOpiHhk7RmSUK5nzC0HIHxofPn6O5y9eYdf+k7hx6753TPGnPsMpcCCUKZETsaK7nAK2YNlWXLv59XcgVbJ4KJQnAwIEAB4/eYFpc9f81DlqcO8n4FsEFk9doyhgNg9LASmMKBqspudshM5sKH7OP58sJWTPJPbOouBheR8za6ywBBYzrDzKmKJAsErCLIHFTBurgTifwywmSgiWibFBOsvJrDLFr+3W5cuXkStXLtNfif2WrLIynsqXN29eUx7ptlm5vcCiWOPzeZogS+oYESNGNJlblCNWfyhLYPGffAbXy35M1j3MamID9nbt2tmm61UCi6WRlHOUcJRxFDCeDZaEck8p5Cgmrcy5u3fvmnJSNjhnBp59U3rb/4f8QBP3bxVY3PcyZcqYBvMUWMzQY7gVWNwryiyWikaNGtXIVPYD80hgcYx3796ZHlgUaXxHHj58aMbOlCmTOTWSJxMqREAEREAEREAEREAERMA9Aj4qsFInT4hV84ehbbcxWLRis8m8qvBbfk//l373FrTm750oW6uzq6/4X8pH9m+J6FEjoUKdrt/1JvxaJBu6tamKew+eoFbzIbh7/7GrcWaP74SkiWLh6vW7aNxh9Bff71wzGk6BA2Pj9kPo3Hfad83he25yT2BlTp8UYwY09TDDjf9lnIJuyqxVmL3Y9cln3zMHn7yHjf3HDWqO1Mldml8fPHIeDdu7nGTmUXRrXRW/FnXp0/Po8TMUqtDJJ5egZ/8EAr5FYFFY8LRB/iDP0jqWbWXPnt38HciG55YcYaNslsQxK4sZPDz57v3796a0jifBWWEJLJZyUYK5F/aZWZbAojzhr63g3wHsVdSlSxdT5kZx5JnG2+yN1L9/fzN/+ywrjsvxOC6zqFjGZoW9wLKfL7PRKFFYUscMNfsMMUtgUeLZB0sn2d+JvCjp7O/xKoHFrDnuAflTNtk31v+vV5XZdeT8NT7MGGPmmNv4kQysixcvmnI9NmjnfvJUy68FWfFdZGnfokWLbBlbbgUWx6DspPykhGOjfb637LVFkUn56NF7SPnF9//33383Auzt27emnJJijz3LFCIgAiIgAiIgAiIgAiLgloCPCqzeHesjVMjgaNtjDGLHiIJmDcqb+b148Qq37z5EhdL5kS1TKuzcewwLl21CgngxXM3/zZt3uH7zLjKlT4Yq5Vz6s7TrMRbjpy3+YqeTJoyDpbMHoWbTvth30POnaVkD5cicEoN71EeggAFRsUE/XLl2x/aMkCGCYePiIQgcOBA4p4btR+HE6cu271MmjYcZY1wyAdr0mITtu73vZMSvCSyWa67esAf3Hz4xc+MPe9yPfDnSImIEZ7CnWNeBM7x1vl79R9StwHr95i2qNByAazfvufuooEGcsG7BQMOBIYHl1TviO8bzLQKLQqdfv36YOnUqypUrZ8qo2LSdGTgsT7PK9qxT9ShyWG7VvHlzc83SpUtdnern1U3cKTwyZMhgxAf7T7EPlUdBocNMKQoI/l3iXgkjs28Yq1atsmX12AssKyuJIsPq0+Xe8yyBxdI1npLHHkzsc+XRCX4cw6sE1rVr12xZczwhsXjx4p56qZl9xn5ep06dMmzs5RoH4LtAhqFDhzZ83IqxHxFYfHapUqXAuU+ZMsVkgX0trD5sVp8uq7eVewKL41DqsUcbswVZNsr+VlmyZPmqwLKez3XzFM7WrVubTMT/es88BVsXiYAIiIAIiIAIiIAI+EkCPiqwdq6birI1O+HWnQeu4CaMFwuli+XCbyVyI32aJDh7/ipmL1iHdZt34fipi7Zro0QKj+oViqJg3kzIlc2lkS5PI6zcoIe7m/Vb8dzmutZdR3/zZsaIFhEzRrdHuLChMHjsAixeuc02RsVfc6Nd0wq23/cZPgcr1++y/b5pnV9Rq1IhU46RrXhLfPz46Zuf/703fE1gvXr9Fo3aj8bpc5+zGPgDc+yYkTGmfxNEjxoRJ85cMRlnjhpuBRZ/WBo+YTEWLHe/jLN53V9Ro2Ih23IlsBx1578+b98isDhL9qRiSRqzYtjnihkyw4cPR/nyLkKfQbHBLBdmtpQoUcIIDmbUsITQXoR4tcDis1mKSOnCrKPBgwd7CJZlf5QWDJaHuZeZxDJAzpF9stiwnH/f/NcphO498L9OIXTvHq8SWMwcogA6ffq0OS2SmXGe6Q/GhvYs92SpHbOwrDJOa67Pnz832WZkTQnEUlL7+BGBxfeHGVXHjh0zcsm9Bv/2z6KI5ImPLOvjQQLWO+aRwCITnsjIRv3MnKN8pfj8WgaW2z1iTzBme/G95sEFChEQAREQAREQAREQARFwS8DHBFarhpWQKUNy1GzcBzFjRMal//er4gSTJ4mHNQtHgILKPv5avRW1m/U1WU4MCpb1S0YjYbzPPUju3H2IUlXa4+jJ87ZbUySJhyBBg+DMuSvYtGwcshZ2Oa7+W4I/oCyY0hXx4kTDsZOXUKfV53/BHj+4BTKlS4Lnz18hVKjgOH7qEmq3dPme9w3pWR95sqXBmfPXUK3JINtjwzmHRv5cacH+WbFjRsHTZy9w7NQlk/G079AZV9Nr27g8IkcMi72HTiNM6JDImSUlggVxQt3WI/Dq9RsEDBgApYtmR9YMKRAvTlQjBfccOIXM6ZMhS4ZkrnpgWSWE7gks66GdW1ZGmeI58PLla+Qu3dZ8PKBLXQQKFBBLVm1DjsypkPmXpLh24x7a9ZpsvucPOcULZELhvBkQLUoEPHn6AodPXMD6LfvN2u0jfNjQyJM9DXJnS4PY0SPh5es3OHfxBjZtO4TdB07i3fsPtsuZ4VY4TwZkzZgCcWNHwbv373Hh0i1s23UUm3ccMo3/PQp7gcUfsjjHA0fOoVH7UV/cEjpkcCyf3RehQwXHi5evwee6J7DSpEhgmKZPmRCRIoY12YK7D5zCxm0HcfP2ZxmbN3taFMmXERev3MKRExfALL50qRKZveI+r9mwx/Cxj7DOoVAwd3okTxwHqZLHM+/6pau3sW7zPuzY8+VJmnFiRUHRfBmRIW0SOIcJgROnr2DH3uOIEjEcUiePjy3/Hjb3WsHMstzZUqNg7l+MqHz46JmZ25Ydh3HcLmuQ+1uyUBaTnXfq7FUUypsBsaJHxKAxC7DnoOMfhuCbBBb7Q7HHFYMlWyylYp+lMGHC2PaN4pXlgxRX/JyZR8zEomiwD68WWCw9Y5NuZk6x/I19pTwKqzyOjcgpItxmGPE+lsaxVJI9ldiUnb2gHE1gcR3sfcUsOAabr1M8fS37i9dx/1g6yRMMeaqjW+nFv5+YjceMMvfKCH9EYPH5+/btMxKS7xf7VrH3mtssOf5HFspH9jxjOSb30ep/xTE8Elj8jj3IWPJplQ8ym86zAovvNxvjMxOrbt26RoYpREAEREAEREAEREAERMAtAR8TWEd3zEHfIdNN76v61X7FnMXrjIhhRAzvjM0rxiNR/Fiu5nvl2m0UKd8Kl6/ecvlhL2QILJ87GNkyuTSYteLi5RvIW6op7t5/ZD4qnC8z4sWJgWmzl2PO5F4YOWE+9hw48c1vQ4+21VCycFa8f/8BWYu1sM116sg2iBktIoaOX4j2TSuYJsTMtKJYcQ4d0vRgYn+siTNXYvq8deY+SpKhPRsgfepEX/wgwzK3ZWv+xfCJn0shWaLoHCYk3r59DyenQOaed+/em/5M7Fc1bmAzpEmZwJQ4WsFML86FpY32Tdw9I7Ca1C6F2pULm7KWTIWbmSH3/T3e/PPlqzcIETyo+fX1W/fxW82e5hm/j2yDJAljG8llH5RBA0bNw9//HLB9PGFwC2RIm/iLtb999x6DxyzAivU7zbVOToExrGcDI4zc/kBMybV+8370HvaHh3tpL7AoYpIljm2YFCrfCU+evXB1X9H8mdCrfQ3TgH/fwdPImjH5FwKLTPg/jmsf7NlPcdmm5yQ8fvLcfNWsbmnUrMgf/t+bdyFYsCCu7rn/4AladJ2Acxevm88pzMYOaGbEldt4+/Yd+gybg/X/7Ld95Rw6BP6c3NVINPvg+8k1BHEKjMUrt2Pw2Pm2r0f2bYxsGZN/wfLps5do22sSDh9zEWoNqpdA/epFTbag9Q7x84Gj52Pp6u0e8naUL3yTwCIzZmAxE4vBTCs2OncbVn8p63P7MjzrM68SWPxzz2yd9u3bm4wgBnsZUUi4F+x/xOwrZvq4Ny/rHp5uV7JkSdP7iDKHZZCOKLD4Z6JRo0bmVEiKK8qXli1bgs3wrWDPL/YNY8YTpQ73lYKIPaKSJEniLkc2W2emFMsneS+ztaz4UYHFPWWW0+LFi01/MvYJo3hj6SWDkpKZWZRrzAajHKUktY+vCSxex55szBC0wl5gUcry9EVmFto3vue7wIMF5s+fb2saz/5ZChEQAREQAREQAREQARFwS8BHBFaCeDGxffUkFC3f2vzAs3nFBJSo1Ab7Dn3O7GjRoAIG92rqar7syVStUS+s2eAiNxg1KhY1pxjaB68rX7sLNm1z+WG/XrVSKJQvs2ng3rl1TdNXq2Tlz6dTefa1SJE0LmaOaW8ur9tqOI6evIgMaRJjZL/Gpl9Ug7ajMHVEazCLpvew2Vj1927Eix0VU0e0MZlZ7XpOtmXRtGlUDpXL5DVyY/XGvdi+6xjChAmBYvmZTZPU/It8+95TbNdbAovPZqbSkeMXTEP5OYs3In+u9OjZrrrJ7Pl37wls23XMSC6emmjJim8RWOwDNbBbXeTMkgoPHz9D4f83MbcEFn9423/kHM5fuoEr1+7irzU70LBGcdStWhSv37zDinU7TUYShRvXmDh+TBw+fgFNO40xAq50kWzo2qaq4bhk1Q7s3n/SCLGq5fIjcYKYRpgUr9LNZP9kTJvENJynkNm49aA5HfHD+w8oVSSbkVo8MbFl1/E4evKSu9toL7DG/b7cCKXQoUJg1/5TaNFlnKt7LEG59+BpvH33ATkyp3AlsNKmTIDR/ZsYebV993Hs3HcC5y/dRP6c6fBb8ewIFjQIug+aact4sgQWH3Lpym1s3XXE7B1POWSTeI4zYtIS/Ll0s5kHmRfIlR4UmBRPu/adNO8ShVnCeNENlyIVu+DRk2cIHCiQeddSJotnJNPS1Ttw4MhZ876VLpbdZOsxLIFF4dm8XmlUL1/AyLTFK7Zh14FT5roaFQogZvRIJkuuRrMh5jmWwOIY12/eN5l/z569NKWxV25830menv1z5h3X+TaBxV5WrVq1Mktn9ov1a3sWltzgZ8zC2r9/vzntzz4sgcXPmM3lXrB8j/2GGFYTd0oYq3E2959Cipk6DJaEMcuI2TUeBU+qY8N3Cin2T/IoODZlD+dZqFAh0/uLsoQ9rBhck9vSOvfG+pESQo7HHlvuBddKsUaRw2wgSjtmiVFCsZSyWLFiNvl75coVUwbJkyEZ3As2Mef1PFmPDeYphXii34gRIzB27FhkzZoVCxYs+Cof9tQ6ceKE6TfGflBWfE1gca84ZwoizpuynydVMpOLJXmWpGKZJ8tAmUHGuTk7OyNhwoTmPyScO3fO9LDiOpid1aFDhy+E5X8JLO4vM/EsAWsvsFhqyfeO/99GztxnPpcnVzKjkO80M8T4rrmXvecdfy/oGSIgAiIgAiIgAiIgAr6bgI8IrF/SJMXaRSMROXFRNK9XHkP6NMOW7QdQrGIbG630qZPg33VTvqC3e/9xk11lRYqk8bF/84wvrhsyZg56DppqPh/YrTFKFs2JlNmroEi+LGhav9x3CSz+y/a2FSOMqJg+dx0mzloJ63TCg0fPoXmX8WjfpLwRCNt2H0PbHpNA6TVjdDs8ff4SzTuNw6lzVxE1UjhTqkbhxNKtLgOmm6wuRpjQITC6X1OkTBbXlAA26+wiWSyB9f7DB5Su0RN37rlklzEmD2uN9KkT4siJi2jdfSKePX9pPmfGz9ThbUz2l2cFFk9K5GmLBfP8AqfAgbBk1XYMGuOSwWMJLIqOeq1HGNFinhPUCQumdUf0KBHw59ItGDHpc+ZYll+SYVS/JggQMADK1+6NqzfvYcLglsiYLrGZZ4FyHY0wYTiHCYUNiwaZH2p6D52NVRt22/i6Pd2RombS0FamJxlF39adR939k2YvsEZMXIwPHz+aLDmKw27i1pYAACAASURBVIr1+7lq5r5t+QgEDx4U46Ytxy9pEyNrhmSuBFbeHGlByXXv/mOzL9ZJlMw+mz66PZIlimX2s0Mfl/fOElgspWTzfgpPBrnyQAAKwrWb9qHHYJcTx5bN6mPWs/rvXRg6YbHJfmOEDxfGNJYPAJj9ZSkhs+hG9W9iRNa0OWswbe5aWyklM7KWTO9hBJklsGLFiIzJw1ohUgRnc/3UOWtt3JMlio0/xnc0z+rUdxo2bT9kE1jMnuN6KPX8Uvg2gXXz5k3kzZvX7AmbbPPXboOSgn2yrHKrAQMGfHHNnj17XPXOcm/PmDlE2cRgGV/Hji57bx/MJGL/I/YxorSJHj26h1KB/xGC5XTse9SsWTMjPr4WzOyipKGkYJYRT1FMmjSpueXw4cOuspg8Goe8KHiYvTVv3jwkT578P1/PCxcuuMvV/kZmBrHMkfN788YlI9gK9r0aP368q1JBNrdnqRylEMst7YMii+x69OiBGjVqgALSbW8z9ybNEyl5PYUOf21lvVkCi/vFckT7IIds2bIZAWUfPPGRMsm+HJXiinNm/zQru866J1WqVOZ9oGhzrySSayEfcmAmnXvBbDPez2AGGTOvGORDThs3bjTyzAo2ree7RrGaOXNmd5v//+fm6gIREAEREAEREAEREAF/QcBHBFbxQtnBDKvC5VqiV4d66NiquumBlbVwfTx56lJ+xVg0YwBKFM7+xUbESFESDx89tX0+Y2w3VCpb0NV123ceRqFyLREjWiScP+AiVIJHz40sv6TA2sWjEC6e6+s9u9uTh7dG+lQJsWHrAXQdMANThrVG2lQJTFN3NndnVhAF1IXLN02fpXIlcqFx7ZKmD1KdlsNMb6ValQqjaZ1SRjgUqdgJj5+6LmWrV7UoGtYsYUrRCpZ3+eHSElh7D51B045jXE13w6IhCOscEjPnr8f46Stcffe1Ju78AfL167dG6jAo1CjnrN4szBbq3O93XLnucuKiJbCs7DLrQexntW7hIB6jhQkzVoBztCJwoICYOKQlggRxMv2T2D+rXMlc6Njc5TSzSTNXYf+RMzh38SZevnqNUCGDmR9sn794bX6Yp6gZ3b+pyTL6Y+EG7Dl4GmcvXLOVMfJa3udRHyx7gTV6ylIsXrUdK/7oazKbRk1ZgnlLXLKf6lUrZrLImB1QqnoP9OtUG+lSJ3S3Bxb5sKl/xPBhzGmFnEOT2iWRIG50HDt1GXVaumRNWALr5Fk2wh9qE1L8rk/HmmDJ4qFj59Gg7UhXexYkSGDEjx3NCL2gQZ2MpOrftbb5Z88hs7Bm417Tn6xTi0pGIhar3NVkotnHspm9ECN6JJvAYv+tob0aAJ+APsNmf5FFNWlISyPv5izeBHKyMrDYf4uiz5Jpnv1z4tuv820Cy7fz0vz+mwAzyZi5xj8rlDI8ue+/+mL996g/94pHjx4ZCci/9ygSrdMGf+ZTKa942iAFITPDKLncO7HyZ85BY4uACIiACIiACIiACDgmAR8RWLWrlEDalInQsstIzJrQAxVK5zf0OvWegNGTP5dXtGtWFX27NPiCbL3mAzB3yXrb5zUrFcOkEa6zCDZs2YtSVdujWIFsWPLHQHNtjqINjZA4tHUWkmWphJu373/zrlUpkw+tG5XFybNX0aLzOKxbONCIhboth+HoqUtIGDc6JhhhExhNOo5B99ZVkTB+DFMmxwwtBuUNJY69oLKfSMFc6TGgW10jbTIXcek/9TWBtXvtWNN3qv+oeaZ3ln38l8ByC4DPfPzkGab/ud70rCIvKzwSWDkypcDIfk3MZexj9v6966bqlDwBAsD0q+o2aIbpa8VeTJRT/GGPPbUeP32O46cuY+LMVbhx657tmaFCBMPwPo1MrzAGr2VG05lz1zBuxnJcueYi1zwKe4E15Y/V+H3uWnRpVRm/Fs1uk0csmfx70WBTxrhu0z50HzwTs8Z2RPIksb8QWGFDh0S3dtWQMmlcBA8aBIGdAiMAAiBw4IBG/HlWYPXuUBPFCmQyPafqtx1hpk+BWLJQVtSqXAhhQoU075DpaRYggMnaYlgCq1r5/GhZvwxu3LqPyo0GmBJW+3ArsPLlSGuyvpjTxcb8bk/CpDjk/LfuPIJ2vaZIYH3z3wy6QQREQAREQAREQAREQAREQARE4GcS8BGBxQys4gWzoUn7oa4E1qr1/6Jyve5gmRwjWeK4WLtwJKJE/twYl9InWrLirpjwxLsNS8eAvbWsWP33TlSq1w0zxnVHuVIu5Thpc1VH0CBBsH3NJCRIX9b0WPrWyJs9jZFLlAAsz6pTpYhpBl6grEvZDDOYJg5tiRRJ4qL7oBno2b6GkQ9Dxy/CwuX/mGuYOVO2RE7cu/8Exaq4lPLYB08sNNkyADIWcikV+ZrA2rNunJEfvYbMMv207ONrAosn3HXq97vpy8R4/+G9kUNu5YY1nkcCi5lEzCiiHOHph+/ffT5B0H4uO/edxPCJi8xH7I9VrVx+pEoW3/R34smKlFzkOm76cixasc12K8UKOf+SOjESxotmsqf4Gec5nteu3PaFwLFuthdY0+asxeQ/VpkT+AZ0rWOytn6t0QPpUiU082d/rhLVuhmxOHt8J1N6aX8KIbOuWK4ZJVJYPHv+CsdPXzK8TFP/DMkRIXyYHxJY5UvmQrum5c3aLl65bXqMMTMCCIAi+TKYTK/PAqsAWtb/DZev3UGNpoPAEyXt4wuBlTMdBnevZ7Lt7tx9ZCtZdfvusVRw8LgFEljf+heDrhcBERABERABERABERABERABEfipBHxMYFklhB2aVUPvLvXNIq/fvIt8vzbDtRsuWTXs/bPxr7FGZFmxdOU/aNBmkMl6ssoNKW/mTu6N0sVz265r33McZv25GusWjUL6NC4nPrGEsECujFg0a8B3lxCyIfmEIS1MI3D2lWK/ITbQHjj6T9uzu7ethlKFs5osoSSJYpksozyl25lSN4ZVQsjyvZylXJop20fF0nnQrkl5I/KyFnU57fBrAmvrsuEIESKYKf1iCZh9fE1gUXo0aj8ap89d9dRL5pHAihwpHFbP7WeEUNuek3D6/DV3x2OWEDOo7IOCKXy40OYUR2ZGRY8a0UiWGk0H4+wFl9P5rOC14ZxDmevbNamAFEnjgBKudY+J2GdXtuj2Hp4CmTp5PFgCixlgGxYNNqf+7T90BrfvP0KJglmwffcx00+L63BPYJUtnhMdW1TEoyfP0aH3FJw6dw08HZAxcQhPVUzy3QIreLAg2LRkqMlO+3fvcfQeNseW/cbP/vlrmCnDtAQWZVf7ZhXw8NEzlK3T25Sm2odbgZUra2oM7VnflGZyj67d/JzlZn8f30mOpRJCT/2R0EUiIAIiIAIiIAIiIAIiIAIiIALeRMBHBBabuI8e2AY5ijVA5l9S4J+VE2zLbdRmMGbN/3yKVZsmldG/WyPz/bv371G8YltEjRweqZMnRPeBn5u8syxxwjCXEwLZoLtmkz64/+Ax/l7q0i/q6InzyFyQp7xlxKSRHZHwl3LfhTiIU2DMm9wVcWJGNvezT1Pd1sNN+ZsV6VIlwpThLieKMW7deYhS1bvbfv9LmsSYNLSl+T37Ea38e7ftO5YC9ulYC4Xy/ILLV2+jfL2+5ruvCax5k7ogUfwYpuSv5+BZtgw2Nhcf1bcJMv+S1NNN3L8GxSOBxd5JGxYOMoKFPbhmLfjb1TDMTAodMrjJFmI54fjBLczvx01bhs3/HrZdS4mz5a/hphxy6pw1YMnfiN6NEDd2VKzfst9kT1kRPWoETB7aClGjhEevIX9g9cY97k7dvQwsXkgB1OH/fbgo1riGYeMXYcH/s+TcE1htGpVF5TL5zGl/rbtPMuWSDIowSs3kieOY96C2J3pguS0hTBQvBuZNdsnGa9JhDPYd/txHLEnCWOb0S+6nJbByZ0tjMqoobxu2G41Dx87Z1k+ZufT3HogQwdnWA8ucoNivCYIFD2p4rd3kOlMvQrgwJnvwxv/LaiWwvuuvB90kAiIgAiIgAiIgAiIgAiIgAiLwkwj4iMCKEzMqdq6fimxF6iNq5AiuBNb6zXtQutrnU6zSpUpsrmWwN1LR8q1Nv6sgTk7IWbyhDQt/+H50aYP5PTOzipRrjcplC6FFw/LmM6snVufWNREyeHB0GzDpu5GO7NMYObKkNPfzJLoGbUbgxu0HtvEoFZhNQ1nDsE6Csy5g9tikYS2RJkUCU4LGrB8282bUrFAI9WsUA/syUeBQ5DC+JrBqVChoGoa/efsWY6Ysw6KVLse6F82fEV1bVzVjefYUwq9B8UhgUTj161wbBXKlx+MnL4yU277nmBkqXuxoGNKjnskQ4wl6Fy7dxMq5/cxpeA8fP0OdFkNt7HJkSYURvRuaEroxU//C7EUbYbG+9+AJmnceZ5rjM9iDiplVlEdd+k83TfXdC48EFpmsnNMX4cKGNrd9/PQJhcp3NPvBcE9gWZlxbJjeY/Ask7HF8ds0LocShTKbrECWY1Zp5HI63NeauLsVWCGCB8PW5cPNfSdOXzanFpIPSxN7dagBNspn9BsxF8vX7TSyifNnOeWjx89NFhrvowQc2quh6S9m/+7xpEgeQEDJxvnzZElKQQZLcMcOaGpOk+w7Yq5plC+B9bU/CfpOBERABERABERABERABERABETAuwn4iMDiIg9smYm5i/7GiAnzTJlf7uzpbGsvWbkdNm7dZ/v9X7MHo0j+LFizYRdadBpuO1WwUr3uWL7mc6+kOZN6oWypvNi28xCqN+6DK0f+MmOwJIyZXYuWb8K6RaPRrOMwnDjt+sjzbwFfOG9G9Otcy9yya/9JtO052WR92UffTrVQJF9GUz7I7yk77IMZRFOHtwbL7zi/23ceIliwIKaPEuPU2aum1IvihvE1gRUreiTT6Dxe7Kjm2mfPXppsHWYV8fkUQj9TYPGZzPAZ2K0uIoZ3NnNg1lkAAJEjh0PAAAFw++5Dcwoj18PsITayp8R68/Ydrl6/a070Cxs2tLnn6o27poSQpWzJk8TB8F4NETGCsykt5LVhQocAM4YY7OfUout4c8qje+GRwCKTTs0rokyJnOa25et2od+IObYh3BNY6VImxMh+jY00Y3DPyZljWZxZ0le4Yifz/bcILF4/uHt95M2Z1jBgZt+7dx/MKYQMa/xRk5di7hKXMtE82dOgZ7vqRpTyHXrw8Kkpr+ScrLCXpwniRDMnOkaJHM70D7tz75G5LEqkcCaTi3vWsusEXLp6SwLL3bdJH4qACIiACIiACIiACIiACIiACPgUAR8TWKWL5UbZUnlQt8UAc1LgzPHdEDRoEMNh0KjZ6D1kmo1Jq0YVMbBHE7TpOtr0nGIWFePfPUdR4LfmtuvSpkqMXeunokPP8bh89SYWzuhvvmMj7sQZXTKxFs0YgKIVvuw79S0bwFK5bStGmBPiZi/ciDHTXESZfTBzZnT/JqbnEzOHjp265Op7Sg+KJzZ5T5UsrpEgDIqLpat2mMwrZuBYwZ5NzLbZvf8UmncZ98XzokUJjy6tqiBz+mSmGTqDTcDPX7yBIvkz4d6DxyhWuav5nNk5YwY0NY3PTQ8sD3pWuX2IlYHVfdAsrNvsugSN18aJGQXN6/0K9luy1kPxQhnXa+gfpiSSjd4ZKZPGQ6921RArZhQjT6z4Z+cRjJ78F67//yRCjsNyzV4dapqm6uZUvv8LnT0Hz2DkpMUeyitex4yksQObI02K+Jg6ew2mzF5te5bVLJ8SrVjlLnj67KXtuz/GdUSyxLGNFCpSqbP5nPNMnyqRyYii9LHiwOGzuH3vEYoXzGxEU77f2uP5y1doUqsUalcpjJNnrqBWi6HmOyt6ta9hrj949BwathtlPuYpiK0blkXpYtlt17FMceDo+ahfrShixYiMOYs2YvTUz+9b/pzp0K1NVVu2H8XUinU7kTNLKiNDF6/chsFjP5/sGTdWVHRqUdGc6mi/RwePnseQ8Qtw8bKLCKxXtSga1iyBS1dvo2L9fq7m/sXL54Af9OvaEG2bVnHAmWvKIiACIiACIiACIiACIiACIuA/CfiYwCLuXeunoU7zfrh95wHWLxmNVMkTmF04cvwcildqa7KGGEkTx8Wi6f2RMX9trF4wAtkypTKfX71+BwXLtMDV67fN76NECo8Fv/dDgTLNMXN8D5Qtmcd83rzDcEybswKzxvfA0+cv0LyjS6mWbwmWszGDiRk3J85eNo3JvzeYjZM6eXycOnvFNBv3iWDGVYqkcc3JgmwQ/+DRUw+n4bL2hKa/2cmzV8Am4h4FT+FLnSyeaXR++vxVcxKgTwRFVtyYUUzD+UPHz3/RQP1H58Ssq7QpEpj1cZ0enQrJ5/AwgWfPX4JiiqcjHjlxAR8+fsLmJUNNRt/Emaswfd7aL6bEXm7JEsVG8BBBcfrcNXPyon8KCSz/tNtaqwiIgAiIgAiIgAiIgAiIgF8g4KMCq0Lp/CheKLtpuF6qaE4jnxiUGTmKNjSN1xnhnEOjUa0y2Lhtr2nKzv4/DJZNla/dBWs37jK/p+AoWyIvNvyzB+sWj0KalImw58BJlKrSDkkTxjGfZSpQB+cvuT7dzi9spNbg/wgUL5QVFUrmRLeBM2ynCjKrqn3TCihfKpcB0qDtSFt/Nf9HyOMVS2DpbRABERABERABERABERABERABxyLgowIrfLgw2Lx8PLr0nYh1m3ajYc3SGNyrqcmw6TdsBvqPmOmKZscW1dGrUz1Xn034fQnadnc5adCKrBlTYfPycbh24w7YT+vCpRuYOroLNmzeg3lLXZ+Q51jbpdmKgAsB9rlaMLUbYseIbETuv3uP48iJi8iWMQXSp05oygO37TyGtr2+/7ACv8xaAssv767WJgIiIAIiIAIiIAIiIAIi4BcJ+KjAItAUSeNjeN8WqNm0D54/f4Xu7WqjZaOKpiwqc4E6pqG0FRcPLkW0qBFc7cOLF6+QrUgDnL1w1fb5ynnDkDRxHHTtNwkLl21CgxqlUbFMAeQv3cwv7qHW5E8JxIoRCR2aVkCWDMm/ILBu8z4MGbfQ/DlSfElAAktvhQiIgAiIgAiIgAiIgAiIgAg4FgEfF1jE1aROWdSoVBTFKrbBw0dP0bNDPVQqUwCN2w7BP/8eNESzZUyFTcu/bF7O7/6YvxYN2wwy14ULGwYb/xqDyvV64MLl66hTpSRaNKyAinW74eQZ143UHWurNFsRcJ8AT2QsnDcDUiSJgyvX72L7nmOmcb7CYwISWHo7REAEREAEREAEREAEREAERMCxCPgKgcVG3v26NjJN3NkP6869h4gVIwrKl8qPSTOX4uWr15gxrruRWu7FwSNnjPx68vQ5MqRNivsPn+Dy1VuoX/1XlC6eG807DsPFKzcda2c0WxEQgZ9GQALrp6HVwCIgAiIgAiIgAiIgAiIgAiLwUwj4CoFlraxe9VLo3ak+Bo+ejYnTl5pm7owY0SJh3pQ+iBcnOoIHDwqetMd4/sLlFDr2uGrafigOHDltfh8/TnR0b18XyRLHQe1m/XDq7OWfAk+DioAIOCYBnxZYbz4AFx99cEx4mrUI/GQC8cMFQtBAP/khGl4EREAEREAEREAERMDhCPgqgUV6aVMlRp9O9fEJnzBs7Dxs333YQI0dIwrChAkF59AhESGCs/nswYMn5p8nzlzC4yfPEDpUCPRoXwd5sv+COYvWYfaCtXj4+KnDbYomLAIi8HMJ+LTAuvjoI35d+OznLlKji4CDEvirfCgkDC+D5aDbp2mLgAiIgAiIgAiIwE8j4OsElrXSsiXzonenerh5+wH2HjiBFeu349bt+3j9+i0+fvyET58+IXToEObyCOGd0ahWGRTOlxmHj51F9wFTcPTk+Z8GTQOLgAg4NgEJLMfeP83ebxOQwPLb+6vViYAIiIAIiIAIiMD3EvC1AosLChUyBOLEioo82dMhR5a0JsMqTOiQCBLECZ8+fcTTZy4nrP2754gpEzx28oLpffX6zdvv5aH7REAE/AEBCSx/sMlaosMSkMBy2K3TxEVABERABERABETgpxLw1QLrp65cg4uACPhbAhJY/nbrtXAHICCB5QCbpCmKgAiIgAiIgAiIgA8QkMDyAeh6pAiIgM8SkMDyWf56ugh8jYAElt4PERABERABERABERAB9whIYOm9EAER8HcEfFpg+TvgWrAIiIAIiIAIiIAIiIAIiIAI/CABCawfBKjbRUAEHI+ABJbj7ZlmLAIiIAIiIAIiIAIiIAIi4L8JSGD57/3X6kXAXxKQwPKX265Fi4AIiIAIiIAIiIAIiIAIODABCSwH3jxNXQRE4PsISGB9HzfdJQIiIAIiIAIiIAIiIAIiIAI+RUACy6fI67kiIAI+RkACy8fQ68EiIAIiIAIiIAIiIAIiIAIi8F0EJLC+C5tuEgERcGQCEliOvHuauwiIgAiIgAiIgAiIgAiIgH8kIIHlH3ddaxYBf05AAsufvwBavgiIgAiIgAiIgAiIgAiIgMMRkMByuC3ThEVABH6UgATWjxLU/SIgAiIgAiIgAiIgAiIgAiLgvQQksLyXt54mAiLgCwhIYPmCTdAUREAEREAEREAEREAEREAEROAbCEhgfQMsXSoCIuA3CEhg+Y191CpEQAREQAREQAREQAREQAT8DwEJLP+z11qpCIjA/wlIYOlVEAEREAEREAEREAEREAEREAHHIiCB5Vj7pdmKgAh4AQEJLC+AqCFEQAREQAREQAREQAREQAREwBsJSGB5I2w9SgREwHcQkMDyHfugWYiACIiACIiACIiACIiACIiAZwlIYHmWlK4TARHwMwQksPzMVmohIiACIiACIiACIiACIiAC/oSABJY/2WgtUwRE4DMBCSy9DSIgAiIgAiIgAiIgAiIgAiLgWAR8RGDlzJIK1crlx9kL1zHu9+V48/adt1ELHzY0YkSLiCBOgfHw8XNcvX4HHz5+9JLnOzkFRtniOVEwd3rEjB4Jb9+9R98Rc7D34GkvGf9nD1Ikb0b8Vjw7rl6/iwGj5+HTp5/9RI0vAj5DQALLZ7jrqSIgAiIgAiIgAiIgAiIgAiLwvQR8RGCVLZETnVpUwtGTl9Ciyzi8ePn6e+fv6fuiRAqHIT0aIFaMSHByCoQAAQLgw4ePuP/gCboNnIFT5656eiyPLmzTqBwqls6DgAED2C5p030Stu859sNje8cATWqXQu3KhY1YrNZkED7JYHkHdj3DBwhIYPkAdD1SBERABERABERABERABERABH6AgL8QWJnSJUXfTrUQPlxoI60ePXmGjx8/gdlYgQMHMqJm/PQV+GPhhu+WNpEihMXkYa2MIDt34QbGT1+Op89f4vylG3j1+i16ta8BSrQNWw9g6eodP7BlP+9WCayfx1Yj+y4CEli+az80GxEQAREQAREQAREQAREQARH4LwJ+XmAFDBgQW/4ahhDBg+LNm3do2XU8Lly+hU/4BKfAgTGoez2kSRHflDEWqdgZz1+8+i9m7n6fLHFsjBvUHGFChUDr7hOxY89xV9dtXDQEzs4hsXrDHvQa+sd3PeNn3ySB9bMJa3zfQkACy7fshOYhAiIgAiIgAiIgAiIgAiIgAp4j4CsEVtgwoUzmEiXSxSu38OTpC9vso0eJgGDBguDZ81e49+Cxq1WxjxX7WbHS7dadB+720sqVJTWG92lo7uvafzr+3nrA1RiJ4sXAnImdQNG1Yv1u9B0+29X3YUKHQIK40REyeDDcf/TU9Mx6+eqN7RqWC8aIGhEpk8VDl1aVEThQIPQeOhtnL17Hw0dPESpkcAQJ4oTfR7U1v96++zjG/b7MrPHBo6eunsWMsLixoiJoMCc8fPQMl6/dNtLNvWCRYpKEsRAxgjNev3mHm7fu4+adB1+MF9Y5lMkEY6mkfUSOGNbM59Hj5yYjjfFfAiucc2gkiBcNwYIGwa07D3Hl+h28f//B1bjBgwVFtCjhTf+v6zfvufqOjOPGimI+u3T1tqtsNzLi2iOGD4N379+b8W/evm8y5RQi4NUEJLC8mqjGEwEREAEREAEREAEREAEREIGfS8BHBRb7Tj199gKJE8RCiGBB8fHjR9MPa8rsNfhrzQ7Tp2pM/6ZIniSOkUHl6/V1RSNtygQY1quhETjdBk7H4eMXvqDFxuR9O9cyn1es388IMrexbFZvI4KOHr+IJp3G2L4uXzIXalYqhNChQiBwoIBGyjx++sIIqsPHz5vrIkcMh5F9GyNGtAgIESIYKJa4BpYqrvx7NwrkTIvgwYMhdKjgZj2UM69evcWR4xfQpuckM0agQIEwrGcDJE0cGyGDB0VAPuvte1y5dhvtek35QnRRXPXtWBMRI4RF0CBOpgn969dvsGbTXtMU35JK3VpXRd4cafHPv4fRd8RcV8se2acxUqeIj392HkHf4XPMdx4JrECBAqJ+teL4tWhWhAwRHPz969dv8fjpc/Qc8geOn7pkG7t4gUxo07g8Xrx4hd9q9XLVIJ/7PHFICwCfULnhANy97yIkKSkHdquLWDEiI0iQwEZscfzdB0+ZuZGFQgS8koAEllfS1FgiIAIiIAIiIAIiIAIiIAIi8PMJ+KjAspbHsr37D58iUgRnhAwRzGQddR0wHVt3HUX9asXQoEZxc2n1JoNw+vw1G5WRfZsgR+YUuHbjLmq1GIqnz15+QSxalAj4H3vnAV1V0UXhnR6S0Hsv0qQjCIJIkSooCKKCICi9CQrSEUGK9A4CIr8gWEBAqfYuSG/Se+81vf9rT7gvLyGBIElIXvas5TLl3rkz39yXx/3eOWe+WTwSzk5OuHDxGgZ88HGMPuJD/Por9dHzzaZG1ly7ftuML0f2TMic0ccIlilzV2DZt78hU8b0eP/dtiiQN6eRWGxnL1w1Aub7X7ehRpXS8PZOh8cK5TZRXpwro4v27DuOcTO/NFFQ00Z1R/kyjxnxxCgqRpuVLJrfXPvmC6o9EQAAIABJREFULT+07T4Ol67eMH0z2mvupD7IlSOLiQTj3Bn1xAg2CrIVa/7EpDnLEBYeYaRQvZpP4Kc/dmDw6E9iTPXjKX1BAfjLnzsxcNQC87u4BBb77Ne9JV5pVsscc+XaLcOjQN7sZl6UdUPH/g9/b4lKmWzRuAYGv90aAQFBePal/kbkWa1UiUJYNLO/+faFtu/h4uXryJ8nO+ZPeQfZsmRESEgozl28ZtaqQL6ccHIC/t68D0PGfhIj6i3pXxa6gqMTkMBy9BXW/ERABERABERABERABERABByNwCMXWBu37sf4mV8a4cN0wHHDOyFH1ky4fOUGmrQZZtIHf/tmMlycnbHup80YMSGqfhSLr/+5eqr5/9of/sHISTFT/6yFogR5vWV9vNX5RfMjSq4Tpy7gf198j7+37otzPRlxtfbz0SYqbPP2A/hwxpfw8wtEunQeYFRT1UolTUpeh7cnGwlDCVW2VGGMG9bJSKd+78/FgcOnERQcAqY5Ulyt/N8IMB3xx993mPkyqigwKBhNG1bHsL5tEBIaitGTl2DrrsMm0oupdgum9jVSasKsZfh6zR9mrCs/HWGkD6PVeg2aicPHzsHF1QUtn38GnV9vbOTaoFEL8MtfuxJFYDVtWM2Mj+P4feMeTJz1lSlKz4L0LFqfPr2XkWwvdxxlIrIeVGA1qV8V77/7ukmp7D9yPk6dvWyi2F587ml0e+MFBAUHo3PfqThkJy4d7UWo+SQ/AQms5GeuK4qACIiACIiACIiACIiACIjAwxB4pAKLkUhvvDUB129G1WBia1KvKkYMaGe+7jN0DjZu3Yfxwzvj2RoVcOT4OXR9dxp8/QLwQsNqGN6vrRE5Ld4YiXMXr8bLwc3VBZ3bNUHzxjWQKYO37Tg/vwAsXfkLKNH2Hzpl+/n777bD8w2qmuih17qNjZF2yPS9OeN7Gxk1bd5KLF3xszmvXKkimPlhL5NqyDH+e/BkjPHEV8S9dvXyqPV0edy+7Y9p81fa6kKxJtSCKX3B4vBz/rfaCLcyJQvhk2nvgnW3xs34AivWxtzN8Kv5w1C4UG4sWfYjZiz45qEFFqUho7hqP10eZ85fQYs3RsSYU4G8ObB07mCTxjh+5ldYsfbPBxZYbV6qi7e7tjA1sbr3n25Ll8yXJzu6tX8e6TzdzVxOnbn0MPe5zhWBGAQksHRDiIAIiIAIiIAIiIAIiIAIiEDqIvBIBdae/SfQe8gsk4ZmNUYr/bl6iil8/tGna7Dw8+9Q/cnSmDqqG4JDwtBz4AzsPXDCRDvVrVkRh46cQdue4+5LnTImd66sqF+zItq2rIcMdiKLUVlzF63B8tVRUU4bvhxrUtr2Hz6N9r3Gx+ib8mjxrIGmgPq2XYfQfUBUzaz/KrCszhlJRklXpmRhk6ro7upqalRlzOCNj/63Bgu/+M7IoUF9WiMkJAT1Xh5ootbsW66cWUyxeUYzXb1+66EFFgvAz53QB0UK5cbUuSvw+cpfYlzPw8MNs8f1Nrs4zlr4LRZ9+cMDCyzOecyQDiZK7fTZy/j1790mNZPjZzSbE5xMHS1GlqmJQGIRkMBKLJLqRwREQAREQAREQAREQAREQASSh0CKE1ic9g/LxiFzpvRYte4vjJ3+BVjH6qOJfZA3V1YjUn74bRvmjO+DQgVymt9/s/7vB6LFFLXKFUqgaaNqqPJESXD3PxZBf7H9CBMB9MvKSaboenypiSyAXuOpMqYeVOPWQx5KYDE6rHmTZ9D9jedNKiJbRGQkIiMijdRhCqQlsNq0rIu3u7QwNaiathtuakbdqz1sDSzuVLhw+rvg/4dPWIQNP22JcTkKphH926HRs09i9XebMGrKkgcWWG6urujRoSmaNnwKGdJHR8edOHURX3zzK37+fYfZRVFNBBKTgARWYtJUXyIgAiIgAiIgAiIgAiIgAiKQ9ARSpMD6ecVEk6L39eo/MH7WV6b+0uQRXfFMtbI4d+GqKUj+ybR+psbUW0NmY1+sdL0HwfZUpccxfUxPk5b3ydINmLtoLX5cPh6MPlr342aMmBhVc8u+MYXwyYolTJTQc60eTmBVLl8c08b0MGl4u/cdN+mCjEijHOrf8xWTNmgJrFeb1ca7PV/GjZt+eL7tsCQXWFmzZMDHk/siX55seH/CIqyPJbAYNTZ2SEfUqVEea7//ByMnf/bAAsviWjB/TlR7ohSaPlfNVvCeQVebtu4zOx2yvpaaCCQWAQmsxCKpfkRABERABERABERABERABEQgeQg8UoHFVMC3BsdMIfT2SoefV0wwAsc+ba16lTKYPrq7ocLIrOZNauDAkdPo9PZkU/Q8rsY+Rg5oj4Z1KmPLzkMm/TCuxiLx3P3wzLkraPHmCHwxbwiKFs6L46cuolWX0THS19zdXfHZ7MEoUjCXEU6d3plsuvyvKYRLZg9CiWL5jZhr1XWMLS2QkVnTRvcwEWKWwHq2RkWMe68jQsPC8dyrg++KTCpSMDeyZk6PC5dv4Oz5Kxg9+E0zdxZ0Z2F3+zS8hOxCyPpTHEPFskXx8ZL1mL94XQx83P2QEVpFC+fBx5+tx/zP1pni60Pfec3Mo3bzfvfdhbB4kXymUP+FS9dMRBubVzoP9O3WEizwzsYi7v8ePJE8rwhdJU0QkMBKE8usSYqACIiACIiACIiACIiACDgQgUcqsFiM/c3ek3DqbHSB7j5dWqBty7oGcZvuH+LwsbPma6bTrVs6GtmyZkSESa9zwoIlGzBv8dp7Lse7PV7Gqy/WNtFab7w1EcdOno9xPKOM1iwZDQojCrF2PcfjjVYN0bNDUyN8KNg27zhoO4eRV1NGdjPSZciYhfjx9+0PJLB+/G07hoxdaOtvwxdjkC1rJrPLXtse0bW8uMvfkjmDTCSYJbDy5c6GFf9737BY9u3vmDh7WYy5LPt4GFj8/MtvfsOMj1eZIugd2zyHvaw1NnQ2/PwDzfE5smfG3Il9zG6Gv/y5EwNHLTA/7/FmU7zZuqFhbo1lRP/X0bheVdzy9UejVwcjLCw8mkWFEpg1rhcAJxN9tf7HzahVrRwmjexq2DV4eSBu3va3Hf9ev7bgroZsL7R9z+zg+OX8YcidMwvWfL8Jk+Ystx1bKH8ufDSxt6lF1n/EfPy2cbcDvew0lUdNQALrUa+Ari8CIiACIiACIiACIiACIiACD0bgkQosDvXWLT+MmPQZbvv6o2TRAujVqRkY2bN15yH0iBUx1f7VBujVsZmZYWhYGOq9NAABgcH3nHGp4gUxZ0JvE2FFiTVrwTc4eOQMwiIi4Onuhs6vN0al8sWNmOk5cCZ27D1i+lu+4D0UKpDLRDJRrDBtj5FBHwxsj+zZMuHshavo2m8qLl+9aY6/XwTW8gXDTc2u0+cuY+TEz8xOitx5b9SgN9Ho2comioxRTHv2HUOuHFkwqE8rw4FtyfKfMP3jVebrgW+1QssXnjFfz1m4Gpt3HoSrszPeaN0QzzxV1syD0m3b7sOoX6uSicKiTJo2bwX2HTpliuO/1uJZ1KxW1vRxL4HF88iAUWIs2M4osQ+nf4FbvgEoVjgPhvVta0Ti2fNX0f6t8WAxfAq0FQuHG8l28vRFjJn2uUkBZaokZRqj4tgsgcWdJLmjJOXahNnLcPLURTPGKk+UQMfXnjP1wLr0nXLXro4PdpvraBGISUACS3eECIiACIiACIiACIiACIiACKQuAo9UYDEVLmqnOSAkJAxMz6PsuHDpOt4eNgfHT12IQbNksQImcogy6u8t+8wxCWlPlC1qdrpj9BalTGhomElto5ShaGH7ctVvmDrvaxPdxVapXHFMHtkV3t6e5ljKL6bU8XjKs3eGzcWWnQdtaXn3E1itm9dB3+4tTd/BIaHYf+gUuvSbCtZ+Yk0tFkpnCw8nExfzdVh4OFxdXLBx6370GTrb/MzdzRUT3++C6lVKG7nDVD1KJE8Pd1M7a8SExbZopexZM2LhjP7IlT2zGSd3cSRjZ1aGv9PuJ7B4WN1nKmJY3zamyDzXLDg4xMg8sqDg6zN0jhFzVuvdqTlef6We+ZZijtdjvSwrco4/twQWI82mje5uUjY5Rs6BAovzZNu0dT8Gjl6AwPuIyoTcBzpGBCwCEli6F0RABERABERABERABERABEQgdRF4JAKrVvVyaNuynomyunHL10QKcSdAyhHuAjh5ztc4cTqmvCJWSp6PJvQxUT79R87HH5v2JJg2++/a/gUUK5IHGXy84OzibKJ+btz0xYKl32Hv/uN39ZUxvReGvtPGpNzx68CgEJw5dxkzFnxjopHs22OF8uDtri2MTJo0e7mJrrJvLErPdMbHixc0wu7fgydtBeJLFs2P3p2bI0vm9HB3c8P1G7fBVMPwyEhTw4pMWMPKaty5751uL6H4Y/mQOZMPgoNDTSTYl6t+xT/bD8S4LufN1D1GdbFQPIuh79l33KRAcsxcA9auYmN6H6OhKKNGTV4KIErmsZV9vDC6tmtiUhopssju1JlLmLVwtalfFbt1aN3IRHlxZ0FGyV2+egMTZn1lIs7YuH43b0UVZqe0JJtiRfKa3SfZbt32x++b9pjoM/vaXQlecB0oAvcgIIGl20MEREAEREAEREAEREAEREAEUheBRyKwYiNiJA9FC6N1mEoYX6NEmTvxbXNM9wEzcPJMTEmUEPSM7KFUYeQX+6GUul+j+KG4oYihuPmvQoXzzJzRBwyAunnL30RYWY0Sh5KM0UcUVoz6ul/jHLJkyoCgoGD43qlvFdc57JvSjhFn12/4xrju/a4R+/eMfqOMu307AP6BQfc8nTIuU0ZvE1XF/+7XOE7eB2ysuWVfb+t+5+r3IvAgBCSwHoSWjhUBERABERABERABERABERCBR08gRQis+2GgNGGx9YG9WpnaSIwy6j1k9n8WSfe7nn4vAiLg2AQksBx7fTU7ERABERABERABERABERABxyOQ4gUWC6aPf68T8uTKiqyZMyA8IgJv9JqAg0fPON5qaEYiIALJQkACK1kw6yIiIAIiIAIiIAIiIAIiIAIikGgEUrzAyp83B5YtGAYnOOG2XwCmz1uJdT9tTjQA6kgERCDtEZDASntrrhmLgAiIgAiIgAiIgAiIgAikbgIpXmCxJlSViiVM4fNLV27i6Mlztp0CUzd6jV4EROBREZDAelTkdV0REAEREAEREAEREAEREAER+G8EUrzA+m/T0lkiIAIiED8BCSzdHSIgAiIgAiIgAiIgAiIgAiKQughIYKWu9dJoRUAEEoGABFYiQFQXIiACIiACIiACIiACIiACIpCMBCSwkhG2LiUCIpAyCDxqgRUZGWlAWP9PGVQ0ChEQAREQAREQAREQAREQARFIuQQksFLu2mhkIiACSUTgUQosSqvw8HAjrySwkmiB1a0IiIAIiIAIiIAIiIAIiIDDEZDAcrgl1YREQATuR+BRCSxLXlFgqYmACIiACIiACIiACIiACIiACCScgARWwlnpSBEQAQch8CgFVmhoKPifq6urg9DUNERABERABERABERABERABEQg6QlIYCU9Y11BBEQghRF4VAIrIiLCyKvg4GB4eHikMCoajgiIgAiIgAiIgAiIgAiIgAikXAISWCl3bTQyERCBJCLwKAVWSEiIEVienp5JNDt1KwIiIAIiIAIiIAIiIAIiIAKOR0ACy/HWVDMSARG4DwEJLN0iIiACIiACIiACIiACIiACIpC6CEhgpa710mhFQAQSgYAEViJAVBciIAIiIAIiIAIiIAIiIAIikIwEJLCSEbYuJQIikDIISGCljHXQKERABERABERABERABERABEQgoQQksBJKSseJgAg4DAEJLIdZSk1EBERABERABERABERABEQgjRCQwEojC61pioAIRBOQwNLdIAIiIAIiIAIiIAIiIAIiIAKpi4AEVupaL41WBEQgEQhIYCUCRHUhAiIgAiIgAiIgAiIgAiIgAslIQAIrGWHrUiIgAimDgARWylgHjUIEREAEREAEREAEREAEREAEEkpAAiuhpHScCIiAwxCQwHKYpdREREAEREAEREAEREAEREAE0ggBCaw0stCapgiIQDQBCSzdDSIgAiIgAiIgAiIgAiIgAiKQughIYKWu9dJoRUAEEoGABFYiQFQXIiACIiACIiACIiACIiACIpCMBCSwkhG2LiUCIpAyCEhgpYx10ChEQAREQAREQAREQAREQAREIKEEJLASSkrHiYAIOAwBCSyHWUpNRAREQAREQAREQAREQAREII0QkMBKIwutaYqACEQTkMDS3SACIiACIiACIiACIiACIiACqYuABFbqWi+NVgREIBEISGAlAkR1IQIiIAIiIAIiIAIiIAIiIALJSEACKxlh61IiIAIpg4AEVspYB41CBERABERABERABERABERABBJKQAIroaR0nAiIgMMQkMBymKXURERABERABERABERABERABNIIAQmsNLLQmqYIiEA0AQks3Q0iIAIiIAIiIAIiIAIiIAIikLoISGClrvXSaEVABBKBgARWIkBUFyIgAiIgAiIgAiIgAiIgAiKQjAQksJIRti4lAiKQMghIYKWMddAoREAEREAEREAEREAEREAERCChBCSwEkpKx4mACDgMAQksh1lKTUQEREAEREAEREAEREAERCCNEJDASiMLrWmKgAhEE5DA0t0gAiIgAiIgAiIgAiIgAiIgAqmLgARW6lovjVYERCARCEhgJQJEdSECIiACIiACIiACIiACIiACyUhAAisZYetSIiACKYOABFbKWAeNQgREQAREQASSikBkZCScnJySqnv1KwIiIAIi8AgISGA9Aui6pAiIwKMlkFYE1slTZ3Hrtq+B7ebqiqKPFYK7u9sjg3/6zHnc9vWDq4sLihUtBBcXF9tYQkPDcOjIcfN9eh9vFMifxzx4XLt+ExcuXrYdx0cRVzdX+Ph4I3vWLDHmc/joCYSEhMaYH/so/XixRzZnXVgERCDtEoiMBE6cPA1fP/+ov8NubnisSAF4uLs/MiiXr1wD/7NvHh7uyJQxA7Jkzhjj7/IjG2SsC/N9g+8f9s3NzRXp0nkiR/as8PTwiPG7iIhILF+1Dt+s+QEF8uXB6BHvmvdANREQAREQgdRPQAIr9a+hZiACIvCABNKCwAoJDcWQ4RNx9vwFQ8fFxRUfDHsbjxUp+IC0Eu/wSdM/xo5d++DtlQ6Txw1FhvQ+ts6vXb+Bt/qNNN9XKPc4+vXuZB6k1qz/BV8sXx1jEK6uLvBKlw558+REh3YvI2+eXOb3Pd8Zjhs3b8c41tnZCUs+mZp4k1BPIiACIpBAAn5+/hg9YTZOnjpjzvD08MTAft3weInHEthD4h/25ddrsHrdzzE65gcb/FCgcMF86NbxNXh7eyX+hWP1eODgUZw6ex6VKpRG9mxZ73m9rdv3YOqshXe9D1BcUbo1qFsTtWs+Bf69ZwsLC8e0WQuxdcce8/3UCcOQJ1fOJJ9T7AtcuXod23f9i/x5cqF0qeLJfn1dUAREQAQckYAEliOuquYkAiJwTwJpQWAdOXYSYyfMRkBgkI1F/WdroNMbrz6yu2P8lHnYsetfeHmlw/QJw5EhQ7TAunrthhFQbBXLl0L/t7sYgfXNmh9tAsvV1RWUV8HBIWBqCFu+vLkx7oP+JrJh/sIvwAcdflrPxp/xQXHogJ6PbM66sAiIQNolcPTYSYwaNwtBwcE2CK1avoDmTRs8MihLv/oWq9f9ZK7PCKaIiAgTuWr9TX28RFEMfrc7GJWVVC04JAR9+n+AGzduoV+fTqhSqfw9L7V56y5MmfmJOYbj4ntBYGCQGTsbxVXTxvXwassXbBJr194DWLfhZ+TPlwftXmuRVFOJt1/ynP+/L/HLbxtRo/qTeKtbu2Qfgy4oAiIgAo5IQALLEVdVcxIBEbgngbQgsNZ//ysWf77KpNi5u7vD19fP/MN/3swxSOfpaeNz6fJV7N13GF7pPFGpYhmcPXcBW7bvMfKoSuXyKFQgr+3Y8xcuYf/BY3BzdUGtZ6ri+Mkz2LptD5ycnVC2VHE8XrLoPbk/rMCq+XQVNGpQC5cvXzVzu37jprle/3e6oHLFsuZhZu2GX8AHNLYnypfBO291eKRpk3opioAIpF0Cy1atx4pVG4woYuo0Uwlz5MiGmZPejwHlzNkLOHTkhPlbVb3qEzhw6Cj2/HvQnEe5ky9vVJQpm3Wsj7eX+Rt97MQpbNm226TRPVGhNAoXyn9P4JbAYnp1zy6vI3fuHDh2/BQ+XfI1mHrHFO6hA3uZaCyrBQYF4Z8tu3D69Dnz9754sSKoWrl8nPWlmLb+16btOH/+EtKn90b5so+jZPEiMY7dtGUnZs1djLCwMNSsURUlivH3QK0aVYycit3sBdbLzZ9D5SfKwd8/ELv27se6735BeHiEec/q2qG1eW+iPPp332FcunLNXPfZWk+Z/zMi7p+tu+Hi4owa1SqD8/rlt024evU6mjdriKxZMplzDx4+ht17DyI0NBQliz+GsqVLwNMzZpoix8gPU5j6vnffISMB8+fPg6qVyiF9eh9cvHQVYybMMuma+fPlRqP6tc20+AENr2O1/QeOYM++Q+beyJs7J2pUrxwjOpnva3xP9vcPMONgyuSfG7fi8NGTyJUzm1l3fp6TOXMGVKpQxtbv1WvXsWvPQfN9zhxZUaZUcdUDS7t/ijRzEXAoAhJYDrWcmowIiEBCCKQFgfXeqCk4fOQEChXMZx5ylq1YZ9AwPaROrWo2TH//sw0z5iwyKXnly5XCps3bbb/jp9qd32h1JzXDGd//9AcWLl5uft/m1WZYtnIdWLuKjQ8Hr77UBM2bNox3CR5WYL3wXF20bf2i6Z+fxvOhhq1t6+Z44blnzde//LEJ8xZ8br5+utqT6N1dn3on5DWhY0RABBKXQHh4OHq88z5u3rxl6jAVK1YYP//6t7nIB8PeQYniRWwX/Hbtj/h82WrzIUPpx4ubSFWr8We9urYzf8fZvl37Ez5f9q0RYq+81ARfLF9ji57i7zu2fxX16lSHs7NznBOyF1ij3utr6hGyDR89DYcOHzMSbfC7PVDqzgcSZ89ewOSZC3D+QnQtQh6fK1cODBvQE9mzZTHnU/xs2rwT0+f8767r8j2nY7tXwLpVjKplGqMV8WV/8MzJI4ygid3sBVa3Tq+hTs2o9zCmCn6yeJmJcmJjWvm4UQPh4uyM6XM+tb1HLP54smHLupAD3xtvJNnLLZ7DV1+vNdKObeLYIciZPSvmLliKjZt3xBgC3wvJhALJKgr/58Zt+OTTr4wEs28Ufy+9+BxmzVuMoKDoyDvrGOs9mBFks+d/ZqKG7Rvro73d6008cUdGUaINGDbO8G/csDb2Hzxq5sHGtMSDh46B9xrH+MlHE8yHUWyz5n2GP//eYr5uWK+mSbdXEwEREAFHICCB5QirqDmIgAg8EAFHF1gXL17GO4PGmIikp6tVQod2r6Bzz8Hme/6jmPWlmIrHZgksCyB/zjotfv5RRYdZF+W9gb2MCLMXWPwdU/QYBXDj5i1zrIeHB6aNH4Ysdp8u2y9MYgksRpN9OOkjHDtx2nQ/fNBbtvoiElgP9FLQwSIgAklEgPX+xk+Za3p/tlY1NKhXE4PeG2++59/hgX272q5sCSzrB/zb6u7mCv+AQPMjSqUJYwYjd87sNoFlHcsIW0qLm7ei6v9lzJAeE8YMMkXZ42pxCSxGtQ4eMclEKPH8YYN6Gel28dIV87eW/zfvB95eCAwKNsKE1aYo5SjjKHUOHjxmRJeVws0oI9Yk5PsOI56eerIi3ure3ogdRizduhW1wQjHybRytvcG9UKWzNHRSdb44xNY/D2jiHu/G1U/kX2NGNIHOXJkvafA4rGUabYPYADMmTYKny5dYZNefB9j9NWevQfg5x+ATJkyYMKoQciYMT2Yoj9mwmyTxsjm7Z3OCENfX3/UrV3dnPfVynW4du2GEXWmVted90V++FP5ibLmQxjKK/Jxd3NDOi/PGEyYWlm8aGETBWYJLN4H9huVMDWS0dZMwWfr3eMNPP1UJRPN1X/ohyZFk+3DDwagyH0i85LoZaBuRUAERCDRCUhgJTpSdSgCIpDSCTi6wJr3yRf45feoT6R7dm2Hmk8/ibET52D33gPIljUz3uc/8O98ym0vsHLmyIbJHw41cmvKjE+wZftu00fH9q+gQd1nYggsppmMGt4XPGfBp1/h5zufgNeuWQ3dO70W5y3wsAIrU8aMJk3i3PlLCAkJMdcoWCAvPhw5wDwgsUlgpfRXn8YnAo5PgFE9k2Z8jO079prJMtKpeLHCps4fZQPlzgfv9TV/j9nsBRblx4ihfcCNOIaNmIzTZ88bWdS+7Ut4rkHtGAKLQmnK+GFGOs2e9xn+uBNx8+brLdGofq04QdvXwKLUCAsPB9PDGc3ERrnSp8ebRpp9umQFNvzwm/l5hXKl0K93R0RERmLClPnYd+Cw+TmjhSin+g0ei3PnLxqZ1bbVi3j+uWdx8tQ5vDdqsk26fDiyP4oULhDjveRBa2DZR2Dx+hREr3fqa2SUt5cXhgzoYdIf7xWBxfMonMqVLoEXmtSDj1c6uHu4mzkYoeTuhtlTPzCpfBv/2WGkG6Wdla5Oqbdrz34zf6Yidu/cxqQwHj1+GpkypTc75J44eQYfjJuJgIDAu2pgcWfKQcMnmvMpxCjdcufKga9WrMOq1d/b3tsYTRYeFmYTWPwF33NffKEBShQrjAwZ0ptU0xlzPjXn1Kn1FLp2eA17/j2ESdPnG+4UkRPHDnb8F51mKAIikGYISGClmaXWREVABCwCjiywGJ3Uf+g4W1TUx7M+NDtKMcViwaKvzMMFH0KevFM0115gtWn1Ipo2rmswHT56AsNHTTG1NV5oXNc8kNhHYJUv87h5UGDbvvNfTJg6z3zNWh+Txg6J82Z7WIEVu9NSJYuha8fYNhqzAAAgAElEQVTWyJUzu+1XElh6nYuACDxqApRUo8bNNJFLmTNlBFPjKEwoqr5asdbIjr5vdTC1nNjsBZa9fLL/29ryxUZ4uUWTGAKLhcvbtGpm+mDa26y5i0w9qHt9kGAvsOw5cXz16jyNl1s0NuKGwmbitPnYuTtK1FjyiV+v+441Fleanz9ZqZyppfVG1/7me85txqT3bXJu3OS52Ll7n/kd0xsb1K2RqAKL/bbr/C6Cg4PNex037WDtxvsJLNbmYrF6KyWQ0VCTZywwQoy1x6wUSkbBMR2fYos7HTIVsu+g0eAOg2xjR/bHY4UL3HXL3Utgrf/hNyxassKcU/XJiuZeYGNdx+593jNfM6pu+sT3kS6dh01gsQ7XVEY520WpcZ36DBiFK3dqbVGWcn2Wr1pv+nn37c548s599qhfF7q+CIiACCQGAQmsxKCoPkRABFIVAUcWWHzY4D/CmXYQXytbuiSGDYzamc9eYPXu3h5PV6tsfs5CwUx34afzLLLbs0vbGA8d9jU1jhw9iWEfTI76R7eXF/43NypNJnabMHU+tu/ca4rh8gGHUQNW4yf3fQeNMd/Gtwsh00P4afWp0+fMcdWfegI9u7SzpUPyZxJYqeqlqMGKgEMS2L3nAMZNmWvbJS+uSdatUx1d3mxtfmUJLMqU7p3amELkbKw/1W/IWPM1o6/eaPtSDIFlX9Mw6m//xyYSqUypEiYdL65mL7AK5s+L0LAwXLh4yYiczm+2NumObNwpcPzkudh34Ij5fsHsD01xcjb7lL5iRQvj7Z5v2naRZX2phR+NMynlbKzR9c2aH8zXr73SDM2er5eoAovpcp16DDL9mxTCoVERxvcTWC2aNcSrLz1vQ/Tbn/9g7oLPbbW54qohVq7s4+a9cOCw8bZNRBbMGWcK38du9xJYjLRa+e135pTGDeugfZuoXRIpz1q1722+5vvkpLGDzZysFMIC+fNi4pioudo3+7TQCaMHYc7HS0wEGOuTjX6/X7zppHHeIPqhCIiACKRwAhJYKXyBNDwREIHEJ+DIAovFfVnk916N/zCfPnG4+Ud+jAisV5uhaZN65lRu/z50ZJSUerl5Y7Rs/lyMh46yZUqaAr5s23bsNZ/Us5Us8RhGDn07zsuzOO6vf/xjHpSYqsiCu1b7/a8tmDP/M/MtoxLe7dPJHMeCv18sX21+ziLujA4YPWE2Dh85bory8sHJKnbLYySwEv/1oh5FQAQejMBHHy8Fhci9Gus+zZ851tRiso/AYrFtfkDAxt0F+YEEGwu2v9SsUQyB9ULjemh7JwLrr43bTFFwRgo93+hZvP5a8zgvH7sGVoYMPhg1fpaJ4KGIeX9oH+TPm9ukCk6a9rH50IHNPgLr+5/+xMLFy8zPKds6v9kKbTu8Y75ncXl+QJH1Tnqk/YYbPTq3NcfbR/M+TAohhc/SL7/Fmg0/m2tzt0Yrpfx+AovyihLLapu37cLUmQuNRGLaXauXo+WWdQzrWOXOmQP9Bo+x1Z1ivTGKwNjtXgKL74N8P2SrUrmCiYpmY/0w1qtk4/0xe8pIc39YAuuxwgUxduS7d13r3/2HMW7yR0ZeMgWUmwAwjbVa1SfwVrd2JipOTQREQAQchYAElqOspOYhAiKQYAKOKrD4D+8+/T8wRW2ZAlGrRlVTPNZqO3b/i9NnzptvWzRthFdbNokhsFiDg7U4+I9dphv+s2Wnqb3CwruMzLJ/6OA/rvlJd9YsmfHZ56tsD2uvvvQCWjRrEOdarF73E/jwxEbR9VbXduZTZhb65T++rUK0lGgsdMsWW2BxF8Kjx09h9LiZpphw9mxZTcFipltw/j/8zAerqJ0Sq1auYOqzxLcbV4JvGB0oAiIgAgkkwFS2N7sNNCl4TGljjaR0nlE7w7Ft27kXZ89dMF9379QWtWtWjSGwGD3Vu0d7OMEJIz+cYY61j8yydiHk+SzgPmXcUPP3fvHSlfj9r82m3wHvdEGlimXjHHFcRdxXr/8ZS7/8xhxfuFB+vD+ktxkz0wSZjsb2RMUy6Nm5rYnKpaCzakD16Po6aj1dBf2HfBhVr8vJCa+3bo5na1fDtWs3TTFxSjW20cP7mV0Pf/r1L1M7kSnqr7RojCaNnjX98ppWPUP7wdtHfLV7rTmqVa1k6iBu2rITX6/agLCwMPN3vkP7V1C/ztOG/YMKLI6dkVUcK/vihyy5c2U37yusJUW5xNpl/N2g4eNNfS82Rqzx/Yo/Z7F3rhc/VGGkMGtgsTA+d5wc1K+7eT91dnHGhYuXMei9CaZvRlgNG9jLpFzy/Yu7UbIxNZ4fNNkXcY9PYLF+We/+I03RePv2ds8OqFa1YgLvXB0mAiIgAqmDgARW6lgnjVIERCARCTiqwNp/4Ih54GErW6YE+r/dBdyS22q79x7E2Imzzbd8iBjavycotWbMWWQ7JmeO7PD0dLel6bEo7tABPfBYkYJ37ULIf3BnzJgBp8+cM5/8UnxNGT8UuXJE16SyX7az5y9i6IhJtq3F+Q93/nftxk2wdhcba69wxySruHFcAov/WKdg+/X3TeYcfsrcs+vr2PD9b6aYvLVjFiUbHx5ZhF5NBERABJKDgL3of7xEUSMnrF1fef3vKdkXRUUvsaA5N8NYt+EXm7hwcgLy5M4FZycnnLkjuvi3laI+X55cd+1CyEhaFnOnMAmPiICPt7c5lrIlrhaXwKIAmjDtY+zes9+MtV3rFmhYv6b5UGHA0A/NbogUS/nz5TGRPWfPX0BEeITZnZY1l1j0/Njx0xgxdpqRPfzbWyBfbly9fhNX79SKYmQtaz1xLvbpjoykZQ2poKBgdOnYGoUL5r9r2PYCi+8RPIc7/gUFB5tjKc240QhTLCmS/ovAokya9dFi/PXPNtMni6VzfSIjInDL189Ip3EjByBz5ozmw52psxaa4xghlS9vbsPtwoXL5r1ycP8eZgfAD8bNMD/jmhYrWsT8v1qViibCjumKFI6UWtmyZUWWzBmNAOTOhpwDP0yi+EqIwOI4/ty4FbPmLraxozz9aNoow0pNBERABByJgASWI62m5iICIpAgAo4qsFg0mKkEbEy3Y7SSfeM/0N/oOgBBQUEmMoC7EZ49d94msJhK4u8fYIoAs/GhpGaNKujU/lXzgGD/YObj44XgoBBTP4WNDyWN6tVEuzu1POJbCO6Y9NGCpbh5Z3t16zg+HGXLmsWkBPKhwWpxCSz+zt8/EL37j4CfX4B5gOjT4w0sWLTM9GvfnJ2d8MWnUVJPTQREQASSkgDFyYgx03D46ElzGfuNMazrMuK0e59hJvqGKXvDB/c2Rc4ZeUPBQfkTEBBkq8VEAdGyeWPbBhv2EViZMqY3UT/WDoJubm5oVL8mXnulabyRp3EJLI6NAmzk2BnwDwgwf89ZLJwS5999hzB7/hKzMQjHzMb3Awqyrh3boFyZEuZn/N2KbzZg7Xe/IigwCFFHRu32V7RIQQwd0Mt8OMJ267YvPhg7A+cuXIrR54hhb6NksSJ3LZG9wLJ+yX75t58fsjRuVAdNGta2zTk+gXXq9FkMGBZVozF2CqHV77gp83DgwBFTA8yaL39Hccbd/PihC9sni5fhj7+2IDg4+jhyqfokI387GMHHNEGm6VvvqTyvRbNGePWlJiaii7v9csMUjtdqjKZjCijT9tmiBNZ4s1NkfBFY1rldew+1vQe2eul5NLdLkUzK+159i4AIiEByEpDASk7aupYIiECKIOCIAov/0N60eYfZep2Nn/zz4SN24yfft25HSR5ui86t0K0IrF5dWSvD2TxUuDi7oHChfOBOTVYKnr3AYsoHd2myCqqz9giPZUrg/dq16zdw8PBx3L7tax6K0vv4IFu2LChetPBdUQNMeTx+8rTpMn/ePHisSLTcYiqhlYqTJ1dOU1TX+kTeGgMfKJhKqSYCIiACSU2Af3937d6PgMBAc6mK5UvH2KzCuj7rVYWFh8HZyRmlSxXHXxu3GoHFv7VMkaOUYSo4BQ0jesqWjpJEbPYCi+l7jLI9c+Y8XFxdzO57rE/o5uoa71SPnzgdleoHJzM+fnDBRsmye+8B3Pb1jfp7my+PbXc9Rh9xs44r164buUV59XjJosiWJXOM6/B96OixUzhz7jwuXbqGjJnSI3PGDGZMjBKzbxQ423fsxaUrV80cmI7O+k0UeLEbd/zje1V0czJsuBFIwQJ57yqiznHsP3gUV65eM6c8U72KeW/jBx9bd+w2P2OkF8+N3RgJdvzkGXPuhYtX4O7mZq7D97iiRQvBxdnZnMJIM7LkOl2+cg2ubq7ImjmKC4unszEyeduOPaaf8PAwZM6cCWVKFbftnBsQGAR+qHPt2nXzYUz27FmRJ3dOFC9ayPa+y5RGpp0GBASa98pKFcvEu7YjxkzHgUNH4e2VDuNHDzQp9moiIAIi4GgEJLAcbUU1HxEQgfsScESBdd9Jx3OAfRH3d/t0Nluix9fsBZZ98eD/em2dJwIiIAIiEL0LIQVWjy5t8Uz1J+PFYi+wWCvr6aeido5VS5sEKMkscTjyw+kGAsVk394djXxTEwEREAFHIyCB5WgrqvmIgAjcl4AEVjQiCaz73i46QAREQASSlIC1C6EEVpJidrjOKa5Yi4vRWQcOHTPF7NkG9uuGJ8qXdrj5akIiIAIiQAISWLoPREAE0hwBCSwJrDR302vCIiACKZaABFaKXZoUPbCoupb9bRujsG5l86aN0KJp3DsBp+jJaHAiIAIikEACElgJBKXDREAEHIeABFb0Wp44eca29Tq3Ay+Q/+6aINbRBw8fM7svsZUtXfKetTgc527RTERABEQgaQn8u+8wtu3cY4qjM33QfiOL2Fe2juXPaz1TNc5d+5J2tOo9pRBgofxv1/wAXz9/ZMmcCYUL5jM1uHgfqYmACIiAoxKQwHLUldW8REAE4iUggaWbQwREQAREQAREQAREQAREQARSFwEJrNS1XhqtCIhAIhCQwEoEiOpCBERABERABERABERABERABJKRgARWMsLWpURABFIGAQmslLEOGoUIiIAIiIAIiIAIiIAIiIAIJJSABFZCSek4ERABhyEggeUwS6mJiIAIiIAIiIAIiIAIiIAIpBECElhpZKE1TREQgWgCEli6G0RABERABERABERABERABEQgdRGQwEpd66XRioAIJAIBCaxEgKguREAEREAEREAEREAEREAERCAZCUhgJSNsXUoERCBlEJDAShnroFGIgAiIgAiIgAiIgAiIgAiIQEIJSGAllJSOEwERcBgCElgOs5SaiAiIgAiIgAiIgAiIgAiIQBohIIGVRhZa0xQBEYgmIIGlu0EEREAEREAEREAEREAEREAEUhcBCazUtV4arQiIQCIQkMBKBIjqQgREQAREQAREQAREQAREQASSkYAEVjLC1qVEQARSBgEJrJSxDhqFCIiACIiACIiACIiACIiACCSUgARWQknpOBEQAYchIIHlMEupiYiACIiACIiACIiACIiACKQRAhJYaWShNU0REIFoAhJYuhtEQAREQAREQAREQAREQAREIHURkMBKXeul0YqACCQCAQmsRICoLkRABERABERABERABERABEQgGQlIYCUjbF1KBEQgZRCQwEoZ66BRiIAIiIAIiIAIiIAIiIAIiEBCCUhgJZSUjhMBEXAYAhJYDrOUmogIiIAIiIAIiIAIiIAIiEAaISCBlUYWWtMUARGIJiCBpbtBBERABERABERABERABERABFIXAQms1LVeGq0IiEAiEJDASgSI6kIEREAEREAEREAEREAEREAEkpGABFYywtalREAEUgYBCayUsQ4ahQiIgAiIgAiIgAiIgAiIgAgklIAEVkJJ6TgREAGHISCB5TBLqYmIgAiIgAiIgAiIgAiIgAikEQISWGlkoTVNERCBaAISWLobREAEREAEREAEREAEREAERCB1EZDASl3rpdGKgAgkAgEJrESAqC5EQAREQAREQAREQAREQAREIBkJSGAlI2xdSgREIGUQeNQCy9/fH4GBgSkDhkYhAiIgAiIgAiIgAiIgAiIgAqmAgARWKlgkDVEERCBxCTxqgRUQEIDg4ODEnZR6EwEREAEREAEREAEREAEREAEHJiCB5cCLq6mJgAjETeBRC6yQkBBkyJBByyMCIiACIiACIiACIiACIiACIpBAAhJYCQSlw0RABByHgASW46ylZiICIiACIiACIiACIiACIpA2CEhgpY111ixFQATsCEhg6XYQAREQAREQAREQAREQAREQgdRFQAIrda2XRisCIpAIBCSwEgGiuhABERABERABERABERABERCBZCQggZWMsHUpERCBlEFAAitlrINGIQIiIAIiIAIiIAIiIAIiIAIJJSCBlVBSOk4ERMBhCEhgOcxSaiIiIAIiIAIiIAIiIAIiIAJphIAEVhpZaE1TBEQgmoAElu4GERABERABERABERABERABEUhdBCSwUtd6abQiIAKJQEACKxEgqgsREAEREAEREAEREAEREAERSEYCEljJCFuXEgERSBkEJLBSxjpoFCIgAiIgAiIgAiIgAiIgAiKQUAISWAklpeNEQAQchoAElsMspSYiAiIgAiIgAiIgAiIgAiKQRghIYKWRhdY0RUAEoglIYOluEAEREAEREAEREAEREAEREIHURUACK3Wtl0YrAiKQCAQksBIBoroQAREQAREQAREQAREQAREQgWQkIIGVjLB1KREQgZRBQAIrZayDRiECIiACIiACIiACIiACIiACCSUggZVQUjpOBETAYQhIYDnMUmoiIiACIiACIiACIiACIiACaYSABFYaWWhNUwREIJqABJbuBhEQAREQAREQAREQAREQARFIXQQksFLXemm0IiACiUBAAisRIKoLERABERABERABERABERABEUhGAhJYyQhblxIBEUgZBCSwUsY6aBQiIAIiIAIiIAIiIAIiIAIikFACElgJJaXjREAEHIaABJbDLKUmIgIiIAIiIAIiIAIiIAIikEYISGClkYXWNEVABKIJSGDpbhABERABERABERABERABERCB1EVAAit1rZdGKwIikAgEJLASAaK6EAEREAEREAEREAEREAEREIFkJCCBlYywdSkREIGUQUACK2Wsg0YhAiIgAiIgAiIgAiIgAiIgAgklIIGVUFI6TgREwGEISGA5zFJqIiIgAiIgAiIgAiIgAiIgAmmEgARWGlloTVMERCCagASW7gYREAEREAEREAEREAEREAERSF0EJLBS13pptCIgAolAQAIrESCqCxEQAREQAREQAREQAREQARFIRgISWMkIW5cSARFIGQQksFLGOmgUIiACIiACIiACIiACIiACIpBQAhJYCSWl40RABByGgASWwyylJiICIiACIiACIiACIiACIpBGCEhgpZGF1jRFQASiCaRFgXXZPwIbjoUhf3onPFvYLdlvh6V7Q+DuArxY0h1uzsl++Xgv+NfpMBy4Fo4WJdyR1csp2Qe260I4tl0MQ6tSHvDxeLjLXw+MxJrDocifwRm1C7nCORGns+dSOLaeD0OdQq4oktnl4Qaqs0UgjRIIDg7GH3/8gcjISDz77LNwdXVNoyRS57SvXLkCJycnZMuWLXVOIJ5R//zzz/D390fTpk0TfV6rVq1C3rx5UaVKlUTvO7E75Ovy7NmzyJw5M3x8fBK7e/UnAiKQSAQksBIJpLoRARFIPQTSosDaczEM3TYEoEoeV0xr6JXsi1VnkS88XYGvX/aBt3simpWHmEkkgFF/BGL5gRB8+aIPSudMfjEzf2swZu4IwppX0qNQ5rvNXsdv/eHhCsxp4n3fmR6+GoH2a/xQPZ8rxtf1gmsiisJPdwZj6tYgfFjHC42LJb8Ave/kdYAIpFACBw4cwOzZs9GiRQtUqlQJI0aMQGhoKCZOnIh06dKl0FHff1i+vr54//33Ubp0aXTs2PH+J6TyI27duoUhQ4Yga9asGDRoELy8Hvx99ODBg5g1axaaNWuG+vXrJxmRbdu2YfHixeY6devWve913n33XSNuvvzyy/se+6AHvPLKK3jyySfRv3//BJ3666+/YsWKFejSpQvKlSuXoHMS6yCuz9ixY1GjRg107tzZyEo1ERCBlEdAAivlrYlGJAIikMQE0rLAejKPK6ZLYJk7LKULLEY9tfnGz0SHjax9/wddCawk/sOh7kXgAQlERERg+vTpoFAYOnSoiURxFIG1cuVKfP755xg+fLgRDbdv38aSJUvQo0ePB6SUOg5nhNK4ceNMZE7v3r0fWD7yXqDI3LRpkxFgSSlneM/9+eefmDx5MgoWLHhfwClJYA0cOBDnzp3D3Llzkz0K6tSpU5gwYQKqVauG1157Dc7OifgpEIC1a9ciY8aMeOaZZ+67JjpABEQgfgISWLo7REAE0hwBCawH/+T4YW8SRWDFTfBeEVhT/wnCp3uCMb6OFxolIOpJAuth71KdLwKJS+Dq1asYOXKkSRUcPXo0wsLCHEJgcR7t27dHlixZMGPGDBOpwofzr776Cp999lniQkxBvQUGBpq5enp6PvCobty4YdaeIuvDDz9MMjkTEhJi1qZw4cIYM2ZMgqKIUorAOnnypInUeu6559ChQ4cHZvywJzCFMCAgAO7u7nBzS9xIY/b9+uuvo0GDBmjXrt3DDlXni0CaJiCBlaaXX5MXgbRJwNEFlm9wJNYdCcX+K+EICY/EY1lckNfHCWP+DkJluwiswLBIbDkbjn1Xw3HhdoQ5tnBmF9Qt7IZiWaM+eQwIjcTy/aGIiIzEGxU8YAXUM3rpl+OhOHA1Ai0fd0Ou9FHH8+ebzoThn3NhOH87Alm9nFGroCuG/xoIN5eYKYQh4cAfp0Kx5VwYbgZFokgWF5TO5owaBdxgRe7/fjIMR6+HmzGxz38vhyM0AsiX0Ql1CrqhdHYX27Fx3c2RkcDOC+HYfzUch66GITQcyJ3BGc8V5Rxd4k0h3H4+HL+dCsVF3wh4uAAlsrmgSXF3ZEkXnVKw+lAIzvlGolVpd2S2+/n525FYtj/YzLti7qgaNxzHvsvh+ONMGE5cD0d6DyezFmduRmBWHCmEweFAx9V+OHo9AutfS2+uezsoEr+cDMPeS+G4GhCBTJ5OKJjJGdXyueLx7C6IS2CFR8Dw3Xs5HOd8IxAQEokCmVxQu6ArysZKmTx9K8LUuTp8LRzXAyKR3dsZtQu6oUo+F8SVQngjkPMMMUxbl3VHVjsGafMvi2YtAjEJbN++HePHj0fjxo3xxhtvgGlolBiUDExR2rdvHy5evGhq7hQpUsREZri4RKcy86F39+7dYD/Xrl0z4uSxxx5DnTp1YqSwMe3Kz8/PpCgywuf48ePIkCEDChUqhFq1aplzt27dihMnTpgH82LFiplr2afBhYeHY8+ePdixYwcoW/LkyWPGVLVq1bskyD///INJkyaZtMhXX30Vf/31Fz799FPz8P/8888bCEyPbNmyJZhqyGggjolRTOnTp0f+/Pnx1FNPIXv27Lh58ybWrFmDF154waSxbd68GRR/L774IkqUKAFKI87v8OHDZhycP6OX9u7da1g1atTIBp18d+3ahdOnTxuuvNbjjz9uGFy4cAGs9URGly9fNuw5Hs6RETeUcX///bdhxDExWu7pp59GgQIFTP+sX7Z69WojnurVq4eNGzea61C22NfEIscffvjBrDVlBftl4zoyPY0/Y8ol+/vxxx+N3GSUFOfNdcqUKZNJyyR3zp3pdOyjSZMmd728KAyZjtqqVStbPbWvv/7aiMTBgwfjiSeeMOcwApBry/55vRw5chi2lStXNr+PLbAo2bheTH8lN/LgGEqVKmXOoeCxGu8Vzo1RU+TBCCMyZY03Hhc7hZBz+u677wx7pjfmzp37zntkpLmndu7caTjx3j127JjhUrt2bezfvx9M8eN88+XLZ2pq2UeXcY4UYLz/eL/xeB7LubFxDqw/x/Xl64/3HvvgnKzGGmfff/+9ucd4f1ophJwj15vjse7BChUqmNeIfeP5vC8ZycWvuZZlypQx/fHeYd9kU7ZsWXMa70vr/tLfThEQgYQTkMBKOCsdKQIi4CAEHFlg3QqKRIc1/jh6I9yIneyeTrgUEAkvNydQWFFIWCmEx69H4JWVvqAsye3lhJshQFBYJLJ5OWN96/SmZtWVgEi0/8YPkU7A+lbpbbKIQmbEH4FYdyQEC5p4o8IdUbNiXyjG/RMY1Y8n+4yEq7MTQsMjkdvbOUYNrJUHQjHm7wAjxbJ5OONcQJQsGvCUJ14pE1XRfMJfgfjyQAjSuzvhRnAksnk4GYHFfvOld8ac57xROI7aUdat+vmeEEzfGmTmzsa6UOGRMFFNDYu5xSmwdl6IQLcNfkbeZXRzgm9YpBFzRTI6Y2nz6BpenVb74cC1CPOzQpmiUw22nQvDm2v98W5VT7SvEDUPyqtu6/1xMzgSWT2cwOEEhEXCw9UJfiGRd9XAOnUzAs2W+eLlEh4YWsvTXH/SxiAs+TcYvFKxTC447RsB/7BI9Krkga6VPeMUWEHhkai1yNfMJUc6J9wKAYLDI+Hj5oTlLX2QL0PUuA9eCUfndf64FRJp1sPFCYbzO1U80aGix10Cyz8EaLvKF8duRmBMLS80LuFmzlETARGIJkB5RXH08ccfG0llCazz588bkUSJ4e3tbeQT05UoLfr27Wt7cKa4YhoYH7gpmyiI+ABNucJ0NisSiBE9FBT8nsKI4ob/Z+MDNIUNpRDlAsdAMUZ50LVrV9u1KH4oEPjQz/P5wE/ZQSHQtm1b26Rip8IVL17c1MLiwz0br8FGScWaUQMGDDByg/Oj6KFEoeRhqhajhCg9OGde56effkJQUJA59oMPPkDRokXN/CknOG/2zXFxfGRHycEoIzYy7Nevn5FvHCPHzkgxSgqOgZJl1KhRRuzxWPLn7zkW9leyZElzHeUk5s4AACAASURBVHImb3KgrJo5c6b5PVMkOU6Kj/fee8/IJ0abUeC9/PLLNj4UPoy641qQC9edjTXPKGOse4Hrw+PIhqKHa+vh4WHmz7FRqvXq1QvdunUza0ZBaF8z7ejRo0ZSUaQwPZWNTN566y3TH+8JjpvShul4nBMlFOfFa1Pk8Xy22AKLY+D99e+//xoenMv169cN0549e9pS4HgcZRNFF+8pjp9j4PGLFi0ygjG2wGKa6bfffmsEkTVWjoHCh/cL+Q4bNsxc95dffsGcOXNM3TGuK7lwbTkHqxYZ7yG2hQsXmjWpXr26EapcV641f05ZxsguXoPN4sxxci0p89gOHTpkvqcgJndLYPF1wbWzXm+cN1+3vIcpA9m4RuTI+5ONc+f9RZHH1+Ann3xixsE5WOKYx1OwqomACDwYAQmsB+Olo0VABByAgCMLrJUHQvDBn4GontcVE+p7wcfdCWdvRaD39wE4ciMczxaKFlhcyvWHQ1C9gJuJ5gkMA2ZtDsLif4MxvnaUlHgQgXXBNwKNvvBFFk8nTG/gjXK5XIx4mbIxqs88dgLr3O0ItPzaDwUzOpui8rl8nHHkWji6bwiAqxPwaTNv8zMKrM/2hSCXtzOm1PNC2VwuYOTW2D8DseJQCEbWSocWJaM/Dba/PRnV1XqlH64EROD9Z5iGx535nHDsWgTyZnCCl7vTXQLrxI0IvLzCDzm8nDClvhdKZncx8mfB9mAs3BuMRoXdMKqOl4kmS6jAiojksf7YdikMA59Kh1Zl3Y0kWrk/BCP/CjRDjl3EfcAPAfjlVCjWv5YBObydjHRruMQXN4Mj8HPbDMjo6QRGV+27HIY8GVyQzcspToHFvv88GWbmkd07Sv4t2hWMmduC0KmcB956ytPMr/u6APx7NQydy3vitbLuyODpZKLPPF2dkCmdUwyBVbOgK4b8HIA/z4ahd2VPvFnxIbdPdIC/KZqCCMQmQGHUvXt3IwpY88h6yGUEFiONGN3DNCk+ZDNaiCKGYoEPyxQ9FEKsB0RZxYdvRp1QclCa8EGdkUeM5OFDNmUFZRcf/ikBeCzPp7DhQzMjrtgHBcaRI0fM8YwOoWChFOJYKWcoW3hNRpbwZzyO/6dQYB9sFDkUHxQWU6ZMsT3Uv/POO+ZY+xRCRqNwDGTAh3U+1FNAUL4wEoVCxBJY7JtRYZRlVtQShRIFFiNYKKE41kuXLhkZxGgbigdyY5+UNIzUovhhqhZZkCdlA7+2BBavyei3mjVrmvGwXhQjr6zaVoxa4tymTZtmfs41pOyLLbC4hkwLpUAhD0tuMFJn6tSpRoJY9cAo7ShEKlasaNaHzRJYjNaxioZTbHBeFJ8UIhRcFEecL9e7U6dO5lyOj/cRxRGPtSQO58jvKXF4bd4blETsi2O1IpYo2SgJc+bMafqLK4WQkXi8N8me19uyZYu5N9k37xU2Rnux8DsjxsgpV65chhPHTLnIZgmst99+20QhMTqMEXS8XyiBrEbpRFnISDMrxc4SWBRynA/XlmKKtdeYssrILEo+Noqq9evXm3Xg+RRHnCPHztpjXEtG9TFajT9jRB/vX46Xso7jjUtg8VrffPONOZdz4f3D1x+vx/W0WFDkUfjxXqHQ5D1MDlwDvq4Y0cZ7mDs9KoVQ7xci8HAEJLAejp/OFgERSIUEHFlgDf45EGuPhuB/z3ujct7oLdrXHA7B0F8DUSeWwIq9fEw1Y+HwLuU80OspzwcSWGsPhWDwb4FoU8YDg56OrhFy3pfRRH4mIsvahfCzncGYsCUIy1/yQcls0Skzo34LxNeHQ/BlCx88ns3FJrCGPJ0OrctEiyqm0b32jR86V/BA76px1yPZeJo7L/qjeXF3vF87HZxjRQjFVcR9zaEQDPs90PTbs4qnLWXydnAkXlzmZ6KfvmjhY2RQQgXWRd9I1P/8NirndMXCZt62KDaKrdZf+2H/9fAYAuuyfyQaLL2Np/K4Yu7zUf/A57GvrfTDwWvhmFbfC7UL312fI6E1sMiuyzp/PJ3PFZMaeBlx2HGNP3L4OGNRU+84d4m0UgjH1PbChsMh+Ot8GLpX8ETHSh5G5qmJgAjEJECRwwd2PrRyFzY2KwKLURqM9KDEsYQEd6djah6jaZjWxCgVRqsw9dA+fYx9UMAwAoX1pxjRYQksighGtlh99unTx6SA8QGdIoKNAoBCjQ/uFCSUDkyt++ijj8zDOAWF1SgnmMJG+UDhxmaleLHIdfPmzW3HxiWwzpw5Y6KiOFaKG0ZlxW6WwKIsYbSNfX2pL774wlyfgogSzGqUK5wzo78osCzZwzlR7FDgxW6WwGL6FgvPW9E11twpz1ic3fo55QmlGNMkKT1iCyxypxSkpCBfK53MWgvKESs9jBJk1apVRtpYfC2Bxagg3guMNrPWzYpSoqCkiOG68jocD6OqKDy5thRSnL9Vr4nXYXF9jovRfGycK8XMSy+9ZFI64ypMnpAaWJQ+jDbjPcv5UhpSNrK/+fPnx7sroyWwuFZLly5F+fLlzX0WewdOq/A8xaG1fpbAir02jMDiLoWUk7xH2CyBRdFHMWzNk9KXDCgR+Rqzl2bW/dW6dWvDJ7bA4pz5WiNzcrbO5dqRGaUn7zdrR05+z2tZUXf296AElt4hRCDxCEhgJR5L9SQCIpBKCDiywGq3yh87L4dhc4cMJm3QaqyD1Ou7AFMvyUohDAiNqo+080IYztyOMHWVbgYDJ26Fm+icPtUeTGAt2BGMGVuDMKg6o3iio3KYblj909vI5B4tsLqs9semC2F4PIsL3O02+jlxOwK3QyIxsa4XGhV1swms/73gbWpGWe3MrQg0/tIX7cp4oL+dLLO/BRfvCsHEzYG2aLLYt2dcAuujbcGYsz0Ik+t6oUHRmJLo5eVRKXOrX01vUu8SKrC2ng1Hh3V+6FjOA29Xiynbxv8RhCUHgmMIrC/2huDDTYEYWC0d2pSNlnaMrmNhd6ZPVs7lihaPu6N6Pldk9Ypa57gEFutTbT4Xhh0XwnHqZlTtrOtBwGnfcNQt6IYpDb2w62I43lzjh6oUZk2iPxG352UJrKKZnHH4RgSq5HbFJ03jPjaV/BnQMEUgyQgw6okPttb/7dOM+HPWAaLosH/QnTdvHn7//XcTAcUIFaaaUa7we6uWkTVgPqDzwXzx4sW2dDFGYFFCMdrIapRhjPBhFJMVbcPfsU8KEQosihdGvvDalFn2YoEP/RQ3lFUUOXygp4hi9BGlhf2xcQksSg6mvrFvsuA8KGQYsUMpwGYJLPtoGmv8jBpiaiPnaV+vi3WMKAooiCgWmCLJKDFG6jBKKK4i65bAql+/vkmdtBpTwxjhxAgb+1RJRgRREDJihj+PLbA4HtZyWrBgAd58800jGcmUfTNajRE5bFwnpkMyBc4Shvy5JbAo3xg1ZUWd8XfkxTWh/GE0z//+9z9s2LDBRFMxcoy1lHjdZs2aoU2bNka6kTWlFtMjeS9ZdaoY7cYIJK4Zr8F6bIwcoiSyJE9sgUXJScaMoOP6kC9lEe8lilCOlzx4H1Ki8f6Kr3EOjBDj9ZleGNfOiBwzubEvixv7swQWr8Nx2zeuO2UqxZWVKsgILLK2r2tF7uTC10XscTK9kmvMteMaxhZYlIsUsGTLWl2W3OQ4KGd5D5AFr8F7lWz4+oirALwEVpL9uVXHaZCABFYaXHRNWQTSOgFHFlgvL/PDwRvh2N0lY4yIo90Xw9BtfQCq5I0SWEw/G/ZrIH44EYqsHkDDIu4okMnZ1GiihLqfwGJEkDn/eHQNrNlbgzFvRxDefyYdXioVM62v9iJfpHONLuLeYKkvLvpHoHlR9xiizbo3X3zczRROZwrh0v0hWNTUBxVyRYf6JERgfbQlGHN2BmHec96oXiBaflnXiEtgURAt3B2MqfW8UO+xmAKr07dRaYBrWqVH/nsILKbs9fg+ugbWHyfC0PMHf/Sq5ImulWOm283bEoxZO4NsAovC6d0fA7DxXBi+eNEHRe8U0+eYyZzRbCv2h2DhnmCzvjm8nTGjvjdKZHeOU2BN2xRk+JFcs2LuKJzFBTcCI/DJ7iDUzB8lsLZfCMOba/zRsJAbJjaIe4dKCqzJW4IMOg9nJzg5A9Pre8XJNa3/fdH8RYBpehRVjPZhBJYlCqwILEaQsH6OvZSxF1g8j9FILEZt1Tmyp8q0KUoFRnmxng9lGB/mKTX4MG81CizWWLKv1cPfxRZYFCtMf6JgYrRU7MaoLko1prdRdlCiMFrJvsUlsPh7Si+KD0aUUQqRBetNkQsjWiyBxeggRjrZN0YSUaQw7cy+uD3PocBieiVFBiOSKA4oxSgpmOYVu1kCi1FjlD5WswQWRREjjKyWEIHFdWSUFNeAQo8RRkw3s4+Eo7jgWDlnjtG6FyyBRRHE9WFKp9W47oxIYlQQo4MokrhGluTjHFmsn9KE/bJZ82P6JMWWfeN9x3mSI7/mtZiOaEXrxRZYFDmMsqJo5T1BIUfZyggmS2AxXZRpkbw+xxFfo8CiAKL84b1AWcRdEu0jwZYvX27Gxkg0RmhZzRJYjLZi8Xv7ZkW68XXDe9aKwKKss5e1lLBMP6QcI2f7Zq09C/FzHWMLLGvtKGoZAWh/D7If3r8Un7y/Kd5Yz4qv17ii3CSw4r1F9AsReGACElgPjEwniIAIpHYCjiyw3lofgN/OhOL71umR506Bbq7XX6fD0Pt7fzxTIKoGlpVGVjiTs4m6yeARFcXDiKyOa/1tAutqQCTe+NbPFB1f2yq9KYLOxjpUfb4LwNYLobYi7l/9G4zRfwehV2VPdK0ULWqCw4Cai28ji0d0BFbn1X7YejEcK1qmx2NZ7EKwYt1cFFif7w/Bp/9BYK0+GIqhvweg1xMe6Prk3WmGcQmsxXuCMXFTEPpWiVnbKSwCeO4LX4SHR+LLl3yMOOq21h+7LoXj8xbeKJI5Wq4t2hmMSVuCbEXcj1yLQIuvffFiUTeMqhtTEA3+IRBrT4TYBBZ5t1jmi/zpnbGkhU+8OyzeDIzErK1BWH4wBE2KumN0nXQ4ei0C7df4mais8XW9cPx6uFlLjnXB8962nRK3n4+Smc/kdzUCiwXmKbC4Dkua+cAljuWgwJqyJQhdK3qgQVF3dF7rh6Aw4LNm3mY3RzUREIFoAky9Y30giguKH6vZCyxG/dhHMNkLLD7EM+qIu/NRErCujtUoTShgLKFgpRA+jMBitA+jUSiMWPQ8rkb5QGG2bt06I6+slELr2PgEln1fjMJhehxrW1lpW5bAii2QeJ5V+Jwyh7LKaqxfRLaUKRRYlBT8npFDFAn20UzWOZbgYSQZI8qs9jACi31Y4oRSkClplD6Ul5ZEseQMI8RYcN1qlsDi2Bk1ZJ9euWzZMvA8SqaGDRuaeTH6ioXYKWh4T/DeoVCiLKEgsmQlI4rsZZg9f0ZRMWqM6YxcT0Z2UcrEFliMWKIUZP0ypv6xMXqK950lsPg9I9NYl4zRgvbRSfbXpMBi9BPvLUbHcb68npUSyjHxeryPuZbWJgDswxJYjL5iFJbVOF8WkydD3k/26xBbYFnF1cmQktFebvL1xWLzFKcUqPFFYDH6igIxdtqjNR5KVq4h15wSzj5N0TrGEljcbZMCT00EROC/E5DA+u/sdKYIiEAqJeDIAmvG5iB8vCsYvSt5orNdtA8jcT7ZE2wr4k5R1XW9P55k2lhjb1u0Vv8fAvDdiVCbwOIOed3W+eOcbwSWvuhjk2Knb0Wg1Qo/hERE2gSWtfte7PSyLWejalHl9IrehXDD4VAM+DUAtfK5Yobd9WPfUg8isC75RYKF5CvkjhIqTIts9pWv2VVxyYuUTjGLYMUlsDafCUP37/xRLrsr5j3vDY87H+T/fToMb/8YgNLZXDCnsZeJGpu2McgUdv/oOW88fSfCi7x6rA/AzkthNoFFgVfj09uG8Q9t0psC7GwsMt9wqa/ZjdAq4r50d4jZxXHh89540q6GWVwvNRacf2VlVOrf1AZe4Pf2AuvfS2GmKH7ZHC6Y2Sh6LjM3B2P+riDULxQVgXXJLwKd1vrjelAk5jX2RpkcdwspK4XwwzpRqZ1L9wRjwj9BeDpvdJ2uVPrnQMMWgUQlwIdrpiMxEorixT4a40EEFotOsxg4pQflh9WYXkZxQQFgRXc9bAQWC3QzOoWygtE0cUWQMBWOv2MRdR4bO1KLD/CMFKIkiKsGkDV+Cgymi7GuEcXFvQQWo7YozRghQ4FhSRKmJbKIt1XEnTKFDFjUnMXEGakUuyWVwGKKI3lQcjAqiRFJlFmWWOK9wMgwiiV7rpbA4vw5N9ZuYqPQoThiEX5KH0v0sO4X5RxlJlNLufaWbGQEEKO7uNsd5VBcKWz2PFi8f9++fbbUzNgCi1FclGWUQ1Zf3CGSNbgsgcX+KGsOHjxoiuYz1TKuZr8LIXffJBuuI4UQUwu5eyajvTgXilF7RpbAohDia8kSc4yO4/dkTVZs8UVgcR7sf//+/ab2lsWMOwTynuU9Y4nbuGpgUczyniejypUrxzlHpscy8orrz/py9tLaOsGKWGN0JfmriYAI/HcCElj/nZ3OFAERSKUEHFlg7b8cbsQUd617s7yH2eVv+/lwLDsYbFLQaheMisA6dTNKWgSFRaJjBQ/ky+iM74+E4tfToebcN8pE1cBiquFo7vh3MAR1Crrh+eJuYPrel/uCcSUwEi5OsAks1rrqtMYfWy6E4dkCbmhUzA0UOot3B+OCfwSyp4sWWDx20E9RsozFzZ8v4W6KgZ+8Ho79V8JN0fWcd3YhTGgEVp1Ft3E1KBILm3jjyXyuCA4H3vslABuOh6Jcdhc0LuYOdxdg14Vw1C/ihlqFXe/ahZCM+n4fYDjUzOuGmoVdcT0wEqsOhuBqYAQ+qOmFxsWjUgu3nwtHtw1+8HZzQq8qnobF7yfDsPl8GPxCI20Ci8d+uTcE4/8JRG5v56jotEgnLP032Eg2HkuBlTu9MxouuW12jlz7WlR9GKtxXB2+8TM7RhbK7AwPFydsOBKC9cdC0bmih7n+kasxBRZTBdt+4w8WoG9fzgPFsjrj71Nh+PZoiLkX6hSIElj8etaWICzYFYx8Ps5oWsIdOXyidmsslMkZL5d2j7ELYeNibua+eOd7f/x6OgwdynmiVxUVc0+lfw417EQmYNXVseoi2Xf/IAKLIowP+XzwpsTgwzNr8lBe8IGZD+NWcfiHFViMxqGcoByjiKFMYXoj0w8pGJhexUgdPqQzpYwP/LGbJTgolRgxQ+HF2l8UC0w5ZL0qRsGwsD3rMrEv1mK6l8BixBYFBWskUWJxpzjy4LU4ZquIO8fCtDumXTLChjsAMmWMvBgRxbVIKoHFFEBGP7FYPhsFjbUuFC0sSh5XWp/9LoSM7KlXr55hv3XrVlBWca5cfyuah+ysyCjKQ87VSmmjzGMkEXe3Y4SP1XgOxQs5se4Y+6LsYrF3S/7x2NgCyyqozig77vxH8cTIO8o11s5i3Sc2RhVRApExa5tRKJED67HxGMooe4HFc1inigKS6XaUPUy5ZKF++8Lz1vgtgcV5MgKPaYS8F9gHr8koLO7gyBafwOLvGGXHObHIOgUgBSujAMmZ9bIolHiNuHYh5GuAry9GpPF1wXFzDBRfPIfpifw/x8SoSaaT8hocL7lR1lm11RhRx78BjPhi7Tn+Z+0Mmch/htSdCDg0AQksh15eTU4ERCAuAo4ssCgjmB44/LcAHL8VYaaf3dMJ3Sp5Yv6uYJTO7mKrgfXryVC891ugEShspbK6oHNFT0zbEmiicyiw2G4ERmL0H4H45XQomErH9lxhNxNJtOpwdA0s/vxWUCSm/ROErw+F2NC3L+NhJMrWC2G2XQj5S/5s9uYgLD8UilAO/E5rVNgd79XyNGmNU/4OxGf7QvBpMx+Uz3nvGlgtvvLDkZvhJg2u/J16WZRPTOlbfZQCKuoalFgzG3ijWgFXjPkzEF/tD8FXzX1Q6k7kUUBoJD7fE4K5O4OMBGMrktEFQ2p4olIeV1saJYe8+mCIiUTyDYnqu4CPs9mBscf3ATEElkm32x2MuTuCTdQaY7Ao+V4o4Y63f/Q3Aov1rbpu8EenCh7oE2tnRV6r93p//H42zMaJNcXalvZAuwoeyOTpZFIIX1/tZ3YXZAohI762XwjHwJ8CcDkwauHyeTsb2TVvZxCKZnIxAouNUWLrjoQY2Xjszn3j5gxTSP7VMu74bFdUDaxxz0ZFYLExgqz7en+zM+KEZ71QP1bNMP31EYG0RoDSicKFtaKYRhb74dTaLY9pgEyPsy82HjuFkOwoqvhwT0HBvs3fmAIFTAoZI2EsgcEIID6MM/rJvgYWI2Qogfh7++LulCxWUXFKEzbKCV6Lgoniw2p8wGfNLQoM/me/S5z9+lIoUBJQDLBxbEwZY70mjsFqLC7OdC1G7FA2URBQzFhpXPZ9cs5Mz2KKo9UH5Q1lFsWHVQOL5/BYRkMx/Y6CjI3ygGKFUVkUcZQtsWttWdFn8dXAYo0jphzGVcTdGitT8cgmW7ZsJjqO8+J4KD5YD43rYO0CaZ1jCSzuSMmdCSlArDFTErLuU+woN+s6LETP31sRaVZBc6selHUNSj7+7Ndff42xpkxRpZS0dk5kNBf5UmyxMeKI68yxs1HKcH1YuJwCzBJY7J9ikCmzXCfrvuFcOXdLYLHWFoUrGyOieE/wfmU9LMousmAaYuzIMUtg8do8zhoPXzdMQSUHq1g9BR5TAmMzsO4Nyim+PjgHNq4RZR/X15KEcQksHktRR8HL/1uNTHgvsd6YFW23ceNGk55JRmz8Oa9BgclGVozE498BNr6OKS7VREAEHoyABNaD8dLRIiACDkDAkQWW7R+uAK76RyI8MtLUQKLMiKsx2ur87Qh4ujqZ3eziO47nUnKcux2BbN5OtppZ8d0OYRGRuOQHZPMCPFzjufidkxkFdsk30tReYpqf+32Oj++aASGRuBYYifwZ466pdcGXkikSOXycTbTU/RqPvng7Aj4eTkh/p0ZYfOcwDY9dZrsHa57LyKWLfhEmyspKJbzfOOx/T1F2xS8C6dyckcvHKd4aWfbnWMXfiZVzv9ca8zzfYMqpCHM/2O9k+SDj1LEiIAKJR4CigFKBcsq+8HviXSG6J8o1Ri7xmhQoce3od6/rUvTwP9YDsoQEH9gpzFjf6F7phffql+dTkHBMlC2MmqF8o7yJ3ShJOAfysnY7fFhW9xJY/6VvS2AxmmfKlCmGFQvzU6bEVcPKklGMPrMvEp+Qa5MH+6bw4rrEVeQ+rn44Z0pUirn7pSVSgJI5x55YzC2BxZ0AKcF4H5GX/b2VkPnbH8PzOSf7Qu/W7+MTWNbvyYM7TfK+4jzjSrXlsZS5PI7HxK6HxXuYr2UKsLg2THjQ+eh4EUiLBCSw0uKqa84ikMYJpAWBlcaXWNMXAREQARFwUAKMormXwEqKabN2F9PcGPXFlMEHFXuxxxRbYN1PTDIlk+lqlsh62OsnBaPE7tMSWIzeYpRaUjdG6bHOG1MVGaEWX2H6pB6H+hcBEbg3AQks3SEiIAJpjoAEVppbck1YBERABETAQQgkp8Bi5BLrOnGXxw0bNpjdF5lSGV/0TUIRJ0RgMVqHhfEZ3cQaT4weokRj7bC00JJLYDHll+vBNE7WIGPNKqYWqomACKRMAhJYKXNdNCoREIEkJCCBlYRw1bUIiIAIiIAIJCGB5BRYrB/10UcfmZpWrCPGwuOJUXg7IQKLqW7t27c3JJnC16ZNGzz//PNJSDZldW2fQshi8knVWHydtd8YccUi7UzRtK8ll1TXVb8iIAL/jYAE1n/jprNEQARSMQEJrFS8eBq6CIiACIhAmibAOl2MiqLUsYrQJxUQiivuQMedAv9r/a64xsZ+rZ0LmZYYX2NdKc7XKrieVPNMif0y4ozz59xZMyqpmnU/ZcmSxexUqCYCIpCyCUhgpez10ehEQASSgIAEVhJAVZciIAIiIAIiIAIiIAIiIAIikIQEJLCSEK66FgERSJkEJLBS5rpoVCIgAiIgAiIgAiIgAiIgAiIQHwEJLN0bIiACaY6ABFaaW3JNWAREQAREQAREQAREQAREIJUTkMBK5Quo4YuACDw4AQmsB2emM0RABERABERABERABERABETgURKQwHqU9HVtERCBR0JAAuuRYNdFRUAEREAEREAEREAEREAEROA/E5DA+s/odKIIiEBqJSCBlVpXTuMWAREQAREQAREQAREQARFIqwQksNLqymveIpCGCUhgpeHF19RFQAREQAREQAREQAREQARSJQEJrFS5bBq0CIjAwxCQwHoYejpXBERABERABERABERABERABJKfwP/btZvdOK4cAKMNZO/3f1Q7dpyBFoMCBhiASig2f85Cu1Jd3sNafWgBq97ciQQIvFlAwHrzAhxPgAABAgQIECBAgACBTwoIWJ8E8zgBAvMFBKz5O3QDAgQIECBAgAABAgRuCQhYt/bttgQIvF4vActnQIAAAQIECBAgQIAAgVkCAtasfZmWAIEEAQErAdErCBAgQIAAAQIECBAgUCggYBViO4oAgR4CAlaPPZiCAAECBAgQIECAAAECUQEBKyrlOQIE1ggIWGtW6SIECBAgQIAAAQIECBwRELCOLNo1CRB4BAQsXwMBAgQIECBAgAABAgRmCQhYs/ZlWgIEEgQErAREryBAgAABAgQIECBAgEChgIBViO0oAgR6CAhYPfZgCgIECBAgQIAAAQIECEQFBKyolOcIEFgjIGCtWaWLECBAgAABAgQIECBwREDAOrJo1yRA4BEQsHwNBAgQIECAAAECBAgQmCUgYM3al2kJEEgQELASEL2CAAECBAgQIECAAAEChQICViG2owgQ6CEgYPXYgykIECBAgAABAgQIECAQFRCwolKeI0BgjcA7A9bPnz9fP378eH379m2Np4sQbnTeAgAAFHFJREFUIECAAAECBAgQIEDgqwUErK8W9n4CBNoJvDtg/fnnn68//vjj9ddff73+/vvvdj4GIkCAAAECBAgQIECAQDcBAavbRsxDgMCXC7wrYH3Eql+/fr0+Atb3799fH7/G+v37t4j15Rt3AAECBAgQIECAAAEC0wUErOkbND8BAp8WeGfA+ghWH7+8+ghZfoH16dX5BwIECBAgQIAAAQIEjgoIWEcX79oELgu8K2B9mH/8Cut//y7vwt0JECBAgAABAgQIECAQERCwIkqeIUBglcA7A9Z/I9YqUJchQIAAAQIECBAgQIDAFwsIWF8M7PUECPQTeHfA6idiIgIECBAgQIAAAQIECPQWELB678d0BAh8gYCA9QWoXkmAAAECBAgQIECAAIEvFBCwvhDXqwkQ6CkgYPXci6kIECBAgAABAgQIECDw/wQELN8GAQLnBASscyt3YQIECBAgQIAAAQIEhgsIWMMXaHwCBD4vIGB93sx/ECBAgAABAgQIECBA4J0CAtY79Z1NgMBbBASst7A7lAABAgQIECBAgAABAv9YQMD6x3T+kQCBqQIC1tTNmZsAAQIECBAgQIAAgasCAtbVzbs3gcMCAtbh5bs6AQIECBAgQIAAAQIjBQSskWszNAEC/0ZAwPo3ev6XAAECBAgQIECAAAEC9QICVr25EwkQeLOAgPXmBTieAAECBAgQIECAAAECnxQQsD4J5nECBOYLCFjzd+gGBAgQIECAAAECBAjcEhCwbu3bbQkQeL1eApbPgAABAgQIECBAgAABArMEBKxZ+zItAQIJAgJWAqJXECBAgAABAgQIECBAoFBAwCrEdhQBAj0EBKweezAFAQIECBAgQIAAAQIEogICVlTKcwQIrBEQsNas0kUIECBAgAABAgQIEDgiIGAdWbRrEiDwCAhYvgYCBAgQIECAAAECBAjMEhCwZu3LtAQIJAgIWAmIXkGAAAECBAgQIECAAIFCAQGrENtRBAj0EBCweuzBFAQIECBAgAABAgQIEIgKCFhRKc8RILBGQMBas0oXIUCAAAECBAgQIEDgiICAdWTRrkmAwCMgYPkaCBAgQIAAAQIECBAgMEtAwJq1L9MSIJAgIGAlIHoFAQIECBAgQIAAAQIECgUErEJsRxEg0ENAwOqxB1MQIECAAAECBAgQIEAgKiBgRaU8R4DAGgEBa80qXYQAAQIECBAgQIAAgSMCAtaRRbsmAQKPgIDlayBAgAABAgQIECBAgMAsAQFr1r5MS4BAgoCAlYDoFQQIECBAgAABAgQIECgUELAKsR1FgEAPAQGrxx5MQYAAAQIECBAgQIAAgaiAgBWV8hwBAmsEBKw1q3QRAgQIECBAgAABAgSOCAhYRxbtmgQIPAIClq+BAAECBAgQIECAAAECswQErFn7Mi0BAgkCAlYColcQIECAAAECBAgQIECgUEDAKsR2FAECPQQErB57MAUBAgQIECBAgAABAgSiAgJWVMpzBAisERCw1qzSRQgQIECAAAECBAgQOCIgYB1ZtGsSIPAICFi+BgIECBAgQIAAAQIECMwSELBm7cu0BAgkCAhYCYheQYAAAQIECBAgQIAAgUIBAasQ21EECPQQELB67MEUBAgQIECAAAECBAgQiAoIWFEpzxEgsEZAwFqzShchQIAAAQIECBAgQOCIgIB1ZNGuSYDAIyBg+RoIECBAgAABAgQIECAwS0DAmrUv0xIgkCAgYCUgegUBAgQIECBAgAABAgQKBQSsQmxHESDQQ0DA6rEHUxAgQIAAAQIECBAgQCAqIGBFpTxHgMAaAQFrzSpdhAABAgQIECBAgACBIwIC1pFFuyYBAo+AgOVrIECAAAECBAgQIECAwCwBAWvWvkxLgECCgICVgOgVBAgQIECAAAECBAgQKBQQsAqxHUWAQA8BAavHHkxBgAABAgQIECBAgACBqICAFZXyHAECawQErDWrdBECBAgQIECAAAECBI4ICFhHFu2aBAg8AgKWr4EAAQIECBAgQIAAAQKzBASsWfsyLQECCQICVgKiVxAgQIAAAQIECBAgQKBQQMAqxHYUAQI9BASsHnswBQECBAgQIECAAAECBKICAlZUynMECKwRELDWrNJFCBAgQIAAAQIECBA4IiBgHVm0axIg8AgIWL4GAgQIECBAgAABAgQIzBIQsGbty7QECCQICFgJiF5BgAABAgQIECBAgACBQgEBqxDbUQQI9BAQsHrswRQECBAgQIAAAQIECBCICghYUSnPESCwRkDAWrNKFyFAgAABAgQIECBA4IiAgHVk0a5JgMAjIGD5GggQIECAAAECBAgQIDBLQMCatS/TEiCQICBgJSB6BQECBAgQIECAAAECBAoFBKxCbEcRINBDQMDqsQdTECBAgAABAgQIECBAICogYEWlPEeAwBoBAWvNKl2EAAECBAgQIECAAIEjAgLWkUW7JgECj4CA5WsgQIAAAQIECBAgQIDALAEBa9a+TEuAQIKAgJWA6BUECBAgQIAAAQIECBAoFBCwCrEdRYBADwEBq8ceTEGAAAECBAgQIECAAIGogIAVlfIcAQJrBASsNat0EQIECBAgQIAAAQIEjggIWEcW7ZoECDwCApavgQABAgQIECBAgAABArMEBKxZ+zItAQIJAgJWAqJXECBAgAABAgQIECBAoFBAwCrEdhQBAj0EBKweezAFAQIECBAgQIAAAQIEogICVlTKcwQIrBEQsNas0kUIECBAgAABAgQIEDgiIGAdWbRrEiDwCAhYvgYCBAgQIECAAAECBAjMEhCwZu3LtAQIJAgIWAmIXkGAAAECBAgQIECAAIFCAQGrENtRBAj0EBCweuzBFAQIECBAgAABAgQIEIgKCFhRKc8RILBGQMBas0oXIUCAAAECBAgQIEDgiICAdWTRrkmAwCMgYPkaCBAgQIAAAQIECBAgMEtAwJq1L9MSIJAgIGAlIHoFAQIECBAgQIAAAQIECgUErEJsRxEg0ENAwOqxB1MQIECAAAECBAgQIEAgKiBgRaU8R4DAGgEBa80qXYQAAQIECBAgQIAAgSMCAtaRRbsmAQKPgIDlayBAgAABAgQIECBAgMAsAQFr1r5MS4BAgoCAlYDoFQQIECBAgAABAgQIECgUELAKsR1FgEAPAQGrxx5MQYAAAQIECBAgQIAAgaiAgBWV8hwBAmsEBKw1q3QRAgQIECBAgAABAgSOCAhYRxbtmgQIPAIClq+BAAECBAgQIECAAAECswQErFn7Mi0BAgkCAlYColcQIECAAAECBAgQIECgUEDAKsR2FAECPQQErB57MAUBAgQIECBAgAABAgSiAgJWVMpzBAisERCw1qzSRQgQIECAAAECBAgQOCIgYB1ZtGsSIPAICFi+BgIECBAgQIAAAQIECMwSELBm7cu0BAgkCAhYCYheQYAAAQIECBAgQIAAgUIBAasQ21EECPQQELB67MEUBAgQIECAAAECBAgQiAoIWFEpzxEgsEZAwFqzShchQIAAAQIECBAgQOCIgIB1ZNGuSYDAIyBg+RoIECBAgAABAgQIECAwS0DAmrUv0xIgkCAgYCUgegUBAgQIECBAgAABAgQKBQSsQmxHESDQQ0DA6rEHUxAgQIAAAQIECBAgQCAqIGBFpTxHgMAaAQFrzSpdhAABAgQIECBAgACBIwIC1pFFuyYBAo+AgOVrIECAAAECBAgQIECAwCwBAWvWvkxLgECCgICVgOgVBAgQIECAAAECBAgQKBQQsAqxHUWAQA8BAavHHkxBgAABAgQIECBAgACBqICAFZXyHAECawQErDWrdBECBAgQIECAAAECBI4ICFhHFu2aBAg8AgKWr4EAAQIECBAgQIAAAQKzBASsWfsyLQECCQICVgKiVxAgQIAAAQIECBAgQKBQQMAqxHYUAQI9BASsHnswBQECBAgQIECAAAECBKICAlZUynMECKwRELDWrNJFCBAgQIAAAQIECBA4IiBgHVm0axIg8AgIWL4GAgQIECBAgAABAgQIzBIQsGbty7QECCQICFgJiF5BgAABAgQIECBAgACBQgEBqxDbUQQI9BAQsHrswRQECBAgQIAAAQIECBCICghYUSnPESCwRkDAWrNKFyFAgAABAgQIECBA4IiAgHVk0a5JgMAjIGD5GggQIECAAAECBAgQIDBLQMCatS/TEiCQICBgJSB6BQECBAgQIECAAAECBAoFBKxCbEcRINBDQMDqsQdTECBAgAABAgQIECBAICogYEWlPEeAwBoBAWvNKl2EAAECBAgQIECAAIEjAgLWkUW7JgECj4CA5WsgQIAAAQIECBAgQIDALAEBa9a+TEuAQIKAgJWA6BUECBAgQIAAAQIECBAoFBCwCrEdRYBADwEBq8ceTEGAAAECBAgQIECAAIGogIAVlfIcAQJrBASsNat0EQIECBAgQIAAAQIEjggIWEcW7ZoECDwCApavgQABAgQIECBAgAABArMEBKxZ+zItAQIJAgJWAqJXECBAgAABAgQIECBAoFBAwCrEdhQBAj0EBKweezAFAQIECBAgQIAAAQIEogICVlTKcwQIrBEQsNas0kUIECBAgAABAgQIEDgiIGAdWbRrEiDwCAhYvgYCBAgQIECAAAECBAjMEhCwZu3LtAQIJAgIWAmIXkGAAAECBAgQIECAAIFCAQGrENtRBAj0EBCweuzBFAQIECBAgAABAgQIEIgKCFhRKc8RILBGQMBas0oXIUCAAAECBAgQIEDgiICAdWTRrkmAwCMgYPkaCBAgQIAAAQIECBAgMEtAwJq1L9MSIJAgIGAlIHoFAQIECBAgQIAAAQIECgUErEJsRxEg0ENAwOqxB1MQIECAAAECBAgQIEAgKiBgRaU8R4DAGgEBa80qXYQAAQIECBAgQIAAgSMCAtaRRbsmAQKPgIDlayBAgAABAgQIECBAgMAsAQFr1r5MS4BAgoCAlYDoFQQIECBAgAABAgQIECgUELAKsR1FgEAPAQGrxx5MQYAAAQIECBAgQIAAgaiAgBWV8hwBAmsEBKw1q3QRAgQIECBAgAABAgSOCAhYRxbtmgQIPAIClq+BAAECBAgQIECAAAECswQErFn7Mi0BAgkCAlYColcQIECAAAECBAgQIECgUEDAKsR2FAECPQQErB57MAUBAgQIECBAgAABAgSiAgJWVMpzBAisERCw1qzSRQgQIECAAAECBAgQOCIgYB1ZtGsSIPAICFi+BgIECBAgQIAAAQIECMwSELBm7cu0BAgkCAhYCYheQYAAAQIECBAgQIAAgUIBAasQ21EECPQQELB67MEUBAgQIECAAAECBAgQiAoIWFEpzxEgsEZAwFqzShchQIAAAQIECBAgQOCIgIB1ZNGuSYDAIyBg+RoIECBAgAABAgQIECAwS0DAmrUv0xIgkCAgYCUgegUBAgQIECBAgAABAgQKBQSsQmxHESDQQ0DA6rEHUxAgQIAAAQIECBAgQCAqIGBFpTxHgMAaAQFrzSpdhAABAgQIECBAgACBIwIC1pFFuyYBAo+AgOVrIECAAAECBAgQIECAwCwBAWvWvkxLgECCgICVgOgVBAgQIECAAAECBAgQKBQQsAqxHUWAQA8BAavHHkxBgAABAgQIECBAgACBqICAFZXyHAECawQErDWrdBECBAgQIECAAAECBI4ICFhHFu2aBAg8AgKWr4EAAQIECBAgQIAAAQKzBASsWfsyLQECCQICVgKiVxAgQIAAAQIECBAgQKBQQMAqxHYUAQI9BASsHnswBQECBAgQIECAAAECBKICAlZUynMECKwRELDWrNJFCBAgQIAAAQIECBA4IiBgHVm0axIg8AgIWL4GAgQIECBAgAABAgQIzBIQsGbty7QECCQICFgJiF5BgAABAgQIECBAgACBQgEBqxDbUQQI9BAQsHrswRQECBAgQIAAAQIECBCICghYUSnPESCwRkDAWrNKFyFAgAABAgQIECBA4IiAgHVk0a5JgMAjIGD5GggQIECAAAECBAgQIDBLQMCatS/TEiCQICBgJSB6BQECBAgQIECAAAECBAoFBKxCbEcRINBDQMDqsQdTECBAgAABAgQIECBAICogYEWlPEeAwBoBAWvNKl2EAAECBAgQIECAAIEjAgLWkUW7JgECj4CA5WsgQIAAAQIECBAgQIDALAEBa9a+TEuAQIKAgJWA6BUECBAgQIAAAQIECBAoFBCwCrEdRYBADwEBq8ceTEGAAAECBAgQIECAAIGogIAVlfIcAQJrBASsNat0EQIECBAgQIAAAQIEjggIWEcW7ZoECDwCApavgQABAgQIECBAgAABArMEBKxZ+zItAQIJAgJWAqJXECBAgAABAgQIECBAoFBAwCrEdhQBAj0EBKweezAFAQIECBAgQIAAAQIEogICVlTKcwQIrBEQsNas0kUIECBAgAABAgQIEDgiIGAdWbRrEiDwCAhYvgYCBAgQIECAAAECBAjMEhCwZu3LtAQIJAgIWAmIXkGAAAECBAgQIECAAIFCAQGrENtRBAj0EBCweuzBFAQIECBAgAABAgQIEIgKCFhRKc8RILBGQMBas0oXIUCAAAECBAgQIEDgiICAdWTRrkmAwCMgYPkaCBAgQIAAAQIECBAgMEtAwJq1L9MSIJAgIGAlIHoFAQIECBAgQIAAAQIECgUErEJsRxEg0ENAwOqxB1MQIECAAAECBAgQIEAgKiBgRaU8R4DAGgEBa80qXYQAAQIECBAgQIAAgSMCAtaRRbsmAQKPgIDlayBAgAABAgQIECBAgMAsAQFr1r5MS4BAgoCAlYDoFQQIECBAgAABAgQIECgUELAKsR1FgEAPAQGrxx5MQYAAAQIECBAgQIAAgaiAgBWV8hwBAmsEBKw1q3QRAgQIECBAgAABAgSOCAhYRxbtmgQIPAIClq+BAAECBAgQIECAAAECswQErFn7Mi0BAgkCAlYColcQIECAAAECBAgQIECgUOA/oTdNWKgfB5kAAAAASUVORK5CYII=;" parent="1" vertex="1">
          <mxGeometry x="10" y="99.99999999999999" width="380" height="231.17" as="geometry" />
        </mxCell>
        <mxCell id="QEaJxpqpwJVfrGncPEcR-19" value="Slack API ???" style="rounded=0;whiteSpace=wrap;html=1;fillColor=#fff2cc;strokeColor=#d6b656;" parent="1" vertex="1">
          <mxGeometry x="-260" y="482.34000000000003" width="70" height="58.83" as="geometry" />
        </mxCell>
        <mxCell id="QEaJxpqpwJVfrGncPEcR-20" value="" style="endArrow=classic;html=1;rounded=0;" parent="1" source="QEaJxpqpwJVfrGncPEcR-19" target="QEaJxpqpwJVfrGncPEcR-2" edge="1">
          <mxGeometry width="50" height="50" relative="1" as="geometry">
            <mxPoint x="190" y="720" as="sourcePoint" />
            <mxPoint x="240" y="670" as="targetPoint" />
          </mxGeometry>
        </mxCell>
        <mxCell id="QEaJxpqpwJVfrGncPEcR-21" value="" style="endArrow=none;dashed=1;html=1;rounded=0;" parent="1" edge="1">
          <mxGeometry width="50" height="50" relative="1" as="geometry">
            <mxPoint y="1010" as="sourcePoint" />
            <mxPoint y="90" as="targetPoint" />
          </mxGeometry>
        </mxCell>
        <mxCell id="QEaJxpqpwJVfrGncPEcR-22" value="dauden.cloud" style="text;html=1;strokeColor=none;fillColor=none;align=center;verticalAlign=middle;whiteSpace=wrap;rounded=0;fontStyle=7" parent="1" vertex="1">
          <mxGeometry x="420" width="115" height="40" as="geometry" />
        </mxCell>
        <mxCell id="QEaJxpqpwJVfrGncPEcR-23" value="Slack API" style="text;html=1;strokeColor=none;fillColor=none;align=center;verticalAlign=middle;whiteSpace=wrap;rounded=0;fontStyle=7" parent="1" vertex="1">
          <mxGeometry x="-260" y="10" width="115" height="40" as="geometry" />
        </mxCell>
        <mxCell id="QEaJxpqpwJVfrGncPEcR-25" value="https://dauden.cloud/slack/events" style="rounded=0;whiteSpace=wrap;html=1;fillColor=#d5e8d4;strokeColor=#82b366;" parent="1" vertex="1">
          <mxGeometry x="-120" y="491.17" width="220" height="20" as="geometry" />
        </mxCell>
        <mxCell id="QEaJxpqpwJVfrGncPEcR-26" value="" style="endArrow=none;dashed=1;html=1;rounded=0;" parent="1" edge="1">
          <mxGeometry width="50" height="50" relative="1" as="geometry">
            <mxPoint x="-600" y="1010" as="sourcePoint" />
            <mxPoint x="-600" y="90" as="targetPoint" />
          </mxGeometry>
        </mxCell>
        <mxCell id="QEaJxpqpwJVfrGncPEcR-27" value="End User" style="text;html=1;strokeColor=none;fillColor=none;align=center;verticalAlign=middle;whiteSpace=wrap;rounded=0;fontStyle=7" parent="1" vertex="1">
          <mxGeometry x="-810" y="10" width="115" height="40" as="geometry" />
        </mxCell>
        <mxCell id="QEaJxpqpwJVfrGncPEcR-28" value="Chat message" style="rounded=0;whiteSpace=wrap;html=1;fillColor=#e1d5e7;strokeColor=#9673a6;" parent="1" vertex="1">
          <mxGeometry x="-810" y="191.18" width="90" height="54.41" as="geometry" />
        </mxCell>
        <mxCell id="QEaJxpqpwJVfrGncPEcR-34" style="edgeStyle=orthogonalEdgeStyle;rounded=0;orthogonalLoop=1;jettySize=auto;html=1;" parent="1" source="QEaJxpqpwJVfrGncPEcR-29" target="QEaJxpqpwJVfrGncPEcR-19" edge="1">
          <mxGeometry relative="1" as="geometry" />
        </mxCell>
        <mxCell id="QEaJxpqpwJVfrGncPEcR-29" value="Slack thread_jp" style="rounded=0;whiteSpace=wrap;html=1;fillColor=#fff2cc;strokeColor=#d6b656;" parent="1" vertex="1">
          <mxGeometry x="-560" y="185.59" width="160" height="64.41" as="geometry" />
        </mxCell>
        <mxCell id="QEaJxpqpwJVfrGncPEcR-30" value="Slack thread_vn" style="rounded=0;whiteSpace=wrap;html=1;fillColor=#fff2cc;strokeColor=#d6b656;" parent="1" vertex="1">
          <mxGeometry x="-560" y="750" width="160" height="60" as="geometry" />
        </mxCell>
        <mxCell id="QEaJxpqpwJVfrGncPEcR-32" value="" style="endArrow=classic;html=1;rounded=0;" parent="1" source="QEaJxpqpwJVfrGncPEcR-28" target="QEaJxpqpwJVfrGncPEcR-29" edge="1">
          <mxGeometry width="50" height="50" relative="1" as="geometry">
            <mxPoint x="-550" y="370" as="sourcePoint" />
            <mxPoint x="-500" y="320" as="targetPoint" />
          </mxGeometry>
        </mxCell>
        <mxCell id="QEaJxpqpwJVfrGncPEcR-36" value="external_action" style="rounded=0;whiteSpace=wrap;html=1;fillColor=#d5e8d4;strokeColor=#82b366;" parent="1" vertex="1">
          <mxGeometry x="960" y="481.16999999999996" width="120" height="60" as="geometry" />
        </mxCell>
        <mxCell id="QEaJxpqpwJVfrGncPEcR-42" style="edgeStyle=orthogonalEdgeStyle;rounded=0;orthogonalLoop=1;jettySize=auto;html=1;" parent="1" source="QEaJxpqpwJVfrGncPEcR-38" target="QEaJxpqpwJVfrGncPEcR-30" edge="1">
          <mxGeometry relative="1" as="geometry">
            <Array as="points">
              <mxPoint x="1320" y="780" />
            </Array>
          </mxGeometry>
        </mxCell>
        <mxCell id="QEaJxpqpwJVfrGncPEcR-38" value="slack_events" style="rounded=0;whiteSpace=wrap;html=1;fillColor=#dae8fc;strokeColor=#6c8ebf;" parent="1" vertex="1">
          <mxGeometry x="1260" y="481.16999999999996" width="120" height="60" as="geometry" />
        </mxCell>
        <mxCell id="QEaJxpqpwJVfrGncPEcR-40" style="edgeStyle=orthogonalEdgeStyle;rounded=0;orthogonalLoop=1;jettySize=auto;html=1;" parent="1" source="QEaJxpqpwJVfrGncPEcR-36" target="QEaJxpqpwJVfrGncPEcR-38" edge="1">
          <mxGeometry relative="1" as="geometry">
            <mxPoint x="800" y="521" as="sourcePoint" />
            <mxPoint x="970" y="521" as="targetPoint" />
          </mxGeometry>
        </mxCell>
      </root>
    </mxGraphModel>
  </diagram>
  <diagram id="CCr4iugLkNVV7cAOG4bI" name="slack_events">
    <mxGraphModel dx="1434" dy="849" grid="1" gridSize="10" guides="1" tooltips="1" connect="1" arrows="1" fold="1" page="1" pageScale="1" pageWidth="850" pageHeight="1100" math="0" shadow="0">
      <root>
        <mxCell id="0" />
        <mxCell id="1" parent="0" />
        <mxCell id="UXCM1FCCVxhkXjc8UTCl-11" style="edgeStyle=orthogonalEdgeStyle;rounded=0;orthogonalLoop=1;jettySize=auto;html=1;" parent="1" source="2K5gjsjbB7ktsCSh4Wdt-31" target="UXCM1FCCVxhkXjc8UTCl-6" edge="1">
          <mxGeometry relative="1" as="geometry">
            <Array as="points">
              <mxPoint x="2000" y="1290" />
            </Array>
          </mxGeometry>
        </mxCell>
        <mxCell id="2K5gjsjbB7ktsCSh4Wdt-31" value="&lt;b&gt;&lt;i&gt;&lt;u&gt;&amp;lt;&amp;lt; handle_message_event &amp;gt;&amp;gt;&lt;/u&gt;&lt;/i&gt;&lt;/b&gt;" style="html=1;whiteSpace=wrap;align=left;verticalAlign=top;fillColor=#e1d5e7;strokeColor=#9673a6;" parent="1" vertex="1">
          <mxGeometry x="440" y="860" width="1530" height="860" as="geometry" />
        </mxCell>
        <mxCell id="q9v9OwsAh3zwYfxCeVxv-1" value="request" style="rounded=0;whiteSpace=wrap;html=1;" parent="1" vertex="1">
          <mxGeometry x="40" y="200" width="120" height="60" as="geometry" />
        </mxCell>
        <mxCell id="q9v9OwsAh3zwYfxCeVxv-8" style="edgeStyle=orthogonalEdgeStyle;rounded=0;orthogonalLoop=1;jettySize=auto;html=1;" parent="1" source="q9v9OwsAh3zwYfxCeVxv-2" target="q9v9OwsAh3zwYfxCeVxv-7" edge="1">
          <mxGeometry relative="1" as="geometry" />
        </mxCell>
        <mxCell id="q9v9OwsAh3zwYfxCeVxv-20" style="edgeStyle=orthogonalEdgeStyle;rounded=0;orthogonalLoop=1;jettySize=auto;html=1;" parent="1" source="q9v9OwsAh3zwYfxCeVxv-2" target="q9v9OwsAh3zwYfxCeVxv-19" edge="1">
          <mxGeometry relative="1" as="geometry" />
        </mxCell>
        <mxCell id="q9v9OwsAh3zwYfxCeVxv-2" value="body" style="rounded=0;whiteSpace=wrap;html=1;" parent="1" vertex="1">
          <mxGeometry x="270" y="340" width="80" height="60" as="geometry" />
        </mxCell>
        <mxCell id="q9v9OwsAh3zwYfxCeVxv-21" style="edgeStyle=orthogonalEdgeStyle;rounded=0;orthogonalLoop=1;jettySize=auto;html=1;" parent="1" source="q9v9OwsAh3zwYfxCeVxv-3" target="q9v9OwsAh3zwYfxCeVxv-19" edge="1">
          <mxGeometry relative="1" as="geometry" />
        </mxCell>
        <mxCell id="q9v9OwsAh3zwYfxCeVxv-3" value="headers" style="rounded=0;whiteSpace=wrap;html=1;" parent="1" vertex="1">
          <mxGeometry x="270" y="20" width="80" height="50" as="geometry" />
        </mxCell>
        <mxCell id="q9v9OwsAh3zwYfxCeVxv-4" value="" style="endArrow=classic;html=1;rounded=0;" parent="1" source="q9v9OwsAh3zwYfxCeVxv-1" target="q9v9OwsAh3zwYfxCeVxv-2" edge="1">
          <mxGeometry width="50" height="50" relative="1" as="geometry">
            <mxPoint x="120" y="440" as="sourcePoint" />
            <mxPoint x="130" y="400" as="targetPoint" />
          </mxGeometry>
        </mxCell>
        <mxCell id="q9v9OwsAh3zwYfxCeVxv-5" value="" style="endArrow=classic;html=1;rounded=0;" parent="1" source="q9v9OwsAh3zwYfxCeVxv-1" target="q9v9OwsAh3zwYfxCeVxv-3" edge="1">
          <mxGeometry width="50" height="50" relative="1" as="geometry">
            <mxPoint x="130" y="434" as="sourcePoint" />
            <mxPoint x="280" y="396" as="targetPoint" />
          </mxGeometry>
        </mxCell>
        <mxCell id="q9v9OwsAh3zwYfxCeVxv-10" style="edgeStyle=orthogonalEdgeStyle;rounded=0;orthogonalLoop=1;jettySize=auto;html=1;" parent="1" source="q9v9OwsAh3zwYfxCeVxv-7" target="q9v9OwsAh3zwYfxCeVxv-9" edge="1">
          <mxGeometry relative="1" as="geometry" />
        </mxCell>
        <mxCell id="q9v9OwsAh3zwYfxCeVxv-28" style="edgeStyle=orthogonalEdgeStyle;rounded=0;orthogonalLoop=1;jettySize=auto;html=1;" parent="1" source="q9v9OwsAh3zwYfxCeVxv-7" target="q9v9OwsAh3zwYfxCeVxv-27" edge="1">
          <mxGeometry relative="1" as="geometry">
            <Array as="points">
              <mxPoint x="310" y="760" />
            </Array>
          </mxGeometry>
        </mxCell>
        <mxCell id="q9v9OwsAh3zwYfxCeVxv-7" value="json_data" style="rounded=0;whiteSpace=wrap;html=1;fillColor=#e1d5e7;strokeColor=#9673a6;" parent="1" vertex="1">
          <mxGeometry x="270" y="500" width="80" height="60" as="geometry" />
        </mxCell>
        <mxCell id="q9v9OwsAh3zwYfxCeVxv-9" value="(is_url_verification)&lt;br&gt;&#39;type&#39; in json_data and json_data[&#39;type&#39;] == &#39;url_verification&#39;" style="rounded=0;whiteSpace=wrap;html=1;fillColor=#d5e8d4;strokeColor=#82b366;" parent="1" vertex="1">
          <mxGeometry x="485" y="500" width="360" height="60" as="geometry" />
        </mxCell>
        <mxCell id="q9v9OwsAh3zwYfxCeVxv-15" style="edgeStyle=orthogonalEdgeStyle;rounded=0;orthogonalLoop=1;jettySize=auto;html=1;" parent="1" source="q9v9OwsAh3zwYfxCeVxv-11" target="q9v9OwsAh3zwYfxCeVxv-13" edge="1">
          <mxGeometry relative="1" as="geometry">
            <Array as="points">
              <mxPoint x="1065" y="440" />
            </Array>
          </mxGeometry>
        </mxCell>
        <mxCell id="q9v9OwsAh3zwYfxCeVxv-16" value="true" style="edgeLabel;html=1;align=center;verticalAlign=middle;resizable=0;points=[];" parent="q9v9OwsAh3zwYfxCeVxv-15" vertex="1" connectable="0">
          <mxGeometry x="-0.792" y="-1" relative="1" as="geometry">
            <mxPoint x="12" y="-1" as="offset" />
          </mxGeometry>
        </mxCell>
        <mxCell id="q9v9OwsAh3zwYfxCeVxv-17" style="edgeStyle=orthogonalEdgeStyle;rounded=0;orthogonalLoop=1;jettySize=auto;html=1;" parent="1" source="q9v9OwsAh3zwYfxCeVxv-11" target="q9v9OwsAh3zwYfxCeVxv-14" edge="1">
          <mxGeometry relative="1" as="geometry">
            <Array as="points">
              <mxPoint x="1065" y="625" />
            </Array>
          </mxGeometry>
        </mxCell>
        <mxCell id="q9v9OwsAh3zwYfxCeVxv-18" value="false" style="edgeLabel;html=1;align=center;verticalAlign=middle;resizable=0;points=[];" parent="q9v9OwsAh3zwYfxCeVxv-17" vertex="1" connectable="0">
          <mxGeometry x="-0.8353" relative="1" as="geometry">
            <mxPoint as="offset" />
          </mxGeometry>
        </mxCell>
        <mxCell id="q9v9OwsAh3zwYfxCeVxv-11" value="true" style="rhombus;whiteSpace=wrap;html=1;" parent="1" vertex="1">
          <mxGeometry x="1025" y="490" width="80" height="80" as="geometry" />
        </mxCell>
        <mxCell id="q9v9OwsAh3zwYfxCeVxv-12" style="edgeStyle=orthogonalEdgeStyle;rounded=0;orthogonalLoop=1;jettySize=auto;html=1;" parent="1" source="q9v9OwsAh3zwYfxCeVxv-9" target="q9v9OwsAh3zwYfxCeVxv-11" edge="1">
          <mxGeometry relative="1" as="geometry" />
        </mxCell>
        <mxCell id="q9v9OwsAh3zwYfxCeVxv-13" value="response = JsonResponse({&#39;challenge&#39;: json_data[&#39;challenge&#39;]})" style="rounded=0;whiteSpace=wrap;html=1;fillColor=#d5e8d4;strokeColor=#82b366;" parent="1" vertex="1">
          <mxGeometry x="1230" y="420" width="360" height="50" as="geometry" />
        </mxCell>
        <mxCell id="q9v9OwsAh3zwYfxCeVxv-14" value="response = JsonResponse({&#39;status&#39;: &#39;ok&#39;}, status=200)" style="rounded=0;whiteSpace=wrap;html=1;fillColor=#d5e8d4;strokeColor=#82b366;" parent="1" vertex="1">
          <mxGeometry x="1240" y="600" width="360" height="50" as="geometry" />
        </mxCell>
        <mxCell id="q9v9OwsAh3zwYfxCeVxv-23" style="edgeStyle=orthogonalEdgeStyle;rounded=0;orthogonalLoop=1;jettySize=auto;html=1;" parent="1" source="q9v9OwsAh3zwYfxCeVxv-19" target="q9v9OwsAh3zwYfxCeVxv-22" edge="1">
          <mxGeometry relative="1" as="geometry" />
        </mxCell>
        <mxCell id="q9v9OwsAh3zwYfxCeVxv-19" value="Add to log" style="rounded=0;whiteSpace=wrap;html=1;fillColor=#f5f5f5;fontColor=#333333;strokeColor=#666666;" parent="1" vertex="1">
          <mxGeometry x="270" y="170" width="80" height="50" as="geometry" />
        </mxCell>
        <mxCell id="q9v9OwsAh3zwYfxCeVxv-22" value="" style="ellipse;html=1;shape=endState;fillColor=#000000;strokeColor=#ff0000;" parent="1" vertex="1">
          <mxGeometry x="455" y="180" width="30" height="30" as="geometry" />
        </mxCell>
        <mxCell id="q9v9OwsAh3zwYfxCeVxv-39" style="edgeStyle=orthogonalEdgeStyle;rounded=0;orthogonalLoop=1;jettySize=auto;html=1;" parent="1" source="q9v9OwsAh3zwYfxCeVxv-27" target="q9v9OwsAh3zwYfxCeVxv-33" edge="1">
          <mxGeometry relative="1" as="geometry" />
        </mxCell>
        <mxCell id="q9v9OwsAh3zwYfxCeVxv-27" value="(is_message_type)&lt;br&gt;&#39;event&#39; in &lt;b&gt;json_data&lt;/b&gt; and &lt;b&gt;json_data&lt;/b&gt;[&#39;event&#39;][&#39;type&#39;] == &#39;message&#39;" style="rounded=0;whiteSpace=wrap;html=1;fillColor=#d5e8d4;strokeColor=#82b366;" parent="1" vertex="1">
          <mxGeometry x="485" y="730" width="360" height="60" as="geometry" />
        </mxCell>
        <mxCell id="q9v9OwsAh3zwYfxCeVxv-40" style="edgeStyle=orthogonalEdgeStyle;rounded=0;orthogonalLoop=1;jettySize=auto;html=1;entryX=0.25;entryY=1;entryDx=0;entryDy=0;" parent="1" source="q9v9OwsAh3zwYfxCeVxv-33" target="UXCM1FCCVxhkXjc8UTCl-6" edge="1">
          <mxGeometry relative="1" as="geometry">
            <mxPoint x="1740" y="760" as="targetPoint" />
          </mxGeometry>
        </mxCell>
        <mxCell id="q9v9OwsAh3zwYfxCeVxv-41" value="false" style="edgeLabel;html=1;align=center;verticalAlign=middle;resizable=0;points=[];" parent="q9v9OwsAh3zwYfxCeVxv-40" vertex="1" connectable="0">
          <mxGeometry x="-0.9519" relative="1" as="geometry">
            <mxPoint x="20" as="offset" />
          </mxGeometry>
        </mxCell>
        <mxCell id="q9v9OwsAh3zwYfxCeVxv-43" style="edgeStyle=orthogonalEdgeStyle;rounded=0;orthogonalLoop=1;jettySize=auto;html=1;" parent="1" source="q9v9OwsAh3zwYfxCeVxv-33" target="q9v9OwsAh3zwYfxCeVxv-42" edge="1">
          <mxGeometry relative="1" as="geometry" />
        </mxCell>
        <mxCell id="q9v9OwsAh3zwYfxCeVxv-44" value="true" style="edgeLabel;html=1;align=center;verticalAlign=middle;resizable=0;points=[];" parent="q9v9OwsAh3zwYfxCeVxv-43" vertex="1" connectable="0">
          <mxGeometry x="-0.48" y="-1" relative="1" as="geometry">
            <mxPoint as="offset" />
          </mxGeometry>
        </mxCell>
        <mxCell id="q9v9OwsAh3zwYfxCeVxv-33" value="true" style="rhombus;whiteSpace=wrap;html=1;" parent="1" vertex="1">
          <mxGeometry x="1025" y="720" width="80" height="80" as="geometry" />
        </mxCell>
        <mxCell id="q9v9OwsAh3zwYfxCeVxv-46" style="edgeStyle=orthogonalEdgeStyle;rounded=0;orthogonalLoop=1;jettySize=auto;html=1;" parent="1" source="q9v9OwsAh3zwYfxCeVxv-42" target="q9v9OwsAh3zwYfxCeVxv-45" edge="1">
          <mxGeometry relative="1" as="geometry" />
        </mxCell>
        <mxCell id="q9v9OwsAh3zwYfxCeVxv-42" value="channel_id = json_data[&#39;event&#39;].get(&#39;channel&#39;, &#39;&#39;)" style="rounded=0;whiteSpace=wrap;html=1;" parent="1" vertex="1">
          <mxGeometry x="935" y="900" width="260" height="60" as="geometry" />
        </mxCell>
        <mxCell id="q9v9OwsAh3zwYfxCeVxv-47" style="edgeStyle=orthogonalEdgeStyle;rounded=0;orthogonalLoop=1;jettySize=auto;html=1;" parent="1" source="q9v9OwsAh3zwYfxCeVxv-45" target="UXCM1FCCVxhkXjc8UTCl-1" edge="1">
          <mxGeometry relative="1" as="geometry" />
        </mxCell>
        <mxCell id="q9v9OwsAh3zwYfxCeVxv-48" value="false" style="edgeLabel;html=1;align=center;verticalAlign=middle;resizable=0;points=[];" parent="q9v9OwsAh3zwYfxCeVxv-47" vertex="1" connectable="0">
          <mxGeometry x="-0.9351" y="1" relative="1" as="geometry">
            <mxPoint as="offset" />
          </mxGeometry>
        </mxCell>
        <mxCell id="q9v9OwsAh3zwYfxCeVxv-50" style="edgeStyle=orthogonalEdgeStyle;rounded=0;orthogonalLoop=1;jettySize=auto;html=1;" parent="1" source="q9v9OwsAh3zwYfxCeVxv-45" target="q9v9OwsAh3zwYfxCeVxv-62" edge="1">
          <mxGeometry relative="1" as="geometry">
            <mxPoint x="1385" y="1090" as="targetPoint" />
          </mxGeometry>
        </mxCell>
        <mxCell id="q9v9OwsAh3zwYfxCeVxv-45" value="is_channel_jp" style="rhombus;whiteSpace=wrap;html=1;" parent="1" vertex="1">
          <mxGeometry x="1330" y="890" width="130" height="80" as="geometry" />
        </mxCell>
        <mxCell id="2K5gjsjbB7ktsCSh4Wdt-7" style="edgeStyle=orthogonalEdgeStyle;rounded=0;orthogonalLoop=1;jettySize=auto;html=1;" parent="1" source="q9v9OwsAh3zwYfxCeVxv-57" target="2K5gjsjbB7ktsCSh4Wdt-2" edge="1">
          <mxGeometry relative="1" as="geometry">
            <Array as="points">
              <mxPoint x="1385" y="1680" />
            </Array>
          </mxGeometry>
        </mxCell>
        <mxCell id="2K5gjsjbB7ktsCSh4Wdt-29" style="edgeStyle=orthogonalEdgeStyle;rounded=0;orthogonalLoop=1;jettySize=auto;html=1;dashed=1;" parent="1" source="q9v9OwsAh3zwYfxCeVxv-57" target="2K5gjsjbB7ktsCSh4Wdt-16" edge="1">
          <mxGeometry relative="1" as="geometry" />
        </mxCell>
        <mxCell id="2K5gjsjbB7ktsCSh4Wdt-30" style="edgeStyle=orthogonalEdgeStyle;rounded=0;orthogonalLoop=1;jettySize=auto;html=1;dashed=1;" parent="1" source="q9v9OwsAh3zwYfxCeVxv-57" target="2K5gjsjbB7ktsCSh4Wdt-19" edge="1">
          <mxGeometry relative="1" as="geometry" />
        </mxCell>
        <mxCell id="q9v9OwsAh3zwYfxCeVxv-57" value="&amp;nbsp; &amp;nbsp;channel_vn = get_channel_vn(channel_id)" style="rounded=0;whiteSpace=wrap;html=1;align=left;" parent="1" vertex="1">
          <mxGeometry x="1255" y="1590" width="260" height="60" as="geometry" />
        </mxCell>
        <mxCell id="q9v9OwsAh3zwYfxCeVxv-58" style="edgeStyle=orthogonalEdgeStyle;rounded=0;orthogonalLoop=1;jettySize=auto;html=1;" parent="1" source="q9v9OwsAh3zwYfxCeVxv-62" target="q9v9OwsAh3zwYfxCeVxv-63" edge="1">
          <mxGeometry relative="1" as="geometry" />
        </mxCell>
        <mxCell id="q9v9OwsAh3zwYfxCeVxv-59" value="true" style="edgeLabel;html=1;align=center;verticalAlign=middle;resizable=0;points=[];" parent="q9v9OwsAh3zwYfxCeVxv-58" vertex="1" connectable="0">
          <mxGeometry x="-0.6923" y="-1" relative="1" as="geometry">
            <mxPoint x="10" y="-1" as="offset" />
          </mxGeometry>
        </mxCell>
        <mxCell id="q9v9OwsAh3zwYfxCeVxv-60" style="edgeStyle=orthogonalEdgeStyle;rounded=0;orthogonalLoop=1;jettySize=auto;html=1;" parent="1" source="q9v9OwsAh3zwYfxCeVxv-62" target="q9v9OwsAh3zwYfxCeVxv-64" edge="1">
          <mxGeometry relative="1" as="geometry">
            <Array as="points">
              <mxPoint x="1025" y="1080" />
            </Array>
          </mxGeometry>
        </mxCell>
        <mxCell id="q9v9OwsAh3zwYfxCeVxv-61" value="false" style="edgeLabel;html=1;align=center;verticalAlign=middle;resizable=0;points=[];" parent="q9v9OwsAh3zwYfxCeVxv-60" vertex="1" connectable="0">
          <mxGeometry x="-0.8196" relative="1" as="geometry">
            <mxPoint x="-28" as="offset" />
          </mxGeometry>
        </mxCell>
        <mxCell id="q9v9OwsAh3zwYfxCeVxv-62" value="is_edited" style="rhombus;whiteSpace=wrap;html=1;" parent="1" vertex="1">
          <mxGeometry x="1330" y="1040" width="130" height="80" as="geometry" />
        </mxCell>
        <mxCell id="q9v9OwsAh3zwYfxCeVxv-63" value="&amp;nbsp; &amp;nbsp;message_text = json_data[&#39;event&#39;][&#39;message&#39;].get(&#39;text&#39;, &#39;&#39;) &lt;br&gt;&amp;nbsp; &amp;nbsp;ts = json_data[&#39;event&#39;][&#39;message&#39;].get(&#39;ts&#39;, &#39;&#39;)" style="rounded=0;whiteSpace=wrap;html=1;align=left;fillColor=#d5e8d4;strokeColor=#82b366;" parent="1" vertex="1">
          <mxGeometry x="1580" y="1130" width="330" height="60" as="geometry" />
        </mxCell>
        <mxCell id="q9v9OwsAh3zwYfxCeVxv-64" value="&amp;nbsp; &amp;nbsp;message_text = json_data[&#39;event&#39;].get(&#39;text&#39;, &#39;&#39;) &lt;br&gt;&amp;nbsp; &amp;nbsp;ts = json_data[&#39;event&#39;].get(&#39;ts&#39;, &#39;&#39;)" style="rounded=0;whiteSpace=wrap;html=1;align=left;fillColor=#d5e8d4;strokeColor=#82b366;" parent="1" vertex="1">
          <mxGeometry x="860" y="1130" width="330" height="60" as="geometry" />
        </mxCell>
        <mxCell id="q9v9OwsAh3zwYfxCeVxv-65" value="gpt_reply = request_text( get_system_rule, get_assistant_rule, message_text )" style="rounded=0;whiteSpace=wrap;html=1;align=left;" parent="1" vertex="1">
          <mxGeometry x="1165.5" y="1250" width="439" height="40" as="geometry" />
        </mxCell>
        <mxCell id="2K5gjsjbB7ktsCSh4Wdt-3" style="edgeStyle=orthogonalEdgeStyle;rounded=0;orthogonalLoop=1;jettySize=auto;html=1;" parent="1" source="2K5gjsjbB7ktsCSh4Wdt-1" target="2K5gjsjbB7ktsCSh4Wdt-2" edge="1">
          <mxGeometry relative="1" as="geometry" />
        </mxCell>
        <mxCell id="2K5gjsjbB7ktsCSh4Wdt-1" value="&amp;nbsp; get_system_rule = get_system_rule(channel_id)&lt;br&gt;&amp;nbsp; get_assistant_rule&amp;nbsp; = get_assistant_rule(channel_id)" style="rounded=0;whiteSpace=wrap;html=1;align=left;" parent="1" vertex="1">
          <mxGeometry x="485" y="1250" width="330" height="40" as="geometry" />
        </mxCell>
        <mxCell id="2K5gjsjbB7ktsCSh4Wdt-2" value="DB service" style="shape=cylinder3;whiteSpace=wrap;html=1;boundedLbl=1;backgroundOutline=1;size=15;fillColor=#1ba1e2;strokeColor=#006EAF;fontColor=#ffffff;" parent="1" vertex="1">
          <mxGeometry x="620" y="1620" width="60" height="80" as="geometry" />
        </mxCell>
        <mxCell id="2K5gjsjbB7ktsCSh4Wdt-8" value="" style="endArrow=classic;html=1;rounded=0;" parent="1" source="2K5gjsjbB7ktsCSh4Wdt-1" target="q9v9OwsAh3zwYfxCeVxv-65" edge="1">
          <mxGeometry width="50" height="50" relative="1" as="geometry">
            <mxPoint x="820" y="1740" as="sourcePoint" />
            <mxPoint x="870" y="1690" as="targetPoint" />
          </mxGeometry>
        </mxCell>
        <mxCell id="2K5gjsjbB7ktsCSh4Wdt-9" value="" style="endArrow=classic;html=1;rounded=0;" parent="1" source="q9v9OwsAh3zwYfxCeVxv-64" target="q9v9OwsAh3zwYfxCeVxv-65" edge="1">
          <mxGeometry width="50" height="50" relative="1" as="geometry">
            <mxPoint x="889" y="1510" as="sourcePoint" />
            <mxPoint x="1351" y="1300" as="targetPoint" />
          </mxGeometry>
        </mxCell>
        <mxCell id="2K5gjsjbB7ktsCSh4Wdt-10" value="" style="endArrow=classic;html=1;rounded=0;" parent="1" source="q9v9OwsAh3zwYfxCeVxv-63" target="q9v9OwsAh3zwYfxCeVxv-65" edge="1">
          <mxGeometry width="50" height="50" relative="1" as="geometry">
            <mxPoint x="1089" y="1110" as="sourcePoint" />
            <mxPoint x="1359" y="1260" as="targetPoint" />
          </mxGeometry>
        </mxCell>
        <mxCell id="2K5gjsjbB7ktsCSh4Wdt-12" value="Chatgpt service" style="verticalLabelPosition=bottom;aspect=fixed;html=1;shape=mxgraph.salesforce.bots;fontStyle=1" parent="1" vertex="1">
          <mxGeometry x="1830" y="1233" width="60" height="57" as="geometry" />
        </mxCell>
        <mxCell id="UXCM1FCCVxhkXjc8UTCl-5" style="edgeStyle=orthogonalEdgeStyle;rounded=0;orthogonalLoop=1;jettySize=auto;html=1;" parent="1" source="2K5gjsjbB7ktsCSh4Wdt-13" target="UXCM1FCCVxhkXjc8UTCl-4" edge="1">
          <mxGeometry relative="1" as="geometry" />
        </mxCell>
        <mxCell id="2K5gjsjbB7ktsCSh4Wdt-13" value="Slack service" style="sketch=0;pointerEvents=1;shadow=0;dashed=0;html=1;strokeColor=none;fillColor=#505050;labelPosition=center;verticalLabelPosition=bottom;verticalAlign=top;outlineConnect=0;align=center;shape=mxgraph.office.communications.chat_room;fontStyle=1" parent="1" vertex="1">
          <mxGeometry x="1362" y="1480" width="46" height="48" as="geometry" />
        </mxCell>
        <mxCell id="2K5gjsjbB7ktsCSh4Wdt-16" value="send_new_message&lt;br&gt;(channel_vn, gpt_reply)" style="rounded=0;whiteSpace=wrap;html=1;align=center;" parent="1" vertex="1">
          <mxGeometry x="961.25" y="1400" width="127.5" height="50" as="geometry" />
        </mxCell>
        <mxCell id="2K5gjsjbB7ktsCSh4Wdt-19" value="update_message&lt;br&gt;(channel_vn, ts, gpt_reply)" style="rounded=0;whiteSpace=wrap;html=1;align=center;" parent="1" vertex="1">
          <mxGeometry x="1655" y="1400" width="180" height="50" as="geometry" />
        </mxCell>
        <mxCell id="2K5gjsjbB7ktsCSh4Wdt-20" value="" style="endArrow=classic;html=1;rounded=0;" parent="1" source="q9v9OwsAh3zwYfxCeVxv-65" target="2K5gjsjbB7ktsCSh4Wdt-16" edge="1">
          <mxGeometry width="50" height="50" relative="1" as="geometry">
            <mxPoint x="1089" y="1110" as="sourcePoint" />
            <mxPoint x="1359" y="1260" as="targetPoint" />
          </mxGeometry>
        </mxCell>
        <mxCell id="2K5gjsjbB7ktsCSh4Wdt-21" value="" style="endArrow=classic;html=1;rounded=0;" parent="1" source="q9v9OwsAh3zwYfxCeVxv-65" target="2K5gjsjbB7ktsCSh4Wdt-19" edge="1">
          <mxGeometry width="50" height="50" relative="1" as="geometry">
            <mxPoint x="1337" y="1300" as="sourcePoint" />
            <mxPoint x="1099" y="1383" as="targetPoint" />
          </mxGeometry>
        </mxCell>
        <mxCell id="2K5gjsjbB7ktsCSh4Wdt-22" value="" style="endArrow=open;endSize=12;dashed=1;html=1;rounded=0;exitX=0.5;exitY=1;exitDx=0;exitDy=0;entryX=0.5;entryY=0;entryDx=0;entryDy=0;" parent="1" source="q9v9OwsAh3zwYfxCeVxv-64" target="2K5gjsjbB7ktsCSh4Wdt-16" edge="1">
          <mxGeometry width="160" relative="1" as="geometry">
            <mxPoint x="1220" y="1470" as="sourcePoint" />
            <mxPoint x="1380" y="1470" as="targetPoint" />
          </mxGeometry>
        </mxCell>
        <mxCell id="2K5gjsjbB7ktsCSh4Wdt-23" value="" style="endArrow=open;endSize=12;dashed=1;html=1;rounded=0;" parent="1" source="q9v9OwsAh3zwYfxCeVxv-63" target="2K5gjsjbB7ktsCSh4Wdt-19" edge="1">
          <mxGeometry width="160" relative="1" as="geometry">
            <mxPoint x="1035" y="1110" as="sourcePoint" />
            <mxPoint x="1035" y="1410" as="targetPoint" />
          </mxGeometry>
        </mxCell>
        <mxCell id="2K5gjsjbB7ktsCSh4Wdt-24" value="" style="endArrow=classic;html=1;rounded=0;" parent="1" source="2K5gjsjbB7ktsCSh4Wdt-19" target="2K5gjsjbB7ktsCSh4Wdt-13" edge="1">
          <mxGeometry width="50" height="50" relative="1" as="geometry">
            <mxPoint x="1441" y="1300" as="sourcePoint" />
            <mxPoint x="1697" y="1410" as="targetPoint" />
          </mxGeometry>
        </mxCell>
        <mxCell id="2K5gjsjbB7ktsCSh4Wdt-25" value="" style="endArrow=classic;html=1;rounded=0;" parent="1" source="2K5gjsjbB7ktsCSh4Wdt-16" target="2K5gjsjbB7ktsCSh4Wdt-13" edge="1">
          <mxGeometry width="50" height="50" relative="1" as="geometry">
            <mxPoint x="1717" y="1460" as="sourcePoint" />
            <mxPoint x="1418" y="1659" as="targetPoint" />
          </mxGeometry>
        </mxCell>
        <mxCell id="2K5gjsjbB7ktsCSh4Wdt-28" value="" style="endArrow=classic;html=1;rounded=0;entryX=-0.033;entryY=0.615;entryDx=0;entryDy=0;entryPerimeter=0;" parent="1" source="q9v9OwsAh3zwYfxCeVxv-65" target="2K5gjsjbB7ktsCSh4Wdt-12" edge="1">
          <mxGeometry width="50" height="50" relative="1" as="geometry">
            <mxPoint x="1690" y="1360" as="sourcePoint" />
            <mxPoint x="1740" y="1310" as="targetPoint" />
          </mxGeometry>
        </mxCell>
        <mxCell id="UXCM1FCCVxhkXjc8UTCl-1" value="" style="ellipse;html=1;shape=endState;fillColor=#000000;strokeColor=#ff0000;" parent="1" vertex="1">
          <mxGeometry x="1760" y="915" width="30" height="30" as="geometry" />
        </mxCell>
        <mxCell id="UXCM1FCCVxhkXjc8UTCl-3" value="" style="ellipse;html=1;shape=endState;fillColor=#000000;strokeColor=#ff0000;" parent="1" vertex="1">
          <mxGeometry x="2150" y="530" width="30" height="30" as="geometry" />
        </mxCell>
        <mxCell id="UXCM1FCCVxhkXjc8UTCl-4" value="" style="ellipse;html=1;shape=endState;fillColor=#000000;strokeColor=#ff0000;" parent="1" vertex="1">
          <mxGeometry x="1370" y="1370" width="30" height="30" as="geometry" />
        </mxCell>
        <mxCell id="UXCM1FCCVxhkXjc8UTCl-6" value="return response" style="rounded=0;whiteSpace=wrap;html=1;fillColor=#d5e8d4;strokeColor=#82b366;" parent="1" vertex="1">
          <mxGeometry x="1945" y="520" width="110" height="50" as="geometry" />
        </mxCell>
        <mxCell id="UXCM1FCCVxhkXjc8UTCl-7" value="" style="endArrow=classic;html=1;rounded=0;exitX=1;exitY=0.5;exitDx=0;exitDy=0;entryX=0;entryY=0.25;entryDx=0;entryDy=0;dashed=1;" parent="1" source="q9v9OwsAh3zwYfxCeVxv-13" target="UXCM1FCCVxhkXjc8UTCl-6" edge="1">
          <mxGeometry width="50" height="50" relative="1" as="geometry">
            <mxPoint x="1640" y="550" as="sourcePoint" />
            <mxPoint x="1690" y="500" as="targetPoint" />
          </mxGeometry>
        </mxCell>
        <mxCell id="UXCM1FCCVxhkXjc8UTCl-8" value="" style="endArrow=classic;html=1;rounded=0;exitX=1;exitY=0.5;exitDx=0;exitDy=0;entryX=0;entryY=0.75;entryDx=0;entryDy=0;dashed=1;" parent="1" source="q9v9OwsAh3zwYfxCeVxv-14" target="UXCM1FCCVxhkXjc8UTCl-6" edge="1">
          <mxGeometry width="50" height="50" relative="1" as="geometry">
            <mxPoint x="1600" y="455" as="sourcePoint" />
            <mxPoint x="1780" y="509" as="targetPoint" />
          </mxGeometry>
        </mxCell>
        <mxCell id="UXCM1FCCVxhkXjc8UTCl-9" value="" style="endArrow=classic;html=1;rounded=0;" parent="1" source="UXCM1FCCVxhkXjc8UTCl-6" target="UXCM1FCCVxhkXjc8UTCl-3" edge="1">
          <mxGeometry width="50" height="50" relative="1" as="geometry">
            <mxPoint x="1830" y="630" as="sourcePoint" />
            <mxPoint x="2050" y="615" as="targetPoint" />
          </mxGeometry>
        </mxCell>
      </root>
    </mxGraphModel>
  </diagram>
</mxfile>
